<?xml version="1.0" encoding="utf-8"?>
<!-- Generator: Adobe Illustrator 23.0.1, SVG Export Plug-In . SVG Version: 6.00 Build 0)  -->
<svg version="1.1" id="Слой_1" xmlns="http://www.w3.org/2000/svg" xmlns:xlink="http://www.w3.org/1999/xlink" x="0px" y="0px"
	 viewBox="0 0 142 90" style="enable-background:new 0 0 142 90;" xml:space="preserve">
<style type="text/css">
	.st0{fill:#B2B2B2;}
	.st1{fill:#FFCC00;}
	.st2{fill:none;stroke:#FFFFFE;stroke-width:3.4;stroke-linecap:round;stroke-linejoin:round;}
	.st3{fill:#FFFFFE;}
</style>
<g>
	<path id="bd12af64-29c2-43e6-85c4-5b1d8505c48b" class="st0" d="M34.6,20c-10.1,9.6-20,19.4-29.7,28.8c-4.8,4.6-7,11.6-2.3,17.5
		c5,6.4,10.1,12.9,15.3,19.4l2.9,3.7H34l-2.9-3.7c-5.1-6.5-10.2-13-15.3-19.4c-4.6-5.9-2.5-12.9,2.3-17.5
		c9.7-9.4,19.6-19.1,29.7-28.7l21-20H55.6L34.6,20z"/>
	<path class="st1" d="M47.9,20c-10.1,9.6-19.9,19.4-29.7,28.7c-4.8,4.6-7,11.6-2.3,17.5c5,6.4,10.1,12.9,15.3,19.4l2.9,3.7h46.1
		l-3.5-4.2c-8.9-10.9-17.6-21.6-26.2-32.1c8.3-7.4,16.6-15,25.1-22.7c7.3-6.6,25.4-23.6,32.8-30.4H68.9L47.9,20z"/>
</g>
<title>logo_front</title>
<g>
	<path class="st2" d="M108.9,42.6c0.1,0.6,0.3,1.1,0.7,1.5c1.7,1.8,4.2,0.9,5.7-0.6c0.7-0.6,1.2-1.5,1.3-2.4l2.2-8.6
		c0.2-0.7,0.2-1.4-0.1-2.1c-1.2-2.6-4.5-1.8-6.2-0.2c-0.7,0.8-1.3,1.7-1.5,2.8c-0.5,1.9-1,3.8-1.5,5.7
		C109.1,40,108.9,41.3,108.9,42.6z"/>
	<path id="be8c31c6-860a-4e01-af2f-5c3bc0268ec8" class="st2" d="M122.7,48.5c2.5,4.1,5,8.1,7.5,12.2c0.5,0.6,0.8,1.4,0.9,2.2
		c0.1,0.6-0.1,1.3-0.3,1.8c-0.9,1.7-2.5,2.8-4.4,3.1c-0.6,0-1.2-0.1-1.7-0.4c-0.7-0.5-1.2-1.1-1.6-1.8l-8.8-14.3
		c-0.3-0.4-0.5-0.9-0.6-1.4c-0.2-0.9-0.1-1.8,0.3-2.5c0.2-0.3,0.4-0.6,0.7-0.9c0.7-0.7,1.5-1.3,2.2-1.9c1.6-1.4,3.1-2.9,4.7-4.3
		L133,30.3c1.7-1.5,4.5-2.2,6-0.1c1.3,1.7,0,4.2-1.3,5.4C132.7,39.9,127.7,44.2,122.7,48.5z"/>
	<path class="st2" d="M106.7,59.2c-0.5,0-0.9,0.1-1.3,0.2c-3.2,1-4.3,5.4-1.6,7.6c0.7,0.5,1.6,0.8,2.4,0.8c3.8,0,6-4.8,3.2-7.5
		C108.7,59.6,107.7,59.2,106.7,59.2z"/>
	<path id="ba5d5a1c-967d-48da-a681-9165630525b2" class="st2" d="M35.6,36.9h12.8l-0.5,2c-2.1,8.1-4.3,16.3-6.4,24.4
		c-0.2,0.8-0.3,1.6-0.2,2.4c0.2,2,2.1,2.7,3.9,2.3c1-0.2,1.9-0.8,2.6-1.6c0.6-0.8,1-1.7,1.2-2.6c0.2-0.8,0.5-1.5,0.7-2.3
		c2.5-9.5,5-19,7.5-28.5c0.4-1.6,0.2-3-1.5-3.8c-0.8-0.3-1.6-0.4-2.5-0.3H34.8c-0.6,0-1.2,0-1.8,0.1c-1.6,0.2-3,1.2-3.6,2.7
		c-0.2,0.3-0.3,0.7-0.4,1.1c-2.6,10-5.2,20-7.8,30c-0.4,1.1-0.5,2.3-0.2,3.4c0.6,1.5,2.4,1.8,3.8,1.6c2-0.5,3.5-2,3.8-4
		C31,54.9,33.3,45.9,35.6,36.9z"/>
	<path class="st2" d="M63.7,55.3L61.5,64c-0.2,1.1-0.8,2.1-1.6,2.8c-0.4,0.3-0.8,0.6-1.2,0.8c-1.3,0.6-2.8,0.5-4-0.1
		c-0.6-0.5-1-1.2-1-1.9c-0.1-0.7,0-1.5,0.2-2.2c1-4.1,2.1-8.2,3.2-12.3c0.1-0.4,0.3-0.7,0.5-1c1.5-2.7,3.8-2.5,6.4-2.6l4-0.1
		c1.3,0.1,2.7-0.3,3.8-1c1.6-1,2.7-2.6,3-4.5c0.3-1,0.3-2-0.1-3c-0.3-0.7-0.8-1.3-1.5-1.6c-0.5-0.2-1-0.3-1.6-0.4
		c-0.5,0-1.1,0-1.6,0h-3.6c-1.2,0-2.5,0.1-3.5-0.5c-0.5-0.3-0.8-0.9-0.9-1.5c-0.2-0.9-0.1-1.8,0.2-2.7c0.6-1.6,2.1-2.8,3.9-3
		c1.6-0.2,3.2-0.2,4.8-0.1c3.7,0,7.5,0.4,10,3.3c0.4,0.5,0.8,1.1,1.2,1.7c0.5,1.3,0.8,2.6,0.9,3.9c0,0.6,0,1.1-0.1,1.7
		c-0.2,2-0.7,4-1.5,5.8c-1.5,3.2-4,5.9-7.1,7.6c-1.1,0.6-2.3,1.1-3.5,1.5c-1.6,0.5-3.2,0.7-4.9,0.7L63.7,55.3z"/>
	<path id="fd8b78bb-1cd7-43ac-9e6e-61f5581f4398" class="st2" d="M78.3,55.5c0.5,0.2,0.9,0.4,1.3,0.8c0.5,0.6,0.8,1.1,1.2,1.5
		c0.7,0.8,1.6,1.5,2.7,1.9c1,0.3,2.1,0.5,3.1,0.5c1.8,0.1,3.6-0.3,5.2-1c0.4-0.2,0.9-0.4,1.3-0.7c1.8-1.3,3.4-2.9,4.6-4.7
		c1.5-2.4,2.4-5.2,2.6-8c0.1-1.4-0.1-2.9-0.7-4.2c-1.3-2.7-4-4.6-7-4.8c-1.7-0.2-4.2,0.8-5.7-0.6c-0.7-0.8-0.9-2-0.7-3
		c0.1-0.7,0.4-1.4,0.8-2c1.7-2.5,5.3-2.4,7.9-2.2c1,0.1,2.1,0.4,3.1,0.7c5.1,1.3,8.9,5.5,9.8,10.7c0.2,1.3,0.3,2.6,0.2,3.8
		c-0.1,2.2-0.5,4.5-1.3,6.6c-0.3,0.8-0.6,1.6-0.9,2.4c-0.6,1.3-1.4,2.6-2.1,3.9c-2.1,3.4-5.1,6.2-8.5,8.2c-0.5,0.3-1,0.6-1.5,0.8
		c-1,0.4-2.1,0.8-3.2,1c-2.9,0.9-6,1-9,0.4c-1.8-0.4-3.5-1.1-4.9-2.2c-0.4-0.3-0.8-0.5-1.1-0.8c-1.3-1-2.3-2.3-2.8-3.9
		C71.9,58.1,75.7,54.8,78.3,55.5z"/>
	<path id="d9cde917-5913-42b7-b28e-7eaf9f095751" class="st3" d="M108.9,42.6c0.1,0.6,0.3,1.1,0.7,1.5c1.7,1.8,4.2,0.9,5.7-0.6
		c0.7-0.6,1.2-1.5,1.3-2.4l2.2-8.6c0.2-0.7,0.2-1.4-0.1-2.1c-1.2-2.6-4.5-1.8-6.2-0.2c-0.7,0.8-1.3,1.7-1.5,2.8
		c-0.5,1.9-1,3.8-1.5,5.7C109.1,40,108.9,41.3,108.9,42.6z"/>
	<path class="st3" d="M122.7,48.5c2.5,4.1,5,8.1,7.5,12.2c0.5,0.6,0.8,1.4,0.9,2.2c0.1,0.6-0.1,1.3-0.3,1.8
		c-0.9,1.7-2.5,2.8-4.4,3.1c-0.6,0-1.2-0.1-1.7-0.4c-0.7-0.5-1.2-1.1-1.6-1.8l-8.8-14.3c-0.3-0.4-0.5-0.9-0.6-1.4
		c-0.2-0.9-0.1-1.8,0.3-2.5c0.2-0.3,0.4-0.6,0.7-0.9c0.7-0.7,1.5-1.3,2.2-1.9c1.6-1.4,3.1-2.9,4.7-4.3L133,30.3
		c1.7-1.5,4.5-2.2,6-0.1c1.3,1.7,0,4.2-1.3,5.4C132.7,39.9,127.7,44.2,122.7,48.5z"/>
	<path class="st3" d="M35.6,36.9h12.8l-0.5,2c-2.1,8.1-4.3,16.3-6.4,24.4c-0.2,0.8-0.3,1.6-0.2,2.4c0.2,2,2.1,2.7,3.9,2.3
		c1-0.2,1.9-0.8,2.6-1.6c0.6-0.8,1-1.7,1.2-2.6c0.2-0.8,0.5-1.5,0.7-2.3c2.5-9.5,5-19,7.5-28.5c0.4-1.6,0.2-3-1.5-3.8
		c-0.8-0.3-1.6-0.4-2.5-0.3H34.8c-0.6,0-1.2,0-1.8,0.1c-1.6,0.2-3,1.2-3.6,2.7c-0.2,0.3-0.3,0.7-0.4,1.1c-2.6,10-5.2,20-7.8,30
		c-0.4,1.1-0.5,2.3-0.2,3.4c0.6,1.5,2.4,1.8,3.8,1.6c2-0.5,3.5-2,3.8-4C31,54.9,33.3,45.9,35.6,36.9z"/>
	<path id="adeee00c-b339-46b6-aed0-b7c5e3021448" class="st3" d="M63.7,55.3L61.5,64c-0.2,1.1-0.8,2.1-1.6,2.8
		c-0.4,0.3-0.8,0.6-1.2,0.8c-1.3,0.6-2.8,0.5-4-0.1c-0.6-0.5-1-1.2-1-1.9c-0.1-0.7,0-1.5,0.2-2.2c1-4.1,2.1-8.2,3.2-12.3
		c0.1-0.4,0.3-0.7,0.5-1c1.5-2.7,3.8-2.5,6.4-2.6l4-0.1c1.3,0.1,2.7-0.3,3.8-1c1.6-1,2.7-2.6,3-4.5c0.3-1,0.3-2-0.1-3
		c-0.3-0.7-0.8-1.3-1.5-1.6c-0.5-0.2-1-0.3-1.6-0.4c-0.5,0-1.1,0-1.6,0h-3.6c-1.2,0-2.5,0.1-3.5-0.5c-0.5-0.3-0.8-0.9-0.9-1.5
		c-0.2-0.9-0.1-1.8,0.2-2.7c0.6-1.6,2.1-2.8,3.9-3c1.6-0.2,3.2-0.2,4.8-0.1c3.7,0,7.5,0.4,10,3.3c0.4,0.5,0.8,1.1,1.2,1.7
		c0.5,1.3,0.8,2.6,0.9,3.9c0,0.6,0,1.1-0.1,1.7c-0.2,2-0.7,4-1.5,5.8c-1.5,3.2-4,5.9-7.1,7.6c-1.1,0.6-2.3,1.1-3.5,1.5
		c-1.6,0.5-3.2,0.7-4.9,0.7L63.7,55.3z"/>
	<path class="st3" d="M78.3,55.5c0.5,0.2,0.9,0.4,1.3,0.8c0.5,0.6,0.8,1.1,1.2,1.5c0.7,0.8,1.6,1.5,2.7,1.9c1,0.3,2.1,0.5,3.1,0.5
		c1.8,0.1,3.6-0.3,5.2-1c0.4-0.2,0.9-0.4,1.3-0.7c1.8-1.3,3.4-2.9,4.6-4.7c1.5-2.4,2.4-5.2,2.6-8c0.1-1.4-0.1-2.9-0.7-4.2
		c-1.3-2.7-4-4.6-7-4.8c-1.7-0.2-4.2,0.8-5.7-0.6c-0.7-0.8-0.9-2-0.7-3c0.1-0.7,0.4-1.4,0.8-2c1.7-2.5,5.3-2.4,7.9-2.2
		c1,0.1,2.1,0.4,3.1,0.7c5.1,1.3,8.9,5.5,9.8,10.7c0.2,1.3,0.3,2.6,0.2,3.8c-0.1,2.2-0.5,4.5-1.3,6.6c-0.3,0.8-0.6,1.6-0.9,2.4
		c-0.6,1.3-1.4,2.6-2.1,3.9c-2.1,3.4-5.1,6.2-8.5,8.2c-0.5,0.3-1,0.6-1.5,0.8c-1,0.4-2.1,0.8-3.2,1c-2.9,0.9-6,1-9,0.4
		c-1.8-0.4-3.5-1.1-4.9-2.2c-0.4-0.3-0.8-0.5-1.1-0.8c-1.3-1-2.3-2.3-2.8-3.9C71.9,58.1,75.7,54.8,78.3,55.5z"/>
	<path id="e91afb23-b235-4792-aca9-ede522cdd022" class="st3" d="M106.7,59.2c-0.5,0-0.9,0.1-1.3,0.2c-3.2,1-4.3,5.4-1.6,7.6
		c0.7,0.5,1.6,0.8,2.4,0.8c3.8,0,6-4.8,3.2-7.5C108.7,59.6,107.7,59.2,106.7,59.2z"/>
	<path d="M108.9,42.6c0.1,0.6,0.3,1.1,0.7,1.5c1.7,1.8,4.2,0.9,5.7-0.6c0.7-0.6,1.2-1.5,1.3-2.4l2.2-8.6c0.2-0.7,0.2-1.4-0.1-2.1
		c-1.2-2.6-4.5-1.8-6.2-0.2c-0.7,0.8-1.3,1.7-1.5,2.8c-0.5,1.9-1,3.8-1.5,5.7C109.1,40,108.9,41.2,108.9,42.6"/>
	<path d="M122.7,48.5c2.5,4.1,5,8.1,7.5,12.2c0.5,0.6,0.8,1.4,0.9,2.2c0.1,0.6-0.1,1.3-0.3,1.8c-0.9,1.7-2.5,2.8-4.4,3.1
		c-0.6,0-1.2-0.1-1.7-0.4c-0.7-0.5-1.2-1.1-1.6-1.8l-8.8-14.3c-0.3-0.4-0.5-0.9-0.6-1.4c-0.2-0.9-0.1-1.8,0.3-2.5
		c0.2-0.3,0.4-0.6,0.7-0.9c0.7-0.7,1.5-1.3,2.2-1.9c1.6-1.4,3.1-2.9,4.7-4.3L133,30.3c1.7-1.5,4.5-2.2,6-0.1c1.3,1.7,0,4.2-1.3,5.4
		C132.7,39.9,127.8,44.2,122.7,48.5"/>
	<path id="c01cd254-559c-41c9-a3de-4b1c4daf402d" d="M106.7,59.2c-0.5,0-0.9,0.1-1.3,0.2c-3.2,1-4.3,5.4-1.6,7.6
		c0.7,0.5,1.6,0.8,2.4,0.8c3.8,0,6-4.8,3.2-7.5C108.7,59.6,107.7,59.2,106.7,59.2L106.7,59.2"/>
	<path d="M35.6,36.9h12.8l-0.5,2c-2.1,8.1-4.3,16.3-6.4,24.4c-0.2,0.8-0.3,1.6-0.2,2.4c0.2,2,2.1,2.7,3.9,2.3c1-0.2,1.9-0.8,2.6-1.6
		c0.6-0.8,1-1.7,1.2-2.6c0.2-0.8,0.5-1.5,0.7-2.3c2.5-9.5,5-19,7.5-28.5c0.4-1.6,0.2-3-1.5-3.8c-0.8-0.3-1.6-0.4-2.5-0.3H34.8
		c-0.6,0-1.2,0-1.8,0.1c-1.6,0.2-3,1.2-3.6,2.7c-0.2,0.3-0.3,0.7-0.4,1.1c-2.6,10-5.2,20-7.8,30c-0.4,1.1-0.5,2.3-0.2,3.4
		c0.6,1.5,2.4,1.8,3.8,1.6c2-0.5,3.5-2,3.8-4C31,54.8,33.3,45.8,35.6,36.9"/>
	<path d="M63.7,55.3L61.5,64c-0.2,1.1-0.8,2.1-1.6,2.8c-0.4,0.3-0.8,0.6-1.2,0.8c-1.3,0.6-2.8,0.5-4-0.1c-0.6-0.5-1-1.2-1-1.9
		c-0.1-0.7,0-1.5,0.2-2.2c1-4.1,2.1-8.2,3.2-12.3c0.1-0.4,0.3-0.7,0.5-1c1.5-2.7,3.8-2.5,6.4-2.6l4-0.1c1.3,0.1,2.7-0.3,3.8-1
		c1.6-1,2.7-2.6,3-4.5c0.3-1,0.3-2-0.1-3c-0.3-0.7-0.8-1.3-1.5-1.6c-0.5-0.2-1-0.3-1.6-0.4c-0.5,0-1.1,0-1.6,0h-3.6
		c-1.2,0-2.5,0.1-3.5-0.5c-0.5-0.3-0.8-0.9-0.9-1.5c-0.2-0.9-0.1-1.8,0.2-2.7c0.6-1.6,2.1-2.8,3.9-3c1.6-0.2,3.2-0.2,4.8-0.1
		c3.7,0,7.5,0.4,10,3.3c0.4,0.5,0.8,1.1,1.2,1.7c0.5,1.3,0.8,2.6,0.9,3.9c0,0.6,0,1.1-0.1,1.7c-0.2,2-0.7,4-1.5,5.8
		c-1.5,3.2-4,5.9-7.1,7.6c-1.1,0.6-2.3,1.1-3.5,1.5c-1.6,0.5-3.2,0.7-4.9,0.7L63.7,55.3"/>
	<path d="M78.3,55.5c0.5,0.2,0.9,0.4,1.3,0.8c0.5,0.6,0.8,1.1,1.2,1.5c0.7,0.8,1.6,1.5,2.7,1.9c1,0.3,2.1,0.5,3.1,0.5
		c1.8,0.1,3.6-0.3,5.2-1c0.4-0.2,0.9-0.4,1.3-0.7c1.8-1.3,3.4-2.9,4.6-4.7c1.5-2.4,2.4-5.2,2.6-8c0.1-1.4-0.1-2.9-0.7-4.2
		c-1.3-2.7-4-4.6-7-4.8c-1.7-0.2-4.2,0.8-5.7-0.6c-0.7-0.8-0.9-2-0.7-3c0.1-0.7,0.4-1.4,0.8-2c1.7-2.5,5.3-2.4,7.9-2.2
		c1,0.1,2.1,0.4,3.1,0.7c5.1,1.3,8.9,5.5,9.8,10.7c0.2,1.3,0.3,2.6,0.2,3.8c-0.1,2.2-0.5,4.5-1.3,6.6c-0.3,0.8-0.6,1.6-0.9,2.4
		c-0.6,1.3-1.4,2.6-2.1,3.9c-2.1,3.4-5.1,6.2-8.5,8.2c-0.5,0.3-1,0.6-1.5,0.8c-1,0.4-2.1,0.8-3.2,1c-2.9,0.9-6,1-9,0.4
		c-1.8-0.4-3.5-1.1-4.9-2.2c-0.4-0.3-0.8-0.5-1.1-0.8c-1.3-1-2.3-2.3-2.8-3.9C72,58,75.7,54.8,78.3,55.5"/>
	<path d="M21.3,73.3h3.3v1.2h-2v5.4h-1.3V73.3z M25.7,73.3h1.3c0.5,0,1.1,0,1.6,0.2c0.3,0.1,0.6,0.4,0.8,0.7
		c0.2,0.3,0.3,0.7,0.3,1.1c0,0.4-0.1,0.8-0.4,1.2c-0.3,0.3-0.6,0.5-1,0.6c-0.4,0.1-0.9,0.1-1.3,0.1v2.8h-1.3V73.3z M27,75.9h0.4
		c0.2,0,0.4,0,0.7-0.1c0.1,0,0.2-0.1,0.3-0.2c0.1-0.1,0.1-0.2,0.1-0.4c0-0.2-0.1-0.4-0.3-0.6c-0.3-0.1-0.5-0.2-0.8-0.1H27V75.9z
		 M32.9,78.4l-2.4-5.1H32l1.5,3.7l1.3-3.7h1.3L34.4,78c-0.2,0.6-0.5,1.2-1,1.6c-0.3,0.3-0.7,0.4-1.1,0.4c-0.7,0-1.4-0.4-1.8-1
		l0.8-0.8c0.2,0.3,0.6,0.5,1,0.6c0.1,0,0.3,0,0.4-0.1C32.7,78.6,32.8,78.5,32.9,78.4z M37.1,73.3h4.8v6.6h-1.3v-5.4h-2.2v5.4h-1.3
		L37.1,73.3z M43.6,73.3h4.8v6.6h-1.3v-5.4h-2.2v5.4h-1.3V73.3z M52,73.3h1.3l2.5,6.6h-1.3L54,78.6h-2.7l-0.5,1.4h-1.3L52,73.3z
		 M52.7,75.1l-0.9,2.3h1.8L52.7,75.1z M60.5,73.3h1.3v2.3l1.8-2.3H65l-2.3,3l2.5,3.7h-1.4l-2-2.9V80h-1.3L60.5,73.3z M69.5,73.1
		c0.9,0,1.8,0.3,2.4,1c0.7,0.7,1,1.6,1,2.5c0,0.9-0.3,1.8-1,2.4c-1.3,1.4-3.5,1.4-4.9,0c0,0,0,0,0,0c-1.3-1.4-1.3-3.6,0-4.9
		C67.7,73.5,68.6,73.2,69.5,73.1L69.5,73.1z M69.5,74.4c-0.6,0-1.2,0.2-1.6,0.6c-0.4,0.4-0.6,1-0.6,1.6c0,0.7,0.3,1.3,0.8,1.7
		c0.4,0.3,0.9,0.5,1.4,0.5c0.6,0,1.1-0.2,1.5-0.6c0.9-0.9,0.9-2.3,0-3.2C70.6,74.6,70,74.4,69.5,74.4L69.5,74.4z M74.9,73.3h1.2
		l1.5,4.6l1.6-4.6h1.2l1.1,6.6h-1.2l-0.7-4.2l-1.4,4.2h-1.1l-1.4-4.2L75,79.9h-1.3L74.9,73.3z M82.7,73.3h4.8v6.6h-1.3v-5.4H84v5.4
		h-1.3L82.7,73.3z M91.2,73.3h1.3l2.6,6.6h-1.3l-0.5-1.4h-2.7l-0.5,1.4h-1.3L91.2,73.3z M91.8,75l-0.9,2.3h1.8L91.8,75z M96.1,73.3
		h1.3v2.5h2.2v-2.5h1.3v6.6h-1.3V77h-2.2v2.9h-1.3L96.1,73.3z M107.4,73.3v6.6h-1.3v-4.1l-2.5,4.1h-1.1v-6.6h1.3v4.3l2.5-4.3
		L107.4,73.3z M113.9,73.3v6.6h-1.3v-4.1l-2.5,4.1H109v-6.6h1.3v4.3l2.5-4.3L113.9,73.3z M109.7,71.5h1c0.1,0.1,0.2,0.2,0.3,0.3
		c0.2,0.1,0.3,0.1,0.5,0.1c0.2,0,0.4,0,0.6-0.1c0.1-0.1,0.2-0.1,0.3-0.3h1c0,0.4-0.2,0.7-0.6,0.9c-0.4,0.3-0.8,0.4-1.3,0.3
		c-0.3,0-0.6,0-0.9-0.2c-0.2-0.1-0.4-0.2-0.6-0.4C109.8,72,109.7,71.8,109.7,71.5L109.7,71.5z"/>
</g>
</svg>
