<?xml version="1.0" encoding="utf-8"?>
<!-- Generator: Adobe Illustrator 23.0.1, SVG Export Plug-In . SVG Version: 6.00 Build 0)  -->
<svg version="1.1" id="Layer_1" xmlns="http://www.w3.org/2000/svg" xmlns:xlink="http://www.w3.org/1999/xlink" x="0px" y="0px"
	 viewBox="0 0 222 96" style="enable-background:new 0 0 222 96;" xml:space="preserve">
<style type="text/css">
	.st0{fill:#B70C32;}
</style>
<path class="st0" d="M147.1,25.8l-33.3,44.4H86l33.3-44.4H147.1z M169.2,59.1c-4.6,0-7.2-5.3-4.4-8.9l18.4-24.4h-27.8l-12.5,16.6
	c-3,4-3,7.1,0,11.1l8.3,11c4.2,5.6,8.4,5.6,15.4,5.6h19.4c16.7,0,27.8-11.1,27.8-27.8V31.3c0-16.6-11.1-27.8-27.8-27.8h-25
	c-1.2,0-2.8,0-4.2,1.4c-1.4,1.4-1.4,3-1.4,4.2v5.6h30.5c3.5,0,5.6,2.1,5.6,5.6v33.3c0,3.5-2.1,5.6-5.6,5.6H169.2z M63.9,36.9
	c4.6,0,7.2,5.3,4.4,8.9L49.9,70.2h27.8l12.5-16.6c3-4,3-7.1,0-11.1l-8.3-11c-4.2-5.6-8.4-5.6-15.4-5.6H13.9c-1.2,0-2.8,0-4.2,1.4
	s-1.4,3-1.4,4.2v5.6h11.1v55.5h22.2V36.9H63.9z"/>
</svg>
