<?xml version="1.0" encoding="utf-8"?>
<!-- Generator: Adobe Illustrator 23.0.1, SVG Export Plug-In . SVG Version: 6.00 Build 0)  -->
<svg version="1.1" id="Livello_1" xmlns="http://www.w3.org/2000/svg" xmlns:xlink="http://www.w3.org/1999/xlink" x="0px" y="0px"
	 viewBox="0 0 226.8 85.5" style="enable-background:new 0 0 226.8 85.5;" xml:space="preserve">
<g>
	<polyline points="9,31.1 9,42.5 39.7,39.1 39.7,26.8 	"/>
	<polyline points="18.8,43.2 18.8,82.1 30,82.1 30,42 	"/>
	<polyline points="43.8,26.2 43.8,82.1 55.6,82.1 55.6,24.6 	"/>
	<polyline points="57.8,24.2 57.8,37.1 74.9,35.2 74.9,21.8 	"/>
	<polyline points="57.8,46.7 57.8,59.7 69,59.1 69,45.7 	"/>
	<polyline points="57.8,69.2 57.8,82.1 74.9,82.1 74.9,68.7 	"/>
	<polyline points="119,15.6 119,82.1 134.5,82.1 134.5,13.5 	"/>
	<polyline points="137.4,13 137.4,28.3 160,25.8 160,9.9 	"/>
	<polyline points="137.4,39.8 137.4,55.4 152.2,54.6 152.2,38.6 	"/>
	<polyline points="137.4,66.8 137.4,82.1 160,82.1 160,66.1 	"/>
	<polyline points="79.4,21.2 79.4,82.1 92.9,82.1 92.9,19.3 	"/>
	<polyline points="95.4,68 95.4,82.1 114.9,82.1 114.9,67.4 	"/>
	<path d="M210.6,9.1c-4.9-4.6-12.1-6.5-19.9-5.4v17c3.2-0.2,5.8,1,6.9,3.4c1.8,3.7-0.1,9.4-4.5,14.6c-6.8,8-24.9,24.5-24.9,24.5
		l26-0.9c15.9-15.5,21.6-24.9,22.6-36.7C217.4,19.3,215.1,13.3,210.6,9.1"/>
	<polyline points="165,65.9 165,82.1 217.7,82.1 217.7,64.3 	"/>
	<path d="M187.7,4.1c-15.3,3.3-22.8,14.5-22,32.9l16.3-1.4c-0.7-10.4,2.4-12.9,5.7-14.2"/>
</g>
</svg>
