<svg width="108" height="120" viewBox="0 0 108 120" fill="none" xmlns="http://www.w3.org/2000/svg">
<g id="Icons / 03 / Dogovor">
<g id="Dogovor">
<path id="Shape" fill-rule="evenodd" clip-rule="evenodd" d="M106.66 15.1802C106.663 9.78745 102.39 5.36355 97 5.1802H96.72H62C61.7266 3.02352 60.2779 1.19721 58.24 0.440198C55.8925 -0.489296 53.2142 0.150284 51.54 2.0402C51.1701 2.46146 50.6405 2.70816 50.08 2.7202C49.4924 2.73956 48.9324 2.47075 48.58 2.0002C46.8633 0.137932 44.1445 -0.410675 41.84 0.640198C39.9636 1.45164 38.6295 3.16261 38.3 5.1802H19.34C14.9217 5.1802 11.34 8.76192 11.34 13.1802V95.6402H0V105.48C0 112.505 5.69494 118.2 12.72 118.2H80.58C83.2171 118.254 85.7645 117.243 87.6465 115.395C89.5284 113.546 90.5859 111.018 90.58 108.38V29.5202H106.74L106.66 15.1802ZM40.54 10.8202C41.718 9.60515 42.3282 7.94911 42.22 6.2602C42.1895 5.43136 42.6738 4.66973 43.4373 4.3457C44.2008 4.02166 45.085 4.20248 45.66 4.8002C46.7767 6.04915 48.3648 6.77429 50.04 6.8002C51.7292 6.78546 53.3339 6.05935 54.46 4.8002C55.0191 4.18072 55.904 3.97344 56.68 4.2802C57.4196 4.54461 57.9359 5.21742 58 6.0002C57.9405 7.69032 58.5971 9.32706 59.808 10.5076C61.019 11.6881 62.6719 12.3027 64.36 12.2002C65.1835 12.1701 65.9412 12.6483 66.2684 13.4046C66.5957 14.1608 66.4256 15.0404 65.84 15.6202C64.5753 16.7817 63.8689 18.4294 63.8995 20.1462C63.93 21.863 64.6947 23.4845 66 24.6002C66.6195 25.1593 66.8268 26.0442 66.52 26.8202C66.1928 27.6235 65.385 28.1243 64.52 28.0602C62.8299 28.0007 61.1931 28.6573 60.0126 29.8682C58.8321 31.0792 58.2175 32.7321 58.32 34.4202C58.3505 35.249 57.8662 36.0107 57.1027 36.3347C56.3392 36.6587 55.455 36.4779 54.88 35.8802C53.7446 34.6107 52.1231 33.8836 50.42 33.8802C48.712 33.9253 47.1043 34.6964 46 36.0002C45.4325 36.5891 44.5636 36.773 43.8061 36.4648C43.0485 36.1565 42.5551 35.418 42.56 34.6002C42.6198 32.9711 42.0141 31.3879 40.8824 30.2146C39.7506 29.0414 38.1902 28.3791 36.56 28.3802H36.18C35.3548 28.402 34.6011 27.9146 34.2823 27.1532C33.9636 26.3917 34.1454 25.5127 34.74 24.9402C35.996 23.785 36.7008 22.1497 36.6779 20.4434C36.655 18.7371 35.9066 17.1212 34.62 16.0002C33.9984 15.4787 33.7534 14.6333 34 13.8602C34.3272 13.0569 35.135 12.5561 36 12.6202C37.7001 12.6911 39.3504 12.0368 40.54 10.8202ZM42.24 40.2402C40.2194 39.4513 38.7972 37.614 38.54 35.4602L30.72 50.3202H35.1L37.78 54.2002L44.98 40.6802C44.8201 40.6898 44.6599 40.6898 44.5 40.6802C43.7253 40.6808 42.9579 40.5314 42.24 40.2402ZM61.62 37.2602L61.6498 37.3161C60.1852 40.0534 56.8652 41.2261 54 40.0002L61.58 54.2802L64.28 50.4402H68.64L61.6498 37.3161C61.6668 37.2843 61.6835 37.2524 61.7 37.2202L61.62 37.2602ZM4 105.48C4.011 110.292 7.90864 114.189 12.72 114.2H72.84C71.5578 112.522 70.8558 110.472 70.84 108.36V99.6402H4V105.48ZM86.5 15.6602V108.36C86.3191 111.448 83.7627 113.859 80.67 113.859C77.5773 113.859 75.0209 111.448 74.84 108.36V95.6402H15.34V13.1802C15.34 10.9711 17.1309 9.1802 19.34 9.1802H33.34C31.9983 9.83721 30.9499 10.9711 30.4 12.3602C29.4611 14.7133 30.1014 17.4027 32 19.0802C32.4039 19.4583 32.6331 19.9869 32.6331 20.5402C32.6331 21.0935 32.4039 21.6221 32 22.0002C30.2719 23.6388 29.6764 26.1444 30.4826 28.3853C31.2888 30.6261 33.344 32.1781 35.72 32.3402L24 54.2802H33.02L38.26 61.8202L49.62 40.4802L61.1 62.0002L66.36 54.5202H75.34L63.54 32.3402C63.8014 32.1713 64.0937 32.0557 64.4 32.0002C66.9113 32.0624 69.1954 30.5536 70.1238 28.2193C71.0521 25.8851 70.4281 23.2197 68.56 21.5402C68.1496 21.1616 67.9161 20.6286 67.9161 20.0702C67.9161 19.5118 68.1496 18.9788 68.56 18.6002C69.9209 17.3326 70.617 15.5057 70.4448 13.6539C70.2725 11.8022 69.2513 10.135 67.68 9.1402H88.8C87.3151 10.9892 86.5039 13.2887 86.5 15.6602ZM90.5 25.5202H102.66L102.72 15.2002C102.72 11.8865 100.034 9.2002 96.72 9.2002C93.2509 9.33949 90.5079 12.1883 90.5 15.6602V25.5202Z" fill="white"/>
<path id="Shape_2" fill-rule="evenodd" clip-rule="evenodd" d="M54.1198 29.3399C52.9109 29.8511 51.6123 30.1163 50.2998 30.1199C45.2667 30.1258 41.0475 26.3182 40.5386 21.3109C40.0297 16.3037 43.3965 11.725 48.3278 10.7181C53.2591 9.71116 58.1514 12.6034 59.6462 17.4094C61.141 22.2153 58.7522 27.3722 54.1198 29.3399ZM50.2598 14.5599C49.4828 14.556 48.7134 14.7126 47.9998 15.0199C45.2682 16.1802 43.8591 19.2206 44.7397 22.0548C45.6202 24.889 48.5041 26.5957 51.4122 26.0038C54.3204 25.4119 56.3077 22.7137 56.0103 19.7608C55.713 16.8079 53.2276 14.5601 50.2598 14.5599Z" fill="white"/>
<rect id="Rectangle" x="26.4399" y="70.3604" width="47.5" height="4" fill="white"/>
<rect id="Rectangle_2" x="26.4399" y="80.8604" width="47.5" height="4" fill="white"/>
</g>
</g>
</svg>
