<svg width="128" height="128" viewBox="0 0 128 128" fill="none" xmlns="http://www.w3.org/2000/svg">
<g id="Icons / 03 / Garanty">
<g id="Garanty">
<path id="Shape" fill-rule="evenodd" clip-rule="evenodd" d="M67.5998 17.3203L68.1398 18.0003C73.9998 24.8203 86.9398 29.2403 101.12 29.2003H104V45.3203C103.982 72.0606 89.6006 96.73 66.3398 109.92L64.9998 110.68L63.9998 110.1C41.2871 96.7318 27.3305 72.3553 27.2998 46.0003V29.2603H29.2998H30.8998C45.0598 29.2603 57.9998 24.8403 63.8598 18.0003C63.9984 17.8479 64.1274 17.6858 64.2534 17.5275C64.3092 17.4573 64.3645 17.3879 64.4198 17.3203L65.9998 15.3203L67.5998 17.3203ZM64.9998 106C86.6218 93.4316 99.9467 70.3299 99.9998 45.3203V33.2403C85.5798 33.0203 72.7998 28.6203 65.9998 21.5603C59.0998 28.7403 45.9798 33.2403 31.2598 33.2403V46.0003C31.303 70.508 44.0812 93.2316 64.9998 106Z" fill="white"/>
<path id="Shape_2" fill-rule="evenodd" clip-rule="evenodd" d="M126.78 104.2L114.64 95.68L117.3 91.34L116.48 90.26C114.888 88.1298 112.947 86.2839 110.74 84.8C109.328 83.8723 107.819 83.1011 106.24 82.5C112.83 69.0033 116.25 54.1797 116.24 39.16V18.3H113.06C93.88 18.3 76.36 12.3 68.42 3C68.14 2.70667 67.9067 2.37333 67.72 2L66.12 0L64.54 2C64.2971 2.33355 64.0368 2.654 63.76 2.96C55.76 12.26 38.3 18.26 19.14 18.26H16.98H14.98V40.26C14.9842 54.7856 18.2082 69.1296 24.42 82.26C22.474 82.8708 20.6127 83.7242 18.88 84.8C16.6729 86.2839 14.7323 88.1298 13.14 90.26L12.34 91.34L15 95.68L2.85999 104.2C2.2732 104.604 1.94561 105.29 1.99999 106C2.06029 106.711 2.49469 107.336 3.13999 107.64L14 112.82L13.54 125.38C13.54 126.485 14.4354 127.38 15.54 127.38C15.9076 127.377 16.2675 127.274 16.58 127.08L38.58 113.64C39.3215 113.195 39.6926 112.323 39.5 111.48C39.4406 111.266 39.346 111.063 39.22 110.88L35.22 104.76C36.1071 104.303 37.0223 103.902 37.96 103.56C45.1858 112.208 53.8454 119.548 63.56 125.26L64.56 125.84L66 125.02C75.8103 119.51 84.6041 112.36 92 103.88C93.7764 104.568 95.4729 105.446 97.06 106.5C98.2564 107.316 99.3866 108.226 100.44 109.22L91.74 110.02C90.8804 110.098 90.1676 110.718 89.9722 111.559C89.7768 112.4 90.1428 113.271 90.88 113.72L112.88 127.16C113.192 127.354 113.552 127.457 113.92 127.46C114.278 127.454 114.629 127.358 114.94 127.18C115.573 126.806 115.949 126.115 115.92 125.38L115.46 112.82L126.4 107.64C127.042 107.336 127.475 106.714 127.537 106.006C127.598 105.298 127.28 104.611 126.7 104.2H126.78ZM17.76 121.82L18.12 111.66C18.1494 110.862 17.7013 110.123 16.98 109.78L7.99999 105.5L17.12 99.1L25.6 112.9L31.48 113.44L17.76 121.82ZM33.76 109.66L32 106.88C30.9879 107.594 30.0256 108.375 29.12 109.22L33.76 109.66ZM30.28 103.16C28.8644 104.12 27.5269 105.19 26.28 106.36L17.2 91.62C19.5345 88.8854 22.5802 86.8503 26 85.74L25.68 84.74C28.4664 90.2543 31.7606 95.497 35.52 100.4C33.6834 101.152 31.9222 102.076 30.26 103.16H30.28ZM64.7902 121.274L64.8 121.28H64.78L64.7902 121.274ZM112.32 39.16C112.294 73.0601 94.1727 104.367 64.7902 121.274C36.4014 104.098 19.0229 73.3611 18.94 40.18V22.34H19.14C39.14 22.34 57.14 16.34 66.14 6.34C75.06 16.06 92.56 22.12 112.32 22.34V39.16ZM94.8 100.68C98.4124 96.0733 101.618 91.1615 104.38 86C107.483 87.1387 110.239 89.061 112.38 91.58L103.32 106.32C102.077 105.145 100.739 104.075 99.32 103.12C97.8596 102.188 96.3282 101.372 94.74 100.68H94.8ZM111.66 111.66C111.631 110.862 112.079 110.123 112.8 109.78L121.6 105.52L112.48 99.12L104 112.92L98.2 113.46L112.02 121.82L111.66 111.66Z" fill="white"/>
<path id="Path" d="M50.0001 58.5995C49.2066 57.92 48.0238 57.9657 47.285 58.7044C46.5463 59.4431 46.5006 60.626 47.1801 61.4195L61.1801 75.4195C61.5543 75.8012 62.0656 76.0173 62.6001 76.0195C63.1277 76.012 63.6309 75.7963 64.0001 75.4195L86.4001 52.9195C87.2065 52.1353 87.2244 50.8459 86.4401 50.0395C85.6559 49.2332 84.3665 49.2153 83.5601 49.9995L62.5201 71.1395L50.0001 58.5995Z" fill="white"/>
</g>
</g>
</svg>
