<svg width="114" height="118" viewBox="0 0 114 118" fill="none" xmlns="http://www.w3.org/2000/svg">
<g id="Icons / 03 / Consalting">
<g id="Consalting">
<path id="Path" d="M105.72 18.8408H92.86C91.7554 18.8408 90.86 19.7363 90.86 20.8408C90.86 21.9454 91.7554 22.8408 92.86 22.8408H105.72C107.929 22.8408 109.72 24.6317 109.72 26.8408V98.0008C109.72 100.21 107.929 102.001 105.72 102.001H33.72L19.46 110.801V102.001H8C5.79086 102.001 4 100.21 4 98.0008V26.8408C4 24.6317 5.79086 22.8408 8 22.8408H21.18C22.2846 22.8408 23.18 21.9454 23.18 20.8408C23.18 19.7363 22.2846 18.8408 21.18 18.8408H8C3.58172 18.8408 0 22.4225 0 26.8408V98.0008C0 102.419 3.58172 106.001 8 106.001H15.36V118.001L34.76 106.001H105.72C110.138 106.001 113.72 102.419 113.72 98.0008V26.8408C113.72 22.4225 110.138 18.8408 105.72 18.8408Z" fill="white"/>
<path id="Shape" fill-rule="evenodd" clip-rule="evenodd" d="M17.24 46.8804C17.251 52.0452 21.4352 56.2294 26.6 56.2404C26.9545 56.5342 27.3996 56.6967 27.86 56.7004C28.9646 56.7004 29.86 55.805 29.86 54.7004V31.7404C30.2637 16.7046 42.5688 4.72546 57.61 4.72546C72.6512 4.72546 84.9563 16.7046 85.36 31.7404V57.5004C85.3382 72.4115 73.5406 84.6418 58.64 85.2004C57.5125 82.0545 54.2058 80.2533 50.9513 81.0124C47.6967 81.7714 45.528 84.8496 45.9086 88.1697C46.2892 91.4899 49.0981 93.9975 52.44 94.0004C53.5446 94.0004 54.44 93.105 54.44 92.0004C54.44 90.8958 53.5446 90.0004 52.44 90.0004C51.3848 90.0085 50.4294 89.378 50.0218 88.4047C49.6143 87.4313 49.8354 86.3082 50.5816 85.562C51.3277 84.8158 52.4509 84.5947 53.4242 85.0022C54.3976 85.4098 55.0281 86.3652 55.02 87.4204C55.02 88.525 55.9154 89.4204 57.02 89.4204C57.1965 89.4065 57.3709 89.373 57.54 89.3204C65.9841 89.3364 74.0869 85.9891 80.0578 80.0182C86.0286 74.0473 89.376 65.9445 89.36 57.5004V56.2404C94.5294 56.2404 98.72 52.0498 98.72 46.8804C98.72 41.711 94.5294 37.5204 89.36 37.5204V31.7404C88.9277 14.5157 74.8401 0.777344 57.61 0.777344C40.3799 0.777344 26.2923 14.5157 25.86 31.7404V37.5604C20.997 37.9461 17.2456 42.0021 17.24 46.8804ZM94.6 46.8804C94.5902 49.7901 92.2687 52.1647 89.36 52.2404V41.5204C92.2733 41.5857 94.6007 43.9664 94.6 46.8804ZM25.86 41.5804C23.2101 41.941 21.2356 44.2061 21.24 46.8804C21.2443 49.5514 23.2145 51.8117 25.86 52.1804V41.5804Z" fill="white"/>
<path id="Shape_2" fill-rule="evenodd" clip-rule="evenodd" d="M82.42 44.1007V46.1007L71.76 46.2807H61.1V44.2807C61.0503 38.3933 65.7826 33.5804 71.67 33.5307C77.5574 33.481 82.3703 38.2133 82.42 44.1007ZM71.6541 37.7008C68.7968 37.7235 66.2724 39.5662 65.38 42.2807H71.68L78 42.1807C77.0647 39.4807 74.5114 37.6782 71.6541 37.7008Z" fill="white"/>
<path id="Shape_3" fill-rule="evenodd" clip-rule="evenodd" d="M71.1 61.8008C71.089 69.2709 65.0301 75.3208 57.56 75.3208C50.1725 75.3006 44.1521 69.3868 44 62.0008V60.0008L57.56 59.8008H71.1V61.8008ZM66.86 63.8008H57.56L48.26 63.9608C49.2885 68.2904 53.1738 71.3339 57.6238 71.2956C62.0738 71.2573 65.9062 68.1475 66.86 63.8008Z" fill="white"/>
<path id="Shape_4" fill-rule="evenodd" clip-rule="evenodd" d="M33.0801 44.2801C33.0801 38.3928 37.8527 33.6201 43.7401 33.6201C49.5525 33.6403 54.29 38.2891 54.4201 44.1001V46.1001L43.7401 46.2801H33.0801V44.2801ZM37.3801 42.2801H43.7401L50.0001 42.1801C49.0648 39.4801 46.5115 37.6776 43.6542 37.7003C40.7969 37.7229 38.2725 39.5657 37.3801 42.2801Z" fill="white"/>
</g>
</g>
</svg>
