<svg width="156" height="102" viewBox="0 0 156 102" fill="none" xmlns="http://www.w3.org/2000/svg">
<g id="Icons / 03 / 50_50">
<g id="50_50">
<path id="Shape" fill-rule="evenodd" clip-rule="evenodd" d="M112.62 22.7L122.86 8.54003L126.2 10.76L61.18 100.76L57.94 98.4L64.64 89.16C61.8194 88.1597 59.1326 86.8163 56.64 85.16C50.0877 89.5707 42.3145 91.8096 34.42 91.56C22.0618 91.7842 10.1381 87.0018 1.36 78.3L0 77L13.78 60.6L15.32 62C22 68 27.76 70.62 34.18 70.66C38.72 70.66 46.32 69.32 46.32 60.66C46.32 53.66 39.62 51.16 33.34 51.16C28.7225 51.241 24.17 52.2617 19.96 54.16L18.98 54.58L6.36 46.2L8.96 1.44003H64.82V2.34003C69.0403 0.786272 73.5028 -0.00601835 78 3.44196e-05C93.2 3.44196e-05 106 8.44003 112.62 22.7ZM110 26.46C104.18 12.4 92.28 4.00003 78 4.00003C73.4761 3.98783 68.9953 4.87856 64.82 6.62003V21.84H48.24C46.5162 24.9052 45.1729 28.1694 44.24 31.56C49.0799 32.234 53.6956 34.0283 57.72 36.8C60.12 24.52 67.44 16.8 77.02 16.8C88.38 16.8 96.72 28 97.48 43.78L110 26.46ZM78 70.72H77.36C73.8486 70.761 70.4709 69.3753 68 66.88C68.399 64.7027 68.5998 62.4936 68.6 60.28C68.9231 52.7686 66.2878 45.43 61.26 39.84C62.82 28.08 68.8 20.8 77.02 20.8C86.54 20.8 93.44 31.32 93.44 45.78C93.44 46.96 93.44 48.12 93.32 49.24H93.44L78 70.72ZM28.02 31.84C30.9608 31.2332 33.9573 30.9382 36.96 30.96C38 30.96 39.14 31 40.2 31.14C41.0469 27.9289 42.2197 24.8128 43.7 21.84H28.68L28.02 31.84ZM5.5 76.68L14.2 66.28C21 72.04 27.22 74.62 34.2 74.62C44.2 74.62 50.34 69.26 50.34 60.62C50.34 52.42 43.68 47.12 33.36 47.12C28.5639 47.1656 23.8225 48.1438 19.4 50L10.48 44L12.72 5.44003H60.84V17.78H24.84L23.56 37.02L26.22 36.34C29.6871 35.397 33.267 34.9327 36.86 34.96C45.18 34.96 64.5 37.42 64.5 60.28C64.5 77.1 52.94 87.56 34.32 87.56C23.6683 87.7943 13.3395 83.895 5.5 76.68ZM66.88 71.18C65.4848 75.4725 63.0611 79.3587 59.82 82.5C62.0572 83.9091 64.4628 85.0312 66.98 85.84L75.12 74.6C72.1173 74.2158 69.2722 73.035 66.88 71.18Z" fill="white"/>
<path id="Shape_2" fill-rule="evenodd" clip-rule="evenodd" d="M153.78 65.8198C155.038 64.6096 155.759 62.9454 155.78 61.1998C155.78 57.5436 152.816 54.5798 149.16 54.5798H136.94V40.4598C136.929 35.9356 133.264 32.2708 128.74 32.2598H122.74V43.2398C122.729 49.5975 117.578 54.7488 111.22 54.7598H96.4399V90.4998H112.44L121.8 93.8398H148.2C150.305 93.8556 152.248 92.7099 153.252 90.8599C154.257 89.0098 154.16 86.7567 153 84.9998C154.679 83.7638 155.674 81.805 155.68 79.7198C155.646 77.9709 154.928 76.3049 153.68 75.0798C156.209 72.511 156.209 68.3886 153.68 65.8198H153.78ZM109.2 86.4998H100.44V58.7598H109.2V86.4998ZM122.58 89.8398H148.2V89.6998C149.15 89.6998 149.92 88.9297 149.92 87.9798C149.92 87.0298 149.15 86.2598 148.2 86.2598H144.64V82.2598H149.06C150.507 82.2598 151.68 81.0868 151.68 79.6398C151.68 78.1928 150.507 77.0198 149.06 77.0198H144.64V73.0198H149.06C150.047 73.1062 150.998 72.6286 151.519 71.7853C152.039 70.942 152.039 69.8775 151.519 69.0342C150.998 68.191 150.047 67.7133 149.06 67.7998H144.64V63.7998H149.12C150.107 63.8862 151.058 63.4086 151.578 62.5653C152.099 61.722 152.099 60.6575 151.578 59.8142C151.058 58.971 150.107 58.4933 149.12 58.5798H127.12V54.5798H132.92V40.4598C132.92 38.1402 131.04 36.2598 128.72 36.2598H126.72V43.2398C126.715 51.034 120.929 57.6154 113.2 58.6198V86.4998L122.58 89.8398Z" fill="white"/>
</g>
</g>
</svg>
