<svg width="116" height="102" viewBox="0 0 116 102" fill="none" xmlns="http://www.w3.org/2000/svg">
<g id="Icons / 03 / Money">
<g id="Money">
<path id="Shape" fill-rule="evenodd" clip-rule="evenodd" d="M94.8398 71.4199C90.9739 71.4199 87.8398 68.2859 87.8398 64.4199C87.8398 60.5539 90.9739 57.4199 94.8398 57.4199C98.7058 57.4199 101.84 60.5539 101.84 64.4199C101.84 68.2859 98.7058 71.4199 94.8398 71.4199ZM97.8398 64.4199C97.8398 62.7631 96.4967 61.4199 94.8398 61.4199C93.1875 61.4308 91.8508 62.7676 91.8398 64.4199C91.8398 66.0768 93.183 67.4199 94.8398 67.4199C96.4967 67.4199 97.8398 66.0768 97.8398 64.4199Z" fill="white"/>
<path id="Shape_2" fill-rule="evenodd" clip-rule="evenodd" d="M107.5 40.8C111.816 40.9404 115.242 44.4813 115.24 48.8L115.2 79.38H107.5V87.8C107.5 95.532 101.232 101.8 93.5 101.8H14C6.26801 101.8 0 95.532 0 87.8V20.8V20.66C0 14.3971 5.07709 9.32 11.34 9.32H18.72L21.14 0L52.16 9.36H99.5C103.918 9.36 107.5 12.9417 107.5 17.36V28.32V40.8ZM69.72 18.8L24 5.02L20.38 18.8H69.72ZM6.16 15.46C7.53189 14.084 9.39693 13.3135 11.34 13.32H17.68L16.24 18.8H11.84V22.8H94.16V18.8H83.6L65.48 13.34H99.48C101.689 13.34 103.48 15.1309 103.48 17.34V28.28L11.32 28C7.27404 27.989 3.99998 24.706 4 20.66C3.98657 18.7058 4.76592 16.8296 6.16 15.46ZM100.571 94.8711C102.446 92.9957 103.5 90.4522 103.5 87.8L103.46 79.48H94C85.7157 79.48 79 72.7643 79 64.48C79 56.1957 85.7157 49.48 94 49.48H103.5V32.3L11.3 32C8.62054 31.9908 6.0322 31.0264 4 29.28V87.8C4 93.3228 8.47715 97.8 14 97.8H93.5C96.1522 97.8 98.6957 96.7464 100.571 94.8711ZM111.2 75.38H94C89.9763 75.552 86.1824 73.5034 84.1193 70.0446C82.0561 66.5858 82.0561 62.2742 84.1193 58.8154C86.1824 55.3566 89.9763 53.308 94 53.48H111.2V75.38ZM107.5 49.48H111.2L111.24 48.84C111.244 46.7285 109.607 44.9772 107.5 44.84V49.48Z" fill="white"/>
</g>
</g>
</svg>
