<svg width="136" height="88" viewBox="0 0 136 88" fill="none" xmlns="http://www.w3.org/2000/svg">
<g id="Icons / 03 / Delivery">
<g id="Delivery">
<path id="Shape" fill-rule="evenodd" clip-rule="evenodd" d="M119.82 20.84L127.08 39.62C131.771 41.3633 134.888 45.8352 134.9 50.84V76.16H126L125.8 74.4C124.955 67.3647 118.986 62.0703 111.9 62.0703C104.814 62.0703 98.8454 67.3647 98 74.4L97.8 76.16H46L45.8 74.4C44.9546 67.3647 38.9859 62.0703 31.9 62.0703C24.8141 62.0703 18.8454 67.3647 18 74.4L17.74 76.16H0V0H97V7.84H113.46C118.983 7.84 123.46 12.3172 123.46 17.84V20.84H119.82ZM113.46 11.84H97V16.84H119.46C118.967 13.9216 116.419 11.7987 113.46 11.84ZM14.26 72.16H4V66H16.96C15.6639 67.8559 14.7464 69.9492 14.26 72.16ZM49.42 72.16H93.02V66H46.72C47.999 67.8655 48.915 69.9553 49.42 72.16ZM93.02 61.9H43.02C36.4742 56.7199 27.2258 56.7199 20.68 61.9H4V4H93V42.84L93.02 61.9ZM115.56 20.84H97.02L97 38.84H122.5L115.56 20.84ZM130.84 72.16H129.42C127.889 65.1556 122.347 59.7276 115.313 58.3423C108.278 56.9571 101.092 59.8789 97.02 65.78V42.84H122.84C125.209 42.8529 127.45 43.915 128.96 45.74H118.84V51.5C118.84 55.9183 122.422 59.5 126.84 59.5H130.84V72.16ZM126.84 55.5H130.84V50.84C130.831 50.4706 130.791 50.1027 130.72 49.74H122.84V51.5C122.84 53.7091 124.631 55.5 126.84 55.5Z" fill="white"/>
<path id="Shape_2" fill-rule="evenodd" clip-rule="evenodd" d="M100.84 76C100.84 69.9249 105.765 65 111.84 65C117.915 65 122.84 69.9249 122.84 76C122.84 82.0751 117.915 87 111.84 87C105.765 87 100.84 82.0751 100.84 76ZM105.373 78.6788C106.456 81.2945 109.009 83 111.84 83C115.706 83 118.84 79.866 118.84 76C118.84 73.1688 117.135 70.6163 114.519 69.5328C111.903 68.4494 108.892 69.0483 106.89 71.0503C104.888 73.0522 104.289 76.0631 105.373 78.6788Z" fill="white"/>
<path id="Shape_3" fill-rule="evenodd" clip-rule="evenodd" d="M20.8201 76C20.8201 69.9249 25.7449 65 31.8201 65C37.8952 65 42.8201 69.9249 42.8201 76C42.8201 82.0751 37.8952 87 31.8201 87C25.7449 87 20.8201 82.0751 20.8201 76ZM24.8201 76C24.8201 79.866 27.9541 83 31.8201 83C35.6861 83 38.8201 79.866 38.8201 76C38.8201 72.134 35.6861 69 31.8201 69C27.9541 69 24.8201 72.134 24.8201 76Z" fill="white"/>
<path id="Path" d="M41.84 43.7999L31.12 33.0799L28.3 35.8999L41.84 49.4599L69.5401 21.7599L66.72 18.9199L41.84 43.7999Z" fill="white"/>
</g>
</g>
</svg>
