<svg width="134" height="148" viewBox="0 0 134 148" fill="none" xmlns="http://www.w3.org/2000/svg">
<g id="Icons / 01 / Reg_prav_sobstv">
<g id="Reg_prav_sobstv">
<g id="Group">
<g id="Group_2">
<path id="Path" d="M77.8401 74.2001H32.8201V44.3401H36.8201V70.2001H77.8401V74.2001Z" fill="#005EB5"/>
<rect id="Rectangle" x="86.46" y="44.3401" width="4" height="17.14" fill="#005EB5"/>
<path id="Path_2" d="M70.76 71.7801H66.76V51.6401H56.52V71.7801H52.52V47.6401H70.76V71.7801Z" fill="#005EB5"/>
<path id="Path_3" d="M86.68 40.0801H82.68V27.1401H79.78V33.9601H75.78V23.1401H86.68V40.0801Z" fill="#005EB5"/>
<path id="Path_4" d="M93.7801 52.7801L61.7201 20.7201L29.6401 52.7801L26.8201 49.9601L61.7201 15.0601L96.6001 49.9601L93.7801 52.7801Z" fill="#005EB5"/>
<path id="Shape" fill-rule="evenodd" clip-rule="evenodd" d="M54.28 36.98C54.28 41.0006 57.5394 44.26 61.56 44.26C65.5807 44.26 68.84 41.0006 68.84 36.98C68.84 32.9593 65.5807 29.7 61.56 29.7C57.5394 29.7 54.28 32.9593 54.28 36.98ZM58.28 36.98C58.28 35.1685 59.7485 33.7 61.56 33.7C63.3715 33.7 64.84 35.1685 64.84 36.98C64.84 38.7914 63.3715 40.26 61.56 40.26C59.7485 40.26 58.28 38.7914 58.28 36.98Z" fill="#005EB5"/>
</g>
<g id="Group_3">
<path id="Shape_2" fill-rule="evenodd" clip-rule="evenodd" d="M81.9999 92.62C82.6355 92.8757 83.3148 93.0048 83.9999 93C85.5088 93.004 86.9455 92.3549 87.9399 91.22C88.1714 90.9535 88.5069 90.8003 88.8599 90.8C89.2068 90.8092 89.5366 90.9526 89.7799 91.2C91.2775 92.8378 93.647 93.3496 95.6871 92.4759C97.7272 91.6022 98.9919 89.5341 98.8399 87.32C98.8135 86.9686 98.9456 86.6239 99.1999 86.38C99.4462 86.1273 99.7872 85.9894 100.14 86C102.399 86.1584 104.504 84.8482 105.359 82.7515C106.214 80.6549 105.625 78.2463 103.9 76.78C103.636 76.5547 103.483 76.2266 103.48 75.88C103.466 75.5521 103.589 75.2333 103.82 75C105.482 73.489 105.992 71.0839 105.084 69.0287C104.177 66.9736 102.057 65.7295 99.8199 65.94C99.4744 65.9521 99.1376 65.8303 98.8799 65.6C98.6334 65.3428 98.5033 64.9958 98.5199 64.64C98.614 62.4222 97.2952 60.3875 95.2323 59.5677C93.1694 58.748 90.8137 59.3225 89.3599 61C89.1218 61.2549 88.7887 61.3998 88.4399 61.4C88.089 61.4101 87.7518 61.2635 87.5199 61C86.02 59.3583 83.6447 58.847 81.6022 59.7262C79.5597 60.6055 78.2984 62.6821 78.4599 64.9C78.471 65.249 78.3413 65.5877 78.0999 65.84C77.8502 66.0854 77.5096 66.2158 77.1599 66.2C74.9497 66.1213 72.928 67.4387 72.1074 69.4924C71.2868 71.5461 71.844 73.894 73.4999 75.36C73.7643 75.593 73.917 75.9276 73.9199 76.28C73.9273 76.6304 73.7812 76.9664 73.5199 77.2C71.8821 78.6976 71.3703 81.0671 72.244 83.1072C73.1177 85.1473 75.1858 86.412 77.3999 86.26C77.7496 86.2442 78.0902 86.3746 78.3399 86.62C78.6016 86.8602 78.7412 87.2054 78.7199 87.56C78.6051 89.7782 79.9281 91.8192 81.9999 92.62ZM81.1799 83.76C80.2027 82.801 78.889 82.2626 77.5199 82.26L77.0199 82.34C76.5003 82.3856 76.0124 82.0848 75.8199 81.6C75.6 81.1182 75.722 80.5494 76.1199 80.2C77.2208 79.2064 77.8491 77.7929 77.8491 76.31C77.8491 74.8271 77.2208 73.4136 76.1199 72.42C75.7319 72.0702 75.6047 71.5149 75.8018 71.0311C75.9989 70.5474 76.478 70.239 76.9999 70.26C78.4779 70.3136 79.9097 69.7402 80.9421 68.6811C81.9744 67.6221 82.5112 66.1761 82.4199 64.7C82.3909 64.1801 82.6898 63.6974 83.1682 63.4918C83.6466 63.2861 84.2025 63.4012 84.5599 63.78C85.5699 64.917 87.0409 65.5348 88.5599 65.46C90.0431 65.4514 91.4503 64.8025 92.4199 63.68C92.7576 63.2784 93.3199 63.148 93.7999 63.36C94.3051 63.5328 94.6271 64.0282 94.5799 64.56C94.52 66.0451 95.0935 67.4858 96.1578 68.5233C97.222 69.5609 98.6768 70.0976 100.16 70C100.626 70.0144 101.043 70.2934 101.235 70.7188C101.426 71.1442 101.358 71.6415 101.06 72C99.9393 73.0217 99.3249 74.4846 99.3799 76C99.4062 77.4792 100.052 78.8795 101.16 79.86C101.562 80.1977 101.692 80.76 101.48 81.24C101.284 81.7241 100.801 82.0296 100.28 82C98.7988 81.9611 97.3709 82.5534 96.3523 83.6293C95.3336 84.7052 94.8202 86.1632 94.9399 87.64C94.9826 88.1647 94.6726 88.6543 94.1799 88.84C93.6982 89.0598 93.1293 88.9379 92.7799 88.54C91.7614 87.4148 90.2963 86.7995 88.7799 86.86C87.299 86.8789 85.8958 87.5259 84.9199 88.64C84.5809 89.0549 84.011 89.2001 83.5148 88.998C83.0186 88.7958 82.7124 88.2936 82.7599 87.76C82.8378 86.2607 82.2613 84.8014 81.1799 83.76Z" fill="#005EB5"/>
<path id="Shape_3" fill-rule="evenodd" clip-rule="evenodd" d="M81.6832 76.7994C82.0421 80.3955 85.0659 83.1358 88.6799 83.1401C89.6285 83.1434 90.5677 82.9529 91.4399 82.5801C94.7665 81.1675 96.4831 77.4655 95.4121 74.0138C94.3411 70.5621 90.8304 68.482 87.2885 69.2007C83.7466 69.9193 81.3242 73.2032 81.6832 76.7994ZM87.4799 73.4001C87.856 73.2263 88.2657 73.1375 88.6799 73.1401V73.0601C89.0824 73.0837 89.4765 73.1856 89.8399 73.3601C90.5971 73.6523 91.1986 74.2465 91.4999 75.0001C91.8111 75.7421 91.8111 76.578 91.4999 77.3201C91.1987 78.0646 90.6169 78.6608 89.8799 78.9801C88.3583 79.5574 86.6519 78.834 86.0088 77.3389C85.3658 75.8439 86.0143 74.1076 87.4799 73.4001Z" fill="#005EB5"/>
<path id="Path_5" d="M78.98 110.52L74.5 104.04L66.74 104.06L77.42 84.02L80.96 85.9L73.4 100.04H76.58L78.54 102.84L86.1 88.64L89.64 90.52L78.98 110.52Z" fill="#005EB5"/>
<path id="Path_6" d="M98.2401 112.12L87.5801 92.1199L91.1201 90.2399L98.6801 104.46L100.64 101.64L103.82 101.66L96.2601 87.4999L99.8001 85.6199L110.48 105.68L102.72 105.66L98.2401 112.12Z" fill="#005EB5"/>
</g>
<rect id="Rectangle_2" x="28.24" y="82.24" width="36.16" height="4" fill="#005EB5"/>
<rect id="Rectangle_3" x="28.24" y="93.54" width="36.16" height="4" fill="#005EB5"/>
<rect id="Rectangle_4" x="28.24" y="104.86" width="36.16" height="4" fill="#005EB5"/>
</g>
<g id="Group_4">
<path id="Shape_4" fill-rule="evenodd" clip-rule="evenodd" d="M100.56 146.96H13.08C5.86068 146.949 0.0110135 141.099 0 133.88V120.4H91.48V133.84C91.48 138.855 95.5452 142.92 100.56 142.92C105.567 142.909 109.62 138.847 109.62 133.84V13.8399C109.441 9.49747 111.656 5.40619 115.39 3.18176C119.124 0.957318 123.776 0.957318 127.51 3.18176C131.244 5.40619 133.459 9.49747 133.28 13.8399V35.5199H113.62V133.88C113.609 141.091 107.771 146.938 100.56 146.96ZM4 124.4V133.88C4.011 138.89 8.06982 142.949 13.08 142.96H91.18C88.8082 140.516 87.4811 137.245 87.48 133.84V124.4H4ZM129.28 31.5199H113.62V13.8799C113.474 10.9881 114.933 8.25118 117.416 6.76142C119.899 5.27165 123.001 5.27165 125.484 6.76142C127.967 8.25118 129.426 10.9881 129.28 13.8799V31.5199Z" fill="#005EB5"/>
<path id="Path_7" d="M16.96 122H12.96V15.08C12.9599 7.87171 18.7917 2.02204 26 2H121.26V6H26C21.0054 6.03292 16.9708 10.0853 16.96 15.08V122Z" fill="#005EB5"/>
</g>
</g>
</g>
</svg>
