<svg width="148" height="144" viewBox="0 0 148 144" fill="none" xmlns="http://www.w3.org/2000/svg">
<g id="Icons / 01 / Topograph_landshaft">
<g id="Topograph_landshaft">
<path id="Shape" fill-rule="evenodd" clip-rule="evenodd" d="M69.4198 90.56C71.764 91.7343 74.3386 92.3762 76.9598 92.44C78.3809 92.4513 79.7873 92.151 81.0798 91.56C82.7886 90.6888 84.1036 89.2023 84.7598 87.4C85.6874 85.4036 86.945 83.578 88.4798 82C90.1171 80.278 92.0385 78.8505 94.1598 77.78C96.2054 76.8837 97.9337 75.3923 99.1198 73.5C101.467 68.8958 101.722 63.505 99.8198 58.7C99.0476 55.9904 97.0814 53.7812 94.4798 52.7C91.5573 51.8451 89.4648 53.7174 87.5737 55.4096L87.5398 55.44C85.6237 57.4914 83.1125 58.8904 80.3598 59.44C77.3563 59.7053 74.3504 58.9591 71.8198 57.32L71.7997 57.3095C69.1259 55.9127 66.3515 54.4633 63.0398 55.82C56.8998 58.3 54.6398 68.2 56.4598 75.52C58.4065 82.1689 63.1315 87.6522 69.4198 90.56ZM64.5398 59.52C64.9132 59.3621 65.3144 59.2805 65.7198 59.28C67.2456 59.484 68.7073 60.0236 69.9998 60.86C73.254 62.9201 77.1108 63.8155 80.9398 63.4C84.4666 62.7608 87.7048 61.0333 90.1998 58.46L90.237 58.4272C91.8706 56.9904 92.5855 56.3616 93.3398 56.58C94.0998 56.8 95.1998 57.86 96.0998 60.16C97.5552 63.8095 97.41 67.9027 95.6998 71.44C94.8745 72.7197 93.6726 73.7119 92.2598 74.28C89.7565 75.541 87.4952 77.2335 85.5798 79.28C83.7715 81.1496 82.2848 83.3053 81.1798 85.66C80.4598 87.12 80.1998 87.58 79.3598 87.9799C76.5927 88.7699 73.6229 88.3942 71.1398 86.94C65.9328 84.5506 62.0005 80.043 60.3398 74.56C58.8198 68.44 60.8998 61 64.5398 59.52Z" fill="#005EB5"/>
<path id="Shape_2" fill-rule="evenodd" clip-rule="evenodd" d="M53.08 98.1999C58.9655 102.272 65.924 104.513 73.08 104.64C74.9447 104.634 76.8029 104.419 78.62 104C81.1773 103.38 83.6162 102.347 85.84 100.94C89.2232 98.8981 92.909 97.4062 96.76 96.5199C98.9838 95.9687 101.242 95.5678 103.52 95.3199C105.968 95.2133 108.344 94.4537 110.4 93.1199C118.45 87.7269 119.138 76.3895 119.399 72.0967L119.4 72.0799C119.46 71.1199 120.76 48.7199 108.76 43.3199C104.293 41.2857 100.601 42.7913 97.0305 44.2475L97 44.2599C93.1884 46.2445 88.8106 46.8588 84.6 45.9999C81.4164 45.2372 78.4654 43.7136 76 41.5599C72.8231 38.6361 68.7306 36.9044 64.42 36.6599C61.88 36.5399 53.22 36.5999 48.96 42.3599C46.0406 46.2656 46.9733 50.3854 47.9589 54.7383C47.9726 54.7988 47.9863 54.8593 48 54.9199C49.5113 59.9698 49.7518 65.3148 48.7 70.4799C48.1196 73.1535 47.0627 75.7007 45.58 77.9999C44.0141 80.0444 43.3236 82.6267 43.66 85.1799C44.3 89.7999 47.64 94.4399 53.08 98.1999ZM52.26 44.6399C54.98 41.0599 60.86 40.6399 63.38 40.6399L64.38 40.6799C67.8406 40.8844 71.1188 42.3005 73.64 44.6799C76.5518 47.2173 80.0287 49.0209 83.78 49.9399C88.7979 50.9569 94.012 50.2522 98.58 47.9399L98.6332 47.9183C101.906 46.5894 104.276 45.627 107.16 46.9399C116.321 51.0934 115.537 70.4086 115.483 71.7485C115.481 71.7893 115.48 71.8134 115.48 71.8199L115.477 71.8744C115.234 75.6944 114.609 85.5404 108.22 89.8199C106.683 90.8005 104.903 91.3337 103.08 91.3599C100.648 91.6353 98.2357 92.0696 95.86 92.6599C91.6338 93.6331 87.5852 95.2593 83.86 97.4799C81.9794 98.682 79.9108 99.5608 77.74 100.08C70.96 101.62 62.18 99.5599 55.38 94.8599C50.94 91.7799 48.12 88.0199 47.64 84.5799C47.4397 82.9308 47.9322 81.2725 49 79.9999C50.7088 77.3304 51.9279 74.3775 52.6 71.2799C53.8167 65.5364 53.6038 59.5819 51.98 53.9399C50.96 49.4599 50.52 47.0199 52.26 44.6399Z" fill="#005EB5"/>
<path id="Shape_3" fill-rule="evenodd" clip-rule="evenodd" d="M37.2602 102.76C46.4002 112.36 58.2202 118 69.0802 118H70.0002C73.4993 117.915 76.9275 116.996 80.0002 115.32C84.9578 112.953 90.2221 111.29 95.6402 110.38C99.6069 109.63 103.614 109.109 107.64 108.82C112.12 108.44 115.08 108.18 118.92 105.78C129.8 98.9801 132.08 84.7401 132.92 79.3601C135.06 66.0001 132.92 42.0001 118.16 34.4601C112.82 31.8001 108.82 32.8001 104.98 33.8001C100.719 35.3468 96.0196 35.1528 91.9002 33.2601C89.4332 32.0636 87.036 30.7281 84.7202 29.2601C78.6487 25.1223 71.87 22.1328 64.7202 20.4401H64.3402C57.9402 19.2801 48.9002 20.2201 43.1402 24.9201C38.5602 28.6601 33.6202 36.9201 36.0602 54.9201C36.2734 56.5901 36.5497 57.8656 36.777 58.9148C36.8056 59.0467 36.8334 59.175 36.8602 59.3001C37.3628 60.715 37.4256 62.2488 37.0402 63.7001C36.2831 65.7656 35.0577 67.6276 33.4602 69.1401C30.7704 71.8259 28.8325 75.1707 27.8402 78.8401C27.5592 80.0311 27.3654 81.2409 27.2602 82.4601C26.8602 88.1401 30.5802 95.7401 37.2602 102.76ZM45.7002 28.0001C49.635 25.2281 54.3703 23.8229 59.1802 24.0001C60.6906 24.0078 62.197 24.1551 63.6802 24.4401H64.0202C71.285 25.8532 77.2622 29.4848 82.5434 32.6934L82.6202 32.7401C85.0715 34.3188 87.6237 35.7351 90.2602 36.9801C95.1942 39.267 100.824 39.5466 105.96 37.7601C109.52 36.8201 112.34 36.1201 116.34 38.1201C128.54 44.2601 130.98 65.6201 128.98 78.8201L128.971 78.8769C128.106 84.2481 126.107 96.6606 116.84 102.46C113.82 104.36 111.66 104.54 107.34 104.9C103.212 105.209 99.1051 105.756 95.0402 106.54C89.2202 107.482 83.5637 109.246 78.2402 111.78C75.6621 113.173 72.79 113.934 69.8602 114C59.8402 114.28 48.7602 109.04 40.1602 100C34.4202 94.0001 30.9402 87.1201 31.3002 82.7001C31.3838 81.7104 31.5376 80.728 31.7602 79.7601C32.6017 76.7198 34.2378 73.9584 36.5002 71.7601C38.485 69.8112 39.991 67.4289 40.9002 64.8001C41.5122 62.6986 41.4774 60.4615 40.8002 58.3801L40.7805 58.2913C40.545 57.2321 40.2742 56.0142 40.0602 54.3801C38.3402 41.7401 40.3602 32.3601 45.7002 28.0001Z" fill="#005EB5"/>
<path id="Path" d="M140.14 56.28C135.8 40.28 129.44 30.76 121.26 27.98C118.641 27.1693 115.88 26.9238 113.16 27.26C108.195 27.6251 103.203 27.2681 98.3399 26.2C90.812 24.5077 83.5652 21.7463 76.8199 18C69.5098 14.2376 62.6691 9.62574 56.4399 4.25999L59.0399 1.23999C65.0494 6.3926 71.6329 10.8353 78.6599 14.48C85.0786 18.0503 91.9752 20.6837 99.1399 22.3C103.675 23.2902 108.331 23.6136 112.96 23.26C116.189 22.8968 119.459 23.2101 122.56 24.18C132 27.44 139.28 37.88 144 55.22L140.14 56.28Z" fill="#005EB5"/>
<path id="Path_2" d="M142.64 31.36C139.865 25.6849 135.391 21.0152 129.84 18C124.92 15.54 120.52 15.42 115.44 15.3C109.422 15.4362 103.435 14.3897 97.8198 12.22C92.5768 10.0355 87.8185 6.83382 83.8198 2.8L86.6598 0C90.2734 3.67034 94.5846 6.58076 99.3398 8.56C104.504 10.5446 110.009 11.4893 115.54 11.34C121.044 11.1174 126.523 12.1859 131.54 14.46C137.822 17.8277 142.898 23.0712 146.06 29.46L142.64 31.36Z" fill="#005EB5"/>
<path id="Path_3" d="M95.24 143.66L91.24 143.5C91.4723 140.112 90.7001 136.731 89.02 133.78C84.74 126.68 75.66 126.02 65.12 125.28C53.94 124.48 41.28 123.58 32.3 114.12C29.5133 111.074 27.2979 107.551 25.76 103.72C23.5305 98.1816 19.9808 93.2724 15.42 89.4199C10.8402 85.4688 5.6272 82.318 0 80.0999L1.48 76.3799C7.50515 78.7788 13.0883 82.1652 18 86.3999C22.9985 90.6036 26.9034 95.9565 29.38 102C30.7559 105.421 32.7187 108.575 35.18 111.32C43.18 119.64 54.44 120.44 65.42 121.32C76.4 122.2 87.1 122.88 92.46 131.76C94.5368 135.367 95.5038 139.506 95.24 143.66Z" fill="#005EB5"/>
<path id="Path_4" d="M66.22 143.66L62.22 143.5C62.3783 141.299 61.8844 139.101 60.8 137.18C58.02 132.58 51.94 132.14 44.8 131.64C37.02 131.08 28.2 130.46 21.86 123.8C19.8997 121.656 18.3415 119.176 17.26 116.48C15.7711 112.758 13.3874 109.461 10.32 106.88C7.2622 104.215 3.77213 102.091 0 100.6L1.48 96.8799C5.69579 98.5453 9.60311 100.905 13.04 103.86C16.5484 106.817 19.2925 110.577 21.04 114.82C21.9387 117.11 23.2467 119.218 24.9 121.04C30.16 126.58 37.82 127.04 45.22 127.66C53.06 128.22 60.44 128.74 64.28 135.12C65.7641 137.709 66.4397 140.683 66.22 143.66Z" fill="#005EB5"/>
<path id="Path_5" d="M33.2402 143.66L29.2402 143.5C29.306 142.692 29.1246 141.883 28.7202 141.18C27.7802 139.62 25.6402 139.38 22.2202 139.18C18.8002 138.98 14.2202 138.6 10.9202 135.18C9.93113 134.111 9.14498 132.871 8.60016 131.52C7.95396 129.971 6.94579 128.599 5.66016 127.52C4.33251 126.335 2.81015 125.387 1.16016 124.72L2.64016 121C4.7014 121.822 6.61353 122.978 8.30016 124.42C10.0377 125.89 11.4075 127.746 12.3002 129.84C12.6534 130.795 13.1902 131.671 13.8802 132.42C16.0202 134.68 19.2002 134.92 22.5602 135.16C26.3002 135.42 30.1602 135.7 32.2202 139.16C32.9892 140.529 33.3436 142.093 33.2402 143.66Z" fill="#005EB5"/>
<path id="Path_6" d="M105.34 143.66C103.96 142.44 97.16 135.96 98.16 127.3C99 120.16 104.7 115.86 106.58 114.44C112.24 110.18 117.68 109.78 122.58 109.42C126.86 109.12 130.58 108.86 134.2 106.18C137.82 103.5 140.7 98.5 142.04 91.78L146.04 92.56C144.5 100.28 141.34 105.96 136.64 109.4C131.94 112.84 127.44 113.1 122.96 113.4C118.48 113.7 113.88 114.06 109.16 117.62C107.46 118.9 102.96 122.3 102.32 127.76C101.54 134.42 107.04 139.76 108.16 140.64L105.34 143.66Z" fill="#005EB5"/>
<path id="Path_7" d="M125.38 143.7C119.38 138.66 116.58 132.24 118.24 126.94C119.66 122.46 123.7 120.34 127.6 118.28C132.818 115.543 138.628 114.128 144.52 114.16V118.16C139.272 118.125 134.095 119.375 129.44 121.8C125.96 123.64 122.96 125.24 122.04 128.14C120.88 131.8 123.18 136.7 127.92 140.62L125.38 143.7Z" fill="#005EB5"/>
<path id="Path_8" d="M7.83998 71.9999C5.86665 71.9999 3.74665 71.8999 1.47998 71.6999L1.83998 67.6999C12.98 68.6999 20.16 67.0999 23.16 62.8999C25.42 59.7399 24.6 56.0799 23.56 51.4399C22.36 45.9999 20.98 39.8399 24.36 32.8199C26.3315 29.0238 29.1345 25.7218 32.56 23.1599C35.82 20.5199 38.4 18.3599 39.18 13.9999C39.77 10.1288 39.0671 6.17107 37.18 2.7399L40.7 0.899902C43.0057 5.08562 43.8569 9.91829 43.12 14.6399C42.08 20.4799 38.56 23.4599 35.12 26.3199C32.1573 28.5372 29.7252 31.3861 28 34.6599C25.22 40.4199 26.4 45.6399 27.52 50.6599C28.64 55.6799 29.74 60.6599 26.44 65.2999C23.14 69.9399 17.06 71.9999 7.83998 71.9999Z" fill="#005EB5"/>
<path id="Path_9" d="M5.33998 44.5799C4.13998 44.5799 2.83998 44.5799 1.47998 44.3999L1.83998 40.3999C6.19998 40.7999 11.84 40.6799 13.84 37.8599C14.94 36.3399 14.62 34.5999 13.96 31.6599C12.7235 27.8374 12.9081 23.6971 14.48 19.9999C15.7182 17.6433 17.4675 15.5933 19.6 13.9999C21.4512 12.8517 22.7738 11.0186 23.28 8.8999C23.5767 6.75567 23.1697 4.57304 22.12 2.6799L25.7 0.899902C27.1475 3.56181 27.6815 6.62522 27.22 9.6199C26.5459 12.65 24.744 15.3101 22.18 17.0599C20.5085 18.3122 19.1412 19.9257 18.18 21.7799C16.64 24.9599 17.28 27.7799 17.94 30.8199C18.6 33.8599 19.36 37.1599 17.18 40.2199C15 43.2799 11.14 44.5799 5.33998 44.5799Z" fill="#005EB5"/>
</g>
</g>
</svg>
