<svg width="142" height="154" viewBox="0 0 142 154" fill="none" xmlns="http://www.w3.org/2000/svg">
<g id="Icons / 01 / Mezhevanie">
<g id="Mezhevanie">
<path id="Shape" fill-rule="evenodd" clip-rule="evenodd" d="M140.58 30.3601V135.06C140.57 135.126 140.57 135.194 140.58 135.26V136.04C140.264 145.681 132.223 153.258 122.58 153H18C8.342 153.258 0.294003 145.657 0 136V30.3601C0.315549 20.5784 8.4769 12.8908 18.26 13.1601H19.64C20.7446 13.1601 21.64 14.0555 21.64 15.1601V35.1601H56.66C56.498 34.3232 56.4177 33.4725 56.42 32.6201C56.4238 27.5052 59.1934 22.7923 63.66 20.3001V6.7401C63.8552 3.15478 66.8194 0.347656 70.41 0.347656C74.0006 0.347656 76.9648 3.15478 77.16 6.7401V20.1601C81.768 22.611 84.6511 27.4009 84.66 32.6201C84.6623 33.4725 84.5819 34.3232 84.42 35.1601H118.96V15.1601C118.96 14.0555 119.855 13.1601 120.96 13.1601H122.34C132.12 12.8909 140.275 20.5815 140.58 30.3601ZM105.84 83.3401H107.08V62.4201H85.66L89.84 83.3401H93.84V87.3401H90.68L96.3 115.7L90.3 129.34H107.08V87.3401H105.84V83.3401ZM72.86 129.26V125.38V121.5V117.62V113.74V109.86V106H68.86V107.6H61.06L69.06 63.3601H72.46L81.74 114.52L88 129.26H72.86ZM32.58 107.56H46.96L51.02 87.3401H48.16V83.3401H51.82L56 62.4201H32.58V83.3401H36.16V87.3401H32.58V107.56ZM63.64 44.9401C65.0417 45.7175 66.5622 46.2581 68.14 46.5401L66 58.4201H65.36V62.0001L56 113.56L52.52 121.84L49.52 115.14L63.64 44.9401ZM70.86 54.0001L70 58.4201L71.66 58.4601L70.86 54.0001ZM92.2 115.14L89.22 121.84L85.72 113.56L76 60.0001V58.3601H75.7L73.52 46.3601C75.1044 46.0388 76.6206 45.4432 78 44.6001L92.2 115.14ZM70.41 4.21483C68.9767 4.21483 67.7819 5.31198 67.66 6.7401V18.7801C68.6068 18.5794 69.5721 18.4788 70.54 18.4801C71.4196 18.4843 72.2968 18.5713 73.16 18.7401V6.7401C73.0381 5.31198 71.8433 4.21483 70.41 4.21483ZM70.54 22.5001C74.6449 22.492 78.3497 24.9596 79.9243 28.7504C81.4989 32.5413 80.6326 36.9075 77.73 39.8101C74.8275 42.7127 70.4612 43.579 66.6703 42.0044C62.8795 40.4298 60.4119 36.725 60.42 32.6201C60.431 27.0355 64.9554 22.5111 70.54 22.5001ZM17.64 17.1801C10.2996 17.2172 4.28882 23.0253 4 30.3601V127.62C5.9551 126.115 8.35296 125.3 10.82 125.3C13.2865 125.303 15.6835 126.118 17.64 127.62V17.1801ZM136.58 136C136.277 143.437 130.019 149.231 122.58 148.96H18C10.5614 149.231 4.3034 143.437 4 136V135.14C4.41077 131.728 7.34385 129.184 10.78 129.26C14.2797 129.149 17.2643 131.775 17.6 135.26C17.6 136.365 18.4954 137.26 19.6 137.26C20.7046 137.26 21.6 136.365 21.6 135.26V39.2601H58C58.5361 40.3351 59.2082 41.3367 60 42.2401L56.72 58.5201H30.58C29.4754 58.5201 28.58 59.4155 28.58 60.5201V106.6V108.6V109.56C28.58 110.665 29.4754 111.56 30.58 111.56H46.14L45.32 115.56L52.6 132L52.72 131.68V133.34H56.72V129.34H53.72L59.72 115L60.32 111.66H68.82V131.34C68.8088 131.406 68.8088 131.474 68.82 131.54V133.34H109.08C110.185 133.34 111.08 132.445 111.08 131.34V60.4201C111.08 59.3155 110.185 58.4201 109.08 58.4201H84.86L81.46 41.5601C82.0753 40.8221 82.6054 40.017 83.04 39.1601H119.04V135.26C119.04 136.365 119.935 137.26 121.04 137.26C122.145 137.26 123.04 136.365 123.04 135.26C123.347 131.752 126.362 129.108 129.88 129.26C133.32 129.175 136.258 131.723 136.66 135.14L136.58 136ZM129.82 125.26C132.266 125.273 134.641 126.088 136.58 127.58V30.3601C136.292 23.033 130.293 17.2279 122.96 17.1801V127.58C124.913 126.043 127.335 125.224 129.82 125.26Z" fill="#005EB5"/>
<path id="Shape_2" fill-rule="evenodd" clip-rule="evenodd" d="M76.7441 35.198C75.7008 37.7009 73.2516 39.3282 70.5399 39.3201C66.8474 39.3091 63.8598 36.3126 63.8599 32.6201C63.8599 29.9084 65.4945 27.4641 68.0005 26.4282C70.5066 25.3924 73.39 25.9693 75.3046 27.8896C77.2192 29.8099 77.7874 32.695 76.7441 35.198ZM73.0504 31.5976C72.6274 30.5869 71.6355 29.932 70.5399 29.9401V30.0001C69.0829 29.9997 67.8925 31.1635 67.8599 32.6201C67.8518 33.7157 68.5066 34.7076 69.5173 35.1307C70.5281 35.5537 71.6942 35.324 72.469 34.5492C73.2437 33.7744 73.4735 32.6083 73.0504 31.5976Z" fill="#005EB5"/>
<rect id="Rectangle" x="28.52" y="120.98" width="4" height="4.12" fill="#005EB5"/>
<rect id="Rectangle_2" x="28.52" y="112.72" width="4" height="4.12" fill="#005EB5"/>
<path id="Path" d="M28.52 131.22C28.52 132.325 29.4154 133.22 30.52 133.22H32.52V129.22H28.52L28.52 131.22Z" fill="#005EB5"/>
<rect id="Rectangle_3" x="44.6401" y="129.24" width="4.04" height="4" fill="#005EB5"/>
<rect id="Rectangle_4" x="36.5601" y="129.24" width="4.04" height="4" fill="#005EB5"/>
<rect id="Rectangle_5" x="60.8198" y="129.26" width="4.04" height="4" fill="#005EB5"/>
<rect id="Rectangle_6" x="68.8999" y="74.9602" width="4" height="3.88" fill="#005EB5"/>
<rect id="Rectangle_7" x="68.8999" y="67.2002" width="4" height="3.88" fill="#005EB5"/>
<rect id="Rectangle_8" x="68.8999" y="90.48" width="4" height="3.88" fill="#005EB5"/>
<rect id="Rectangle_9" x="68.8999" y="82.7202" width="4" height="3.88" fill="#005EB5"/>
<rect id="Rectangle_10" x="68.8999" y="98.24" width="4" height="3.88" fill="#005EB5"/>
<rect id="Rectangle_11" x="40.1602" y="83.3401" width="4" height="4" fill="#005EB5"/>
<rect id="Rectangle_12" x="97.8398" y="83.3401" width="4" height="4" fill="#005EB5"/>
</g>
</g>
</svg>
