<svg width="150" height="148" viewBox="0 0 150 148" fill="none" xmlns="http://www.w3.org/2000/svg">
<g id="Icons / 01 / Tech_Plan">
<g id="Tech_Plan">
<path id="Shape" fill-rule="evenodd" clip-rule="evenodd" d="M118.18 24.96C116.877 23.1078 115.157 21.5871 113.16 20.52V6.84C113.16 3.06237 110.097 0 106.32 0C102.542 0 99.4798 3.06237 99.4798 6.84V20.66C97.5887 21.7231 95.9563 23.1915 94.6998 24.96H41.6598V23.4C41.8896 16.1652 38.1611 9.37951 31.9311 5.69417C25.7011 2.00882 17.9585 2.00882 11.7285 5.69417C5.49851 9.37951 1.77 16.1652 1.99979 23.4V130C1.98867 139.763 9.87675 147.696 19.6398 147.74H149.24V24.96H118.18ZM134.8 83.26V99.4H129.04L117.78 43.4H134.8V83.26ZM125.3 123.82H125.64L128.56 117.34L114.06 45.34C112.651 46.2399 111.093 46.8832 109.46 47.24L121.88 115.68L125.3 123.82ZM99.3798 45.68C100.822 46.5056 102.4 47.0677 104.04 47.34L91.6598 115.68L87.9998 124.2L84.8998 117.28L99.3798 45.68ZM111.64 81.66L106.76 54.74L101.86 81.66H111.64ZM101.12 85.66H112.36L114.84 99.34H98.6398L101.12 85.66ZM134.8 103.4H129.84L132.66 117.74L130 123.74H134.8V103.4ZM103.48 6.84C103.48 5.82537 104.021 4.8878 104.9 4.38049C105.778 3.87317 106.861 3.87317 107.74 4.38049C108.618 4.8878 109.16 5.82537 109.16 6.84V19.12C108.265 18.9348 107.354 18.841 106.44 18.84C105.445 18.8443 104.453 18.9515 103.48 19.16V6.84ZM116.72 33.2529C116.749 27.5418 112.151 22.8841 106.44 22.84C103.68 22.824 101.027 23.9079 99.0683 25.8519C97.1092 27.7959 96.0051 30.4401 95.9998 33.2C96 38.9112 100.622 43.5451 106.333 43.5597C112.045 43.5742 116.69 38.9641 116.72 33.2529ZM92.7198 28.96C92.2746 30.3307 92.0321 31.7591 91.9998 33.2C91.9974 35.38 92.5042 37.5304 93.4798 39.48H41.6598V28.96H92.7198ZM37.5798 124.86C36.8891 117.312 30.9418 111.314 23.3998 110.56V126.48C23.4108 131.365 27.3743 135.32 32.2598 135.32C35.1979 135.32 37.5798 132.938 37.5798 130V124.86ZM5.99979 23.4C5.79396 17.6103 8.76532 12.1701 13.7479 9.21417C18.7304 6.25826 24.9292 6.25826 29.9117 9.21417C34.8943 12.1701 37.8656 17.6103 37.6598 23.4V114.38C33.915 109.41 28.0531 106.487 21.8298 106.487C15.6065 106.487 9.74461 109.41 5.99979 114.38V23.4ZM19.6398 143.66H145.24V28.96H120.16C120.587 30.3326 120.803 31.7623 120.8 33.2C120.795 35.3769 120.296 37.5244 119.34 39.48H138.8V127.74H128.28L125.36 134.26L122.68 127.82H99.0198V123.82H121.02L118 116.6L115.66 103.34H97.9998L95.4198 117.02L88.1598 134.26L80.7998 117.76L87.1198 85.66H75.9998V81.66H87.9998L95.6598 43.48H75.6598V63.12H71.6598V43.48H41.6598V81.66H67.8598V85.66H41.6598V99.34H50.3398V103.34H41.6598V123.82H65.5398V103.34H56.4598V99.34H76.2598V103.34H69.5398V123.82H75.2398V127.82H41.5798V130C41.5468 135.124 37.3837 139.26 32.2598 139.26C25.1698 139.249 19.4218 133.51 19.3998 126.42V110.68C11.6984 111.881 6.01502 118.506 5.99979 126.3V130C6.02169 137.527 12.1125 143.627 19.6398 143.66Z" fill="#005EB5"/>
<path id="Shape_2" fill-rule="evenodd" clip-rule="evenodd" d="M113.22 33.2199C113.22 36.9644 110.184 39.9999 106.44 39.9999C102.695 39.9999 99.6597 36.9644 99.6597 33.2199C99.6597 29.4755 102.695 26.4399 106.44 26.4399C110.184 26.4399 113.22 29.4755 113.22 33.2199ZM109.22 33.2199C109.22 31.6846 107.975 30.4399 106.44 30.4399V30.4199C105.699 30.4199 104.989 30.7156 104.467 31.2412C103.945 31.7669 103.654 32.4792 103.66 33.2199C103.66 34.7553 104.904 35.9999 106.44 35.9999C107.975 35.9999 109.22 34.7553 109.22 33.2199Z" fill="#005EB5"/>
</g>
</g>
</svg>
