<svg width="142" height="146" viewBox="0 0 142 146" fill="none" xmlns="http://www.w3.org/2000/svg">
<g id="Icons / 01 / Vinos granic">
<g id="Vinos granic">
<path id="Shape" fill-rule="evenodd" clip-rule="evenodd" d="M46.8784 35.2118C45.8288 37.7141 43.3735 39.3362 40.66 39.32C36.9753 39.298 33.9999 36.3047 34 32.62C34 29.9065 35.6368 27.4609 38.1453 26.4263C40.6539 25.3916 43.5388 25.9722 45.4518 27.8967C47.3648 29.8212 47.9281 32.7095 46.8784 35.2118ZM43.1847 31.5834C42.7554 30.5734 41.7574 29.9238 40.66 29.94V30C39.2108 30.0105 38.0324 31.1711 38 32.62C37.992 33.7175 38.6491 34.7106 39.6623 35.1323C40.6754 35.5541 41.8431 35.3207 42.6163 34.5417C43.3894 33.7628 43.6141 32.5934 43.1847 31.5834Z" fill="#005EB5"/>
<path id="Shape_2" fill-rule="evenodd" clip-rule="evenodd" d="M51.58 41.5601L60.26 84.6601L140.66 4.2601V144.92H0L19.72 125.2L15.46 115.6L30.24 42.1401C27.3277 38.9591 26.0314 34.6201 26.7215 30.3629C27.4115 26.1056 30.012 22.3983 33.78 20.3001V6.7401C33.9752 3.15478 36.9394 0.347656 40.53 0.347656C44.1206 0.347656 47.0848 3.15478 47.28 6.7401V20.1601C51.0461 22.1138 53.7231 25.6699 54.5589 29.8295C55.3947 33.9891 54.2992 38.3033 51.58 41.5601ZM48.12 44.6001C46.7525 45.4654 45.2425 46.0816 43.66 46.4201L55.84 113.56L59.34 121.84L62.32 115.14L48.12 44.6001ZM48.64 96.2801C45.04 99.8668 41.44 103.467 37.84 107.08C36.0266 108.893 34.231 110.707 32.4354 112.52C31.5377 113.427 30.6399 114.333 29.74 115.24L29.88 114.9L40.98 54.0001L48.64 96.2801ZM40.53 4.21483C39.0967 4.21483 37.9019 5.31198 37.78 6.7401V18.7801C38.7268 18.5794 39.6921 18.4788 40.66 18.4801C41.5396 18.4843 42.4168 18.5713 43.28 18.7401V6.7401C43.1581 5.31198 41.9633 4.21483 40.53 4.21483ZM40.66 22.5001C44.7649 22.492 48.4697 24.9596 50.0443 28.7504C51.6189 32.5413 50.7526 36.9075 47.85 39.8101C44.9475 42.7127 40.5812 43.579 36.7903 42.0044C32.9995 40.4298 30.5319 36.725 30.54 32.6201C30.551 27.0355 35.0754 22.5111 40.66 22.5001ZM38.26 46.5401C36.6822 46.2581 35.1617 45.7175 33.76 44.9401L19.62 115.14L22.62 121.84L26.1 113.56L38.26 46.5401ZM123.58 140.94V129.62H119.58V140.92H111.58V133.78H107.58V140.92H100.18V129.62H96.18V140.92H88.18V133.78H84.18V140.92H76.74V129.62H72.74V140.92H64.74V133.78H60.74V140.92H53.32V129.62H49.32V140.92H41.32V133.78H37.32V140.92H30V129.62H26V140.92H9.66L21.46 129.1L22.72 131.9L25.56 125.12C30.5733 120.053 35.6067 114.98 40.66 109.9L49.52 101.06L52 114.48L59.24 132L64.54 120H115.74V60.2201L65.46 110.5L61.22 89.3601L136.66 14.0001V28.9201H126.66V32.9201H136.66V40.9201H130.86V44.9201H136.66V52.3201H126.66V56.3201H136.66V64.3201H130.86V68.3201H136.66V75.7201H126.66V79.7201H136.66V87.7201H130.86V91.7201H136.66V99.1201H126.66V103.12H136.66V111.12H130.86V115.12H136.66V122.52H126.66V126.52H136.66V140.94H123.58ZM111.74 69.8801L66.42 115.2L66.5 115.6L66.32 116H111.74V69.8801Z" fill="#005EB5"/>
</g>
</g>
</svg>
