<svg width="102" height="144" viewBox="0 0 102 144" fill="none" xmlns="http://www.w3.org/2000/svg">
<g id="Icons / 01 / Geodezich_raboty">
<g id="Geodezich_raboty">
<path id="Shape" fill-rule="evenodd" clip-rule="evenodd" d="M26.3398 87.8799H58.3398V103.52H26.3398V87.8799ZM30.3398 99.5199H54.3398V91.8799H30.3398V99.5199Z" fill="#005EB5"/>
<path id="Oval" d="M65.5601 92.3601C66.6646 92.3601 67.5601 91.4647 67.5601 90.3601C67.5601 89.2555 66.6646 88.3601 65.5601 88.3601C64.4555 88.3601 63.5601 89.2555 63.5601 90.3601C63.5601 91.4647 64.4555 92.3601 65.5601 92.3601Z" fill="#005EB5"/>
<path id="Oval_2" d="M74.1797 92.3601C75.2843 92.3601 76.1797 91.4647 76.1797 90.3601C76.1797 89.2555 75.2843 88.3601 74.1797 88.3601C73.0751 88.3601 72.1797 89.2555 72.1797 90.3601C72.1797 91.4647 73.0751 92.3601 74.1797 92.3601Z" fill="#005EB5"/>
<path id="Oval_3" d="M65.5601 103.52C66.6646 103.52 67.5601 102.625 67.5601 101.52C67.5601 100.415 66.6646 99.52 65.5601 99.52C64.4555 99.52 63.5601 100.415 63.5601 101.52C63.5601 102.625 64.4555 103.52 65.5601 103.52Z" fill="#005EB5"/>
<path id="Oval_4" d="M74.1797 103.52C75.2843 103.52 76.1797 102.625 76.1797 101.52C76.1797 100.415 75.2843 99.52 74.1797 99.52C73.0751 99.52 72.1797 100.415 72.1797 101.52C72.1797 102.625 73.0751 103.52 74.1797 103.52Z" fill="#005EB5"/>
<path id="Shape_2" fill-rule="evenodd" clip-rule="evenodd" d="M40.717 44.458C42.6308 39.9332 47.0869 37.0113 51.9996 37.0599C55.2031 37.0598 58.2737 38.3405 60.5276 40.617C62.7815 42.8934 64.0317 45.9766 63.9996 49.1799C63.9994 54.0929 61.0333 58.5197 56.4896 60.3884C51.9459 62.2571 46.7236 61.1979 43.267 57.7067C39.8103 54.2155 38.8032 48.9829 40.717 44.458ZM44.4127 52.3714C45.7074 55.4014 48.7049 57.3486 51.9996 57.2999C54.1423 57.3002 56.1955 56.4409 57.6993 54.9145C59.2031 53.3882 60.0318 51.3224 59.9996 49.1799C59.9993 45.8848 58.0076 42.9167 54.9587 41.6672C51.9097 40.4178 48.4079 41.1348 46.0953 43.482C43.7828 45.8293 43.118 49.3413 44.4127 52.3714Z" fill="#005EB5"/>
<path id="Shape_3" fill-rule="evenodd" clip-rule="evenodd" d="M96.7198 110.64C97.0746 109.861 97.2588 109.016 97.2598 108.16V22C97.2468 19.6959 96.241 17.5092 94.4998 16L78.2598 2C76.8118 0.722831 74.9506 0.012476 73.0199 0H30.6999C28.7553 0.00279826 26.8783 0.713778 25.4198 2L9.15985 16.3C7.43358 17.8166 6.44276 20.0022 6.43985 22.3V108.16C6.44744 109.024 6.63832 109.876 6.99985 110.66C3.68275 111.525 1.53322 114.73 1.99162 118.127C2.45002 121.524 5.37211 124.045 8.79985 124H17.3998L23.7398 132.8C22.6408 134.004 22.0217 135.57 21.9998 137.2C21.9998 139.014 22.7244 140.753 24.0127 142.03C25.3009 143.307 27.046 144.016 28.8598 144H74.8598C77.4535 144.01 79.8244 142.536 80.9621 140.205C82.0998 137.875 81.8036 135.098 80.1999 133.06L86.7999 124H94.9998C98.4118 124.003 101.295 121.471 101.731 118.087C102.167 114.703 100.021 111.522 96.7198 110.66V110.64ZM65.6398 29H38.2598C34.9461 29 32.2598 31.6863 32.2598 35V36.5L26.3798 28L38.6598 15.28H64.9599L77.2399 28L71.6398 36.12V35C71.6398 31.6863 68.9536 29 65.6398 29ZM67.6398 63.36V35C67.6398 33.8954 66.7444 33 65.6398 33H38.2598C37.1553 33 36.2598 33.8954 36.2598 35V63.36C36.2598 64.4646 37.1553 65.36 38.2598 65.36H65.6398C66.7444 65.36 67.6398 64.4646 67.6398 63.36ZM35.8199 68.84C36.5858 69.1883 37.4184 69.3657 38.2598 69.36H65.6399C66.3872 69.3658 67.1282 69.223 67.8199 68.94V78.6H35.8199V68.84ZM84.6398 85.66C84.6399 83.9778 83.282 82.611 81.5998 82.6H22.3598C20.6777 82.611 19.3198 83.9778 19.3198 85.66V110.16H84.6398V85.66ZM10.4398 22.3C10.4413 21.1511 10.9367 20.0583 11.7998 19.3L27.9998 5C28.7445 4.34308 29.7069 3.98663 30.6998 4H73.0199C73.9827 4.0007 74.9129 4.34866 75.6398 4.98L91.8799 18.98C92.7557 19.7392 93.2591 20.8409 93.2598 22V108C93.2598 109.105 92.3644 110 91.2598 110H88.6398V85.66C88.6399 81.7687 85.4912 78.611 81.5999 78.6H71.8198V42.9L82.3799 27.56L66.6599 11.26H36.9599L21.2398 27.56L31.8198 42.9V78.6H22.3598C18.4685 78.611 15.3198 81.7687 15.3198 85.66V110.16H12.4398C11.3353 110.16 10.4398 109.265 10.4398 108.16V22.3ZM28.9398 140H74.9398C76.3894 139.877 77.5034 138.665 77.5034 137.21C77.5034 135.755 76.3894 134.543 74.9398 134.42H28.9398C27.8867 134.331 26.873 134.842 26.319 135.742C25.7649 136.642 25.7649 137.778 26.319 138.678C26.873 139.578 27.8867 140.089 28.9398 140ZM76.9398 130.78C76.2963 130.555 75.6213 130.434 74.9398 130.42H28.9398C28.3522 130.428 27.7678 130.509 27.1999 130.66L22.3398 124H81.8799L76.9398 130.78ZM8.79985 120H94.9398H94.9999C96.053 120.089 97.0667 119.578 97.6207 118.678C98.1748 117.778 98.1748 116.642 97.6207 115.742C97.0667 114.842 96.053 114.331 94.9999 114.42H8.79985C7.74668 114.331 6.73301 114.842 6.17896 115.742C5.6249 116.642 5.6249 117.778 6.17896 118.678C6.73301 119.578 7.74668 120.089 8.79985 120Z" fill="#005EB5"/>
</g>
</g>
</svg>
