<svg width="364" height="227" viewBox="0 0 364 227" fill="none" xmlns="http://www.w3.org/2000/svg">
<path fill-rule="evenodd" clip-rule="evenodd" d="M15 53C6.71573 53 0 59.7157 0 68V166.457C0 174.741 6.71573 181.457 15 181.457H97.0801L141.162 227L129.897 181.457H177C185.284 181.457 192 174.741 192 166.457V68C192 59.7157 185.284 53 177 53H15Z" fill="white"/>
<path fill-rule="evenodd" clip-rule="evenodd" d="M349 0C357.284 0 364 6.71573 364 15V113.698C364 121.982 357.284 128.698 349 128.698H268.009L217.481 181L230.393 128.698H187C178.716 128.698 172 121.982 172 113.698V15C172 6.71573 178.716 0 187 0H349Z" fill="#FFB600"/>
<path d="M89.957 125.616C89.957 121.101 90.4673 117.544 91.4878 114.947C92.5083 112.318 94.1628 110.045 96.4512 108.128C98.7396 106.211 100.471 104.463 101.646 102.886C102.853 101.278 103.456 99.5155 103.456 97.5981C103.456 92.9285 101.445 90.5938 97.4253 90.5938C95.5698 90.5938 94.07 91.2741 92.9258 92.6348C91.7816 93.9954 91.1785 95.8354 91.1167 98.1548H75.438C75.4998 91.9699 77.4481 87.1611 81.2827 83.7285C85.1174 80.265 90.4982 78.5332 97.4253 78.5332C104.321 78.5332 109.656 80.1258 113.429 83.311C117.232 86.4963 119.134 91.0267 119.134 96.9023C119.134 99.4691 118.624 101.804 117.604 103.907C116.583 106.01 114.944 108.159 112.687 110.354L107.352 115.318C105.837 116.771 104.785 118.271 104.198 119.817C103.61 121.333 103.285 123.265 103.224 125.616H89.957ZM88.0552 139.717C88.0552 137.429 88.8747 135.558 90.5137 134.104C92.1836 132.62 94.2555 131.878 96.7295 131.878C99.2035 131.878 101.26 132.62 102.899 134.104C104.569 135.558 105.404 137.429 105.404 139.717C105.404 142.006 104.569 143.892 102.899 145.376C101.26 146.83 99.2035 147.557 96.7295 147.557C94.2555 147.557 92.1836 146.83 90.5137 145.376C88.8747 143.892 88.0552 142.006 88.0552 139.717Z" fill="#005EB5"/>
<path d="M275.9 71.6157H263.236L261.242 25.4609H277.895L275.9 71.6157ZM260.778 85.9956C260.778 83.7072 261.597 81.8363 263.236 80.3828C264.906 78.8984 266.978 78.1562 269.452 78.1562C271.926 78.1562 273.983 78.8984 275.622 80.3828C277.292 81.8363 278.126 83.7072 278.126 85.9956C278.126 88.284 277.292 90.1704 275.622 91.6548C273.983 93.1082 271.926 93.835 269.452 93.835C266.978 93.835 264.906 93.1082 263.236 91.6548C261.597 90.1704 260.778 88.284 260.778 85.9956Z" fill="white"/>
</svg>
