<svg width="174" height="196" viewBox="0 0 174 196" fill="none" xmlns="http://www.w3.org/2000/svg">
<g id="Icons / 02 / Geodez_raboty">
<g id="Geodez_raboty">
<path id="Path" d="M121.26 83.9999H52C47.752 83.9889 44.311 80.5479 44.3 76.2999V19.0999C44.311 14.8519 47.752 11.4109 52 11.3999H64.72V17.3999H52C51.5492 17.3999 51.1168 17.579 50.798 17.8978C50.4792 18.2166 50.3 18.649 50.3 19.0999V76.2799C50.2947 76.7342 50.4714 77.1718 50.7908 77.4949C51.1102 77.8181 51.5457 77.9999 52 77.9999H121.26C121.711 77.9999 122.143 77.8208 122.462 77.502C122.781 77.1832 122.96 76.7508 122.96 76.2999V19.0999C122.96 18.161 122.199 17.3999 121.26 17.3999H108.82V11.3999H121.26C125.508 11.4109 128.949 14.8519 128.96 19.0999V76.2799C128.96 80.5357 125.516 83.9889 121.26 83.9999Z" fill="white"/>
<path id="Shape" fill-rule="evenodd" clip-rule="evenodd" d="M69.68 64.94H103.54C107.788 64.929 111.229 61.488 111.24 57.24V7.7C111.229 3.45197 107.788 0.0109911 103.54 0H69.68C65.4352 0.0110254 62 3.45521 62 7.7V57.24C62 61.4848 65.4352 64.929 69.68 64.94ZM68 7.7C67.9999 6.76887 68.7489 6.01095 69.68 6H103.54C104.479 6 105.24 6.76112 105.24 7.7V57.24C105.24 58.1789 104.479 58.94 103.54 58.94H69.68C68.7489 58.929 67.9999 58.1711 68 57.24V7.7Z" fill="white"/>
<g id="Group">
<path id="Path_2" d="M93.1799 194.36C91.5231 194.36 90.1799 193.017 90.1799 191.36V122.44C90.1799 120.783 91.5231 119.44 93.1799 119.44C94.8368 119.44 96.1799 120.783 96.1799 122.44V191.36C96.1799 193.017 94.8368 194.36 93.1799 194.36Z" fill="white"/>
<path id="Path_3" d="M80 194.36C78.3431 194.36 77 193.017 77 191.36V122.44C77 120.783 78.3431 119.44 80 119.44C81.6569 119.44 83 120.783 83 122.44V191.36C82.9891 193.012 81.6523 194.349 80 194.36Z" fill="white"/>
</g>
<g id="Group_2">
<path id="Path_4" d="M3.00011 194.36C1.96382 194.344 1.00807 193.798 0.46829 192.913C-0.0714867 192.029 -0.119875 190.929 0.340109 190L58.1001 80.0002C58.572 79.0028 59.5533 78.345 60.6552 78.2873C61.757 78.2297 62.8016 78.7815 63.375 79.7242C63.9484 80.6669 63.958 81.8483 63.4001 82.8002L5.66011 192.8C5.12575 193.768 4.10545 194.366 3.00011 194.36Z" fill="white"/>
<path id="Path_5" d="M18 194.36C17.5252 194.345 17.06 194.222 16.64 194C15.1968 193.237 14.6211 191.466 15.34 190L60.56 101.7C61.3111 100.198 63.1378 99.5892 64.64 100.34C66.1422 101.091 66.7511 102.918 66 104.42L20.68 192.72C20.1708 193.732 19.1324 194.367 18 194.36Z" fill="white"/>
</g>
<g id="Group_3">
<path id="Path_6" d="M170.56 194.36C169.478 194.318 168.502 193.7 168 192.74L110.24 82.7402C109.819 81.3613 110.439 79.8778 111.715 79.2077C112.992 78.5376 114.565 78.8704 115.46 80.0002L173.2 190C173.969 191.437 173.433 193.224 172 194C171.56 194.243 171.063 194.367 170.56 194.36Z" fill="white"/>
<path id="Path_7" d="M155.54 194.36C154.41 194.358 153.376 193.725 152.86 192.72L107.66 104.42C107.11 103.46 107.134 102.275 107.722 101.337C108.309 100.399 109.366 99.8607 110.47 99.9368C111.574 100.013 112.547 100.691 113 101.7L158.2 190C158.931 191.465 158.352 193.245 156.9 194C156.481 194.225 156.015 194.348 155.54 194.36Z" fill="white"/>
</g>
<path id="Path_8" d="M105.06 124.26H68.1802C63.8002 124.26 60.4802 121.74 60.4802 118.42V80.8999H66.4802V118C67.0112 118.25 67.5933 118.374 68.1802 118.36H105.06C105.641 118.374 106.216 118.251 106.74 118V80.8999H112.74V118.42C112.74 121.74 109.44 124.26 105.06 124.26Z" fill="white"/>
<path id="Shape_2" fill-rule="evenodd" clip-rule="evenodd" d="M70.26 32.4601C70.26 41.4955 77.5846 48.8201 86.62 48.8201C95.6508 48.8091 102.969 41.4909 102.98 32.4601C102.98 23.4247 95.6554 16.1001 86.62 16.1001C77.5846 16.1001 70.26 23.4247 70.26 32.4601ZM77.0467 28.5201C78.6491 24.6464 82.428 22.1201 86.62 22.1201C92.3339 22.1201 96.969 26.7462 96.98 32.4601C96.9881 36.6521 94.4691 40.4359 90.5985 42.0457C86.7279 43.6556 82.2686 42.7742 79.3015 39.8128C76.3344 36.8514 75.4444 32.3939 77.0467 28.5201Z" fill="white"/>
</g>
</g>
</svg>
