<svg width="178" height="166" viewBox="0 0 178 166" fill="none" xmlns="http://www.w3.org/2000/svg">
<g id="Icons / 02 / Planirovka">
<g id="Plahirovra">
<path id="Shape" fill-rule="evenodd" clip-rule="evenodd" d="M41.64 141.14H47.64V26.78C47.64 14.1768 37.4232 3.95996 24.8201 3.95996C12.2169 3.95996 2.00005 14.1768 2.00005 26.78V135.5C1.99022 135.58 1.99022 135.66 2.00005 135.74V141.14H8.00005C8.00005 131.851 15.5306 124.32 24.8201 124.32C34.1095 124.32 41.64 131.851 41.64 141.14ZM8.00005 26.78C8.03307 17.5107 15.5508 10.0109 24.82 9.99996C34.0893 10.0109 41.607 17.5107 41.64 26.78V125.76C37.321 121.04 31.2177 118.352 24.82 118.352C18.4224 118.352 12.3191 121.04 8.00005 125.76V26.78Z" fill="white"/>
<path id="Path" d="M177.2 165.66H22.38C11.0959 165.616 1.97789 156.444 2.00004 145.16V134C2.00004 132.343 3.34319 131 5.00004 131C6.65689 131 8.00004 132.343 8.00004 134V145.18C7.98409 149.009 9.49018 152.689 12.187 155.408C14.8837 158.127 18.5503 159.664 22.38 159.68H171.2V33.6797H132C130.343 33.6797 129 32.3365 129 30.6797C129 29.0228 130.343 27.6797 132 27.6797H177.2V165.66Z" fill="white"/>
<path id="Path_2" d="M106.14 33.7397H45.7603C44.1034 33.7397 42.7603 32.3966 42.7603 30.7397C42.7603 29.0829 44.1034 27.7397 45.7603 27.7397H106.14C107.797 27.7397 109.14 29.0829 109.14 30.7397C109.14 32.3966 107.797 33.7397 106.14 33.7397Z" fill="white"/>
<path id="Path_3" d="M36.3998 156.32C28.087 156.309 21.3509 149.573 21.3398 141.26V122C21.3398 120.343 22.683 119 24.3398 119C25.9967 119 27.3398 120.343 27.3398 122V141.26C27.3398 146.264 31.3961 150.32 36.3998 150.32C39.2308 150.32 41.5288 148.031 41.5398 145.2V139.54C41.5398 137.883 42.883 136.54 44.5398 136.54C46.1967 136.54 47.5398 137.883 47.5398 139.54V145.2C47.5288 151.345 42.5445 156.32 36.3998 156.32Z" fill="white"/>
<g id="Group">
<path id="Path_4" d="M85.5803 143.6H46.8003C45.1434 143.6 43.8003 142.257 43.8003 140.6C43.8003 138.943 45.1434 137.6 46.8003 137.6H85.5803C87.2371 137.6 88.5803 138.943 88.5803 140.6C88.5803 142.257 87.2371 143.6 85.5803 143.6Z" fill="white"/>
<path id="Path_5" d="M66.2002 142C64.5433 142 63.2002 140.657 63.2002 139V127.42C63.2002 125.763 64.5433 124.42 66.2002 124.42C67.857 124.42 69.2002 125.763 69.2002 127.42V138.94C69.2163 139.746 68.9074 140.524 68.343 141.1C67.7786 141.676 67.0064 142 66.2002 142Z" fill="white"/>
<path id="Path_6" d="M56.5001 116.42H45.6001C43.9432 116.42 42.6001 115.077 42.6001 113.42C42.6001 111.763 43.9432 110.42 45.6001 110.42H56.5001C58.157 110.42 59.5001 111.763 59.5001 113.42C59.5001 115.077 58.157 116.42 56.5001 116.42Z" fill="white"/>
<path id="Path_7" d="M94.5001 116.42H75.6001C73.9432 116.42 72.6001 115.077 72.6001 113.42C72.6001 111.763 73.9432 110.42 75.6001 110.42H94.5001C96.157 110.42 97.5001 111.763 97.5001 113.42C97.5001 115.077 96.157 116.42 94.5001 116.42Z" fill="white"/>
<path id="Path_8" d="M130.2 116.42H108.74C107.083 116.42 105.74 115.077 105.74 113.42C105.74 111.763 107.083 110.42 108.74 110.42H130.2C131.857 110.42 133.2 111.763 133.2 113.42C133.2 115.077 131.857 116.42 130.2 116.42Z" fill="white"/>
<path id="Path_9" d="M125.8 143.6H110.68C109.023 143.6 107.68 142.257 107.68 140.6C107.68 138.943 109.023 137.6 110.68 137.6H125.8C127.457 137.6 128.8 138.943 128.8 140.6C128.8 142.257 127.457 143.6 125.8 143.6Z" fill="white"/>
<path id="Path_10" d="M158.6 112.72C156.943 112.72 155.6 111.377 155.6 109.72V49.8799H130.74C129.083 49.8799 127.74 48.5367 127.74 46.8799C127.74 45.223 129.083 43.8799 130.74 43.8799H161.6V109.72C161.6 111.377 160.257 112.72 158.6 112.72Z" fill="white"/>
<path id="Path_11" d="M161.6 143.52H152C150.343 143.52 149 142.177 149 140.52C149 138.863 150.343 137.52 152 137.52H155.6V93.2998C155.6 91.643 156.943 90.2998 158.6 90.2998C160.257 90.2998 161.6 91.643 161.6 93.2998V143.52Z" fill="white"/>
<path id="Path_12" d="M108.1 49.8799H46.3403C44.6835 49.8799 43.3403 48.5367 43.3403 46.8799C43.3403 45.223 44.6835 43.8799 46.3403 43.8799H108.1C109.757 43.8799 111.1 45.223 111.1 46.8799C111.1 48.5367 109.757 49.8799 108.1 49.8799Z" fill="white"/>
<path id="Path_13" d="M68.0002 86.7598H45.2002C43.5433 86.7598 42.2002 85.4166 42.2002 83.7598C42.2002 82.1029 43.5433 80.7598 45.2002 80.7598H68.0002C69.657 80.7598 71.0002 82.1029 71.0002 83.7598C71.0002 85.4166 69.657 86.7598 68.0002 86.7598Z" fill="white"/>
<path id="Path_14" d="M100 86.7598H85.1602C83.5033 86.7598 82.1602 85.4166 82.1602 83.7598C82.1602 82.1029 83.5033 80.7598 85.1602 80.7598H100C101.657 80.7598 103 82.1029 103 83.7598C103 85.4166 101.657 86.7598 100 86.7598Z" fill="white"/>
<path id="Path_15" d="M124 86.7598H114C112.343 86.7598 111 85.4166 111 83.7598C111 82.1029 112.343 80.7598 114 80.7598H124C125.657 80.7598 127 82.1029 127 83.7598C127 85.4166 125.657 86.7598 124 86.7598Z" fill="white"/>
<path id="Path_16" d="M157.72 86.7598H138C136.343 86.7598 135 85.4166 135 83.7598C135 82.1029 136.343 80.7598 138 80.7598H157.76C159.417 80.7598 160.76 82.1029 160.76 83.7598C160.76 85.4166 159.417 86.7598 157.76 86.7598H157.72Z" fill="white"/>
<path id="Path_17" d="M76.4204 74.0001C74.7636 74.0001 73.4204 72.6569 73.4204 71.0001V47.5801C73.4204 45.9232 74.7636 44.5801 76.4204 44.5801C78.0773 44.5801 79.4204 45.9232 79.4204 47.5801V70.9401C79.4365 71.7461 79.1276 72.5246 78.5632 73.1003C77.9989 73.6759 77.2266 74.0002 76.4204 74.0001Z" fill="white"/>
</g>
<g id="Group_2">
<path id="Shape_2" fill-rule="evenodd" clip-rule="evenodd" d="M103.38 44.0999C105.977 50.3546 112.088 54.428 118.86 54.4199C128.093 54.3979 135.569 46.9128 135.58 37.6799C135.58 30.9074 131.499 24.8021 125.242 22.2123C118.984 19.6224 111.782 21.0583 106.996 25.8501C102.21 30.6418 100.783 37.8453 103.38 44.0999ZM108.923 33.556C110.592 29.5434 114.514 26.9318 118.86 26.9399C124.779 26.9619 129.569 31.7607 129.58 37.6799C129.58 42.0257 126.961 45.9431 122.945 47.6043C118.93 49.2655 114.309 48.3429 111.239 45.2672C108.169 42.1914 107.255 37.5687 108.923 33.556Z" fill="white"/>
<path id="Path_18" d="M124 26.6399C122.343 26.6399 121 25.2967 121 23.6399V8.35989C120.888 7.13507 119.86 6.19784 118.63 6.19784C117.4 6.19784 116.373 7.13507 116.26 8.35989V23.6399C116.26 25.2967 114.917 26.6399 113.26 26.6399C111.603 26.6399 110.26 25.2967 110.26 23.6399V8.35989C110.479 3.89617 114.161 0.38916 118.63 0.38916C123.099 0.38916 126.782 3.89617 127 8.35989V23.6399C127 25.2967 125.657 26.6399 124 26.6399Z" fill="white"/>
<path id="Path_19" d="M98.54 152L89.54 131.8L106.56 47.1998C106.886 45.5705 108.471 44.5139 110.1 44.8398C111.729 45.1656 112.786 46.7505 112.46 48.3798L95.8 131.04L98.4 136.86L101.66 129.1L115.66 52.1398C115.994 50.5474 117.536 49.5114 119.136 49.8044C120.737 50.0973 121.812 51.6124 121.56 53.2198L107.56 130.84L98.54 152Z" fill="white"/>
<path id="Path_20" d="M139.86 152L130.9 130.5L116.9 53.22C116.754 52.44 116.925 51.634 117.376 50.9808C117.826 50.3275 118.519 49.8809 119.3 49.74C120.082 49.5939 120.891 49.7647 121.547 50.2148C122.204 50.665 122.654 51.3575 122.8 52.14L136.8 129.1L140 136.86L142.6 131.04L126 48.32C125.752 47.2549 126.104 46.1394 126.917 45.4087C127.731 44.678 128.878 44.4479 129.91 44.8081C130.943 45.1683 131.697 46.0618 131.88 47.14L148.92 131.74L139.86 152Z" fill="white"/>
</g>
</g>
</g>
</svg>
