<svg width="160" height="174" viewBox="0 0 160 174" fill="none" xmlns="http://www.w3.org/2000/svg">
<g id="Icons / 02 / Kadastr">
<g id="Kadastr">
<g id="Group">
<g id="Group_2">
<path id="Path" d="M93.3401 87.24H39.1001V51.04H45.1001V81.24H93.3401V87.24Z" fill="white"/>
<rect id="Rectangle" x="102.98" y="51.04" width="6" height="20.42" fill="white"/>
<path id="Path_2" d="M85.5201 83.7399H79.5201V60.3599H68.5601V83.7399H62.5601V54.3599H85.5201V83.7399Z" fill="white"/>
<path id="Path_3" d="M104.48 45.9797H98.4803V31.1797H96.2803V38.6797H90.2803V25.1797H104.48V45.9797Z" fill="white"/>
<path id="Path_4" d="M111.88 61.5598L74.1201 23.7998L36.3801 61.5598L32.1201 57.3198L74.1201 15.3198L116.12 57.3198L111.88 61.5598Z" fill="white"/>
<path id="Shape" fill-rule="evenodd" clip-rule="evenodd" d="M65.4079 45.8387C66.8474 49.3139 70.2385 51.5798 74 51.5798C79.1362 51.5798 83.3 47.416 83.3 42.2798C83.3 38.5183 81.0341 35.1271 77.5589 33.6877C74.0838 32.2482 70.0837 33.0439 67.4239 35.7037C64.7641 38.3635 63.9684 42.3635 65.4079 45.8387ZM70.9493 41.0416C71.4589 39.806 72.6634 38.9998 74 38.9998C75.8147 38.9997 77.289 40.465 77.3 42.2798C77.3081 43.6163 76.5092 44.8257 75.2768 45.3428C74.0443 45.8599 72.6216 45.5825 71.6737 44.6403C70.7257 43.6981 70.4397 42.2772 70.9493 41.0416Z" fill="white"/>
</g>
<g id="Group_3">
<path id="Shape_2" fill-rule="evenodd" clip-rule="evenodd" d="M98.1401 109.14C98.96 109.471 99.8359 109.64 100.72 109.64C102.7 109.582 104.556 108.662 105.8 107.12C105.958 106.943 106.183 106.841 106.42 106.84C106.663 106.841 106.895 106.942 107.06 107.12C109.032 109.25 112.132 109.909 114.8 108.763C117.468 107.618 119.126 104.917 118.94 102.02C118.923 101.782 119.011 101.548 119.18 101.38C119.356 101.208 119.594 101.115 119.84 101.12C122.746 101.276 125.422 99.5388 126.46 96.8197C127.566 94.1345 126.833 91.0431 124.64 89.1397C124.474 88.9844 124.38 88.7671 124.38 88.5397C124.364 88.3461 124.421 88.1535 124.54 87.9997H124.66C126.758 86.0217 127.395 82.9428 126.254 80.2946C125.114 77.6463 122.439 75.9941 119.56 76.1597C119.321 76.1856 119.083 76.0966 118.92 75.9197C118.738 75.7505 118.642 75.5078 118.66 75.2597C118.762 72.3644 117.034 69.7171 114.343 68.645C111.651 67.5729 108.577 68.3072 106.66 70.4797C106.504 70.6584 106.278 70.7606 106.04 70.7597C105.795 70.7694 105.559 70.6662 105.4 70.4797C103.428 68.3491 100.328 67.6909 97.6598 68.8362C94.9919 69.9815 93.3339 72.6823 93.5201 75.5797C93.5398 75.8182 93.4518 76.053 93.2801 76.2197C93.1109 76.402 92.8681 76.4976 92.6201 76.4797C89.7248 76.3776 87.0775 78.1054 86.0054 80.7969C84.9333 83.4883 85.6676 86.5631 87.8401 88.4797C88.0167 88.6377 88.1183 88.8628 88.1201 89.0997C88.1201 89.2397 88.0001 89.5997 88.0001 89.5997L87.8401 89.7397C85.7095 91.712 85.0513 94.8121 86.1966 97.48C87.3419 100.148 90.0427 101.806 92.9401 101.62C93.1778 101.605 93.4104 101.693 93.5801 101.86C93.7623 102.029 93.858 102.272 93.8401 102.52C93.7086 105.419 95.4375 108.081 98.1401 109.14ZM97.9315 97.7338C96.636 96.3892 94.8472 95.6327 92.9801 95.6397L92.6601 95.6197C92.301 95.6772 91.9534 95.4652 91.8401 95.1197C91.6812 94.8622 91.6812 94.5372 91.8401 94.2797L92.0001 94.1397C93.4269 92.825 94.2302 90.9676 94.2112 89.0275C94.1921 87.0874 93.3524 85.2462 91.9001 83.9597C91.608 83.7335 91.5088 83.3368 91.6601 82.9997C91.7925 82.6582 92.1354 82.446 92.5001 82.4797C94.443 82.5575 96.3278 81.8071 97.6855 80.415C99.0432 79.023 99.7464 77.1201 99.6201 75.1797C99.5764 74.8186 99.7818 74.4735 100.12 74.3397C100.459 74.181 100.862 74.2715 101.1 74.5597C102.424 75.965 104.269 76.7611 106.2 76.7597C108.145 76.7368 109.989 75.8944 111.28 74.4397C111.506 74.1477 111.903 74.0485 112.24 74.1997C112.577 74.3374 112.787 74.6766 112.76 75.0397C112.679 76.9691 113.404 78.8453 114.76 80.2197C116.143 81.6004 118.049 82.3276 120 82.2197C120.361 82.176 120.706 82.3815 120.84 82.7197C121.004 83.0514 120.912 83.4523 120.62 83.6797L122.62 85.8997L120.62 83.6997C119.2 85.0212 118.401 86.8797 118.42 88.8197C118.442 90.7532 119.285 92.586 120.74 93.8597C121.008 94.0936 121.09 94.4768 120.94 94.7997C120.834 95.1619 120.472 95.386 120.1 95.3197C118.157 95.2419 116.272 95.9924 114.915 97.3844C113.557 98.7764 112.854 100.679 112.98 102.62C113.024 102.981 112.818 103.326 112.48 103.46C112.141 103.618 111.738 103.528 111.5 103.24C110.176 101.834 108.331 101.038 106.4 101.04C104.455 101.063 102.611 101.905 101.32 103.36C101.094 103.652 100.697 103.751 100.36 103.6C100.019 103.467 99.8064 103.124 99.8401 102.76C99.9165 100.894 99.227 99.0784 97.9315 97.7338Z" fill="white"/>
<path id="Shape_3" fill-rule="evenodd" clip-rule="evenodd" d="M97.2515 89.9265C97.7375 94.5307 101.63 98.0193 106.26 97.9997C107.478 97.9974 108.683 97.7455 109.8 97.2597C114.05 95.4231 116.219 90.6673 114.82 86.254C113.421 81.8408 108.908 79.2033 104.376 80.1506C99.8443 81.098 96.7656 85.3224 97.2515 89.9265ZM105.1 86.2397C105.464 86.0742 105.86 85.9922 106.26 85.9997C107.79 85.9937 109.077 87.1481 109.236 88.6704C109.394 90.1927 108.374 91.5878 106.875 91.8979C105.377 92.208 103.887 91.3322 103.428 89.8719C102.97 88.4116 103.693 86.8415 105.1 86.2397Z" fill="white"/>
<path id="Path_5" d="M94.7601 131.06L89.0401 122.8L79.0801 122.82L92.3001 98.0195L97.6001 100.84L89.1001 116.8L92.1801 116.78L94.1001 119.56L102.64 103.54L107.94 106.36L94.7601 131.06Z" fill="white"/>
<path id="Path_6" d="M117.56 132.98L104.4 108.26L109.7 105.44L118.24 121.48L120.16 118.7H123.24L114.76 102.76L120.04 99.9399L133.26 124.74L123.3 124.7L117.56 132.98Z" fill="white"/>
</g>
<rect id="Rectangle_2" x="34.2603" y="95.5796" width="43.08" height="6" fill="white"/>
<rect id="Rectangle_3" x="34.2603" y="109.04" width="43.08" height="6" fill="white"/>
<rect id="Rectangle_4" x="34.2603" y="122.52" width="43.08" height="6" fill="white"/>
</g>
<g id="Group_4">
<path id="Shape_4" fill-rule="evenodd" clip-rule="evenodd" d="M120.4 174H16.2002C11.8898 174 7.75709 172.282 4.71669 169.227C1.67629 166.171 -0.0210881 162.03 0.000197812 157.72V141.02H110.2V157.68C110.211 163.306 114.775 167.86 120.4 167.86C123.1 167.86 125.689 166.787 127.599 164.878C129.508 162.969 130.58 160.38 130.58 157.68V14.76C130.872 6.84688 137.372 0.58252 145.29 0.58252C153.209 0.58252 159.708 6.84688 160 14.76V41.18H136.58V157.72C136.601 162.027 134.907 166.165 131.871 169.22C128.835 172.275 124.707 173.995 120.4 174ZM6.0002 147.02V157.72C5.97887 160.439 7.04409 163.054 8.95928 164.984C10.8745 166.914 13.4811 168 16.2002 168H107.86C105.495 165.119 104.202 161.507 104.2 157.78V147.02H6.0002ZM154 14.76V35.18H136.58V14.76C136.803 10.1117 140.637 6.45752 145.29 6.45752C149.944 6.45752 153.777 10.1117 154 14.76Z" fill="white"/>
<path id="Path_7" d="M21.4399 143.48H15.4399V16.18C15.451 7.2408 22.7007 -6.81238e-06 31.6399 0H145.08V6H31.6399C26.019 6.01096 21.4619 10.5591 21.4399 16.18V143.48Z" fill="white"/>
</g>
</g>
</g>
</svg>
