<svg width="105" height="110" viewBox="0 0 105 110" fill="none" xmlns="http://www.w3.org/2000/svg">
<path fill-rule="evenodd" clip-rule="evenodd" d="M52.499 0C52.499 0 50.4305 0.516137 50.4305 2.67946C50.4305 4.84279 52.499 7.83102 52.499 7.83102C52.499 7.83102 54.5682 4.84279 54.5682 2.67946C54.5682 0.516137 52.499 0 52.499 0ZM60.773 9.8923C60.7736 12.5888 59.4736 14.9824 57.4635 16.4863H47.5345C45.5251 14.9824 44.2231 12.5888 44.2231 9.8923C44.2231 6.62278 46.747 4.94615 49.1889 4.94615C49.1889 6.60708 51.2259 9.91454 52.4984 10.3038C53.7065 9.88118 55.8091 6.59792 55.8091 4.94615C58.2648 4.94615 60.773 6.62212 60.773 9.8923ZM65.9094 11.654C65.9094 11.654 64.4834 12.0105 64.4834 13.5013C64.4834 14.9935 65.9094 17.0548 65.9094 17.0548C65.9094 17.0548 67.3361 14.9935 67.3361 13.5013C67.3361 12.0105 65.9094 11.654 65.9094 11.654ZM90.9498 43.9403C90.9773 43.5603 90.9997 43.1769 91.0082 42.7857C97.6638 41.3623 104.999 39.0596 105 31.8343C105 28.7683 104.251 27.4985 102.979 26.342C101.393 29.7332 94.3931 34.1802 90.5554 36.4292C90.4668 35.9203 90.3697 35.4336 90.2607 34.973C95.6341 31.7271 100.72 27.5646 100.72 22.1697C100.72 18.1675 99.4797 13.8703 95.5842 12.5063C95.5842 16.9292 89.6688 25.6499 87.3614 28.8814C86.8791 28.3411 86.3803 27.9093 85.8836 27.5711C84.8539 31.3432 81.7848 33.9647 79.4276 35.9781C77.7721 37.3921 76.4677 38.5063 76.4677 39.5084C76.4677 40.4541 76.6955 41.5846 76.916 42.6788C77.1226 43.7046 77.3228 44.6983 77.3228 45.4776C77.3228 52.035 72.0026 52.2993 69.9059 52.2993C69.711 52.2993 69.522 52.2836 69.3344 52.2587V65.3604C69.7038 64.6552 70.1868 64.0213 70.7768 63.4594C70.7715 63.7073 70.7696 63.9572 70.7696 64.2116C70.7696 69.5411 73.5356 71.0588 75.612 71.0588C77.5611 71.0588 78.2462 70.3091 78.4693 69.8735C76.1921 68.4833 75.0365 64.4105 74.4721 61.2941C74.7917 61.1789 75.1165 61.0716 75.4565 60.9735C76.8096 64.9175 79.4668 69.6386 84.4556 69.6386C86.7866 69.6386 87.5347 68.1759 87.8818 67.2175C84.6741 65.7378 82.036 62.448 80.2425 59.6331C80.5601 59.4925 80.8797 59.3407 81.1953 59.1759C83.5322 61.9306 87.1672 65.3754 90.7319 65.3754C95.2416 65.3754 96.2962 63.477 97.0089 60.8283C92.822 60.8283 88.294 58.3255 85.2365 56.2328C85.5213 55.9567 85.8035 55.6715 86.0765 55.3712C89.4365 57.5732 93.0767 58.5544 96.4399 58.5544C101.662 58.5544 102.37 53.1968 102.146 51.4476C99.124 53.0274 92.7105 52.0697 88.901 51.2919C89.1064 50.8915 89.3026 50.4827 89.4804 50.0601C91.2831 50.3643 93.3083 50.5958 95.2974 50.5958C100.082 50.5958 104.714 49.5498 104.714 42.6366C104.714 41.8176 104.541 40.2724 104.143 39.7942C101.481 42.4547 95.1885 43.5177 90.9498 43.9403ZM81.3167 27.5724C81.2354 26.0018 81.6022 24.7438 83.8853 25.5818C83.0387 24.787 82.7434 23.1496 82.7434 21.8871C82.7434 21.501 83.0442 20.5735 83.3492 19.6331C83.7573 18.3746 84.173 17.093 83.8853 17.0548C81.8527 16.7854 80.3272 15.6035 79.0939 14.648C78.183 13.9423 77.4314 13.36 76.7525 13.36C75.4342 13.36 73.6137 15.4835 73.6137 16.2024C73.6137 16.4575 73.7182 16.872 73.8377 17.3463C73.9974 17.9801 74.184 18.7205 74.184 19.3293C74.184 20.6219 73.468 22.4366 71.9016 23.024C73.9793 23.024 77.0374 22.3836 77.0374 17.0548C77.0374 17.0548 79.7568 17.8797 81.6022 17.9071C81.5854 17.9281 81.5587 17.9588 81.5236 17.9992L81.5236 17.9992C81.0821 18.5077 79.3191 20.538 79.3191 23.5925C79.3191 25.1246 80.165 26.7142 81.3167 27.5724ZM69.333 23.024H62.4851C61.0991 21.9865 60.2033 20.3361 60.2033 18.4763C60.2033 16.2207 61.9411 15.0654 63.6276 15.0654C63.6276 16.2115 65.032 18.4913 65.9094 18.7595C66.7422 18.4691 68.1918 16.2037 68.1918 15.0654C69.8869 15.0654 71.6161 16.2207 71.6161 18.4763C71.6155 20.3354 70.719 21.9865 69.333 23.024ZM42.5129 23.024H35.665C34.2803 21.9865 33.3819 20.3361 33.3819 18.4763C33.3819 16.2207 35.1131 15.0654 36.8062 15.0654C36.8062 16.2037 38.2559 18.4691 39.0893 18.7595C39.9654 18.4913 41.3717 16.2109 41.3717 15.0654C43.0569 15.0654 44.796 16.2207 44.796 18.4763C44.796 20.3354 43.8996 21.9865 42.5129 23.024ZM39.0899 11.654C39.0899 11.654 37.6633 12.0105 37.6633 13.5013C37.6633 14.9935 39.0899 17.0548 39.0899 17.0548C39.0899 17.0548 40.516 14.9935 40.516 13.5013C40.516 12.0105 39.0899 11.654 39.0899 11.654ZM27.962 17.0548C27.962 17.0548 25.2412 17.8797 23.3965 17.9071C23.4133 17.9281 23.44 17.9588 23.475 17.9991C23.9164 18.5075 25.6789 20.5374 25.6789 23.5925C25.6789 25.1246 24.8343 26.7135 23.6813 27.5724C23.762 26.0018 23.3965 24.7438 21.1141 25.5818C21.9606 24.787 22.2546 23.1496 22.2546 21.8871C22.2546 21.5013 21.9543 20.575 21.6497 19.6354C21.2414 18.3762 20.8254 17.093 21.1141 17.0548C23.1459 16.785 24.6712 15.6037 25.9046 14.6484C26.8161 13.9425 27.5681 13.36 28.2474 13.36C29.5652 13.36 31.385 15.4835 31.385 16.2024C31.385 16.4575 31.2806 16.872 31.1612 17.3463C31.0017 17.9801 30.8153 18.7205 30.8153 19.3293C30.8153 20.6226 31.5306 22.4366 33.0978 23.024C31.0194 23.024 27.962 22.3836 27.962 17.0548ZM28.0837 42.6801C28.3043 41.5859 28.5323 40.4554 28.5323 39.5097C28.5323 38.5075 27.2278 37.3933 25.5722 35.9791C23.2151 33.9657 20.1462 31.3443 19.1158 27.5724C18.6197 27.9107 18.1196 28.3424 17.6366 28.8827C15.3319 25.6512 9.41582 16.9311 9.41582 12.5077C5.52034 13.8709 4.27938 18.1688 4.27938 22.171C4.27938 27.5659 9.36594 31.7284 14.7399 34.9743C14.6297 35.4355 14.5326 35.9222 14.4433 36.4305C10.6049 34.1815 3.60738 29.7345 2.01861 26.3433C0.749433 27.4992 0 28.7689 0 31.8357C0 39.0596 7.33486 41.3623 13.9905 42.787C14.0003 43.1782 14.0227 43.5616 14.0502 43.9417C9.81219 43.5191 3.51945 42.456 0.857057 39.7955C0.457403 40.2744 0.286779 41.8189 0.286779 42.6379C0.286779 49.5511 4.91659 50.5971 9.7026 50.5971C11.6917 50.5971 13.7155 50.3656 15.5189 50.0614C15.6987 50.4846 15.8943 50.8935 16.099 51.2932C12.2902 52.071 5.87734 53.0287 2.85401 51.4489C2.62892 53.1981 3.33898 58.5557 8.56007 58.5557C11.9233 58.5557 15.5629 57.5745 18.9242 55.3725C19.1965 55.6735 19.4774 55.958 19.7635 56.2341C16.7067 58.3268 12.1773 60.8296 7.99045 60.8296C8.70313 63.4783 9.75838 65.3767 14.2674 65.3767C17.8328 65.3767 21.4671 61.9319 23.8047 59.1772C24.1203 59.342 24.4393 59.4938 24.7569 59.6344C22.964 62.4493 20.3259 65.7391 17.1188 67.2188C17.466 68.1772 18.2128 69.6399 20.5438 69.6399C25.5326 69.6399 28.191 64.9188 29.5442 60.9748C29.8841 61.073 30.2083 61.1802 30.5279 61.2954C29.9629 64.4112 28.8085 68.4847 26.5314 69.8748C26.7519 70.3104 27.4383 71.0601 29.3887 71.0601C31.4644 71.0601 34.2311 69.5418 34.2311 64.213C34.2311 63.9591 34.2278 63.7086 34.2239 63.4607C34.8138 64.0226 35.2962 64.6565 35.665 65.3617V52.26C35.4786 52.2849 35.289 52.3006 35.0954 52.3006C32.996 52.3006 27.6765 52.0356 27.6765 45.4789C27.6765 44.6996 27.8769 43.7059 28.0837 42.6801ZM6.92339 72.0662C6.74293 70.7729 5.49672 70.491 5.38843 70.5544C5.19476 70.6647 5.18007 70.866 5.16994 71.0049C5.16799 71.0316 5.16621 71.0561 5.16334 71.0771C4.96844 71.0555 4.69216 70.8305 4.57403 70.6283C4.35747 70.2542 4.51891 69.8067 4.87066 69.6039L5.36659 69.3191L5.73625 69.1068C5.95478 68.9805 6.10702 68.868 6.16674 68.6606C6.43777 69.1257 6.38987 69.4607 6.2153 69.651C6.7554 69.7164 7.35324 70.1927 7.60261 70.6244C7.35324 70.1927 7.23642 69.4397 7.45036 68.9406C7.19705 68.9956 6.88271 68.8706 6.61299 68.4042C6.82496 68.4552 6.99755 68.38 7.2187 68.2544C7.27958 68.2184 7.42366 68.1354 7.59857 68.0347L7.59865 68.0347C7.74806 67.9486 7.91995 67.8496 8.08167 67.7559C8.43407 67.5538 8.90394 67.6382 9.12116 68.0117C9.23732 68.2151 9.29507 68.5664 9.21566 68.7463C9.19662 68.7383 9.1753 68.7279 9.15198 68.7164L9.1519 68.7164C9.02651 68.6549 8.84361 68.5651 8.64998 68.6776C8.5417 68.7404 8.16304 69.9565 9.19729 70.7592C10.2027 70.1816 10.6253 68.9589 9.97953 67.8475C10.4435 67.7467 11.6707 67.8076 12.4345 69.1264C13.2949 70.6113 12.9123 71.9053 11.8341 72.5235C11.4344 72.755 10.8064 72.8669 10.5039 72.7315C11.1326 73.8148 12.1215 73.7932 12.445 73.7487C12.6176 74.4402 12.2062 74.9969 11.6339 75.4522C11.7586 75.5771 11.8735 75.7295 11.9739 75.9009L17.2245 84.7322C19.3101 84.8628 19.8302 85.4326 20.3167 85.9657C20.7953 86.4899 21.2412 86.9786 23.1123 86.9786C25.6436 86.9786 27.1274 85.0758 28.5232 83.2859C28.7262 83.0256 28.9273 82.7678 29.1294 82.5185C28.1326 82.0907 27.3228 81.252 27.3917 79.5878C28.0644 79.962 29.0159 79.7003 29.3893 79.5878C29.2952 79.4658 29.1894 79.3656 29.085 79.2668C28.775 78.9732 28.477 78.6911 28.5329 77.8837C31.7951 77.8837 34.3932 75.6759 35.6657 72.8878V75.0407C35.6657 77.8608 36.5129 79.4629 37.9776 80.3394C37.1383 80.9831 36.5214 82.1358 36.5214 84.1382C36.5214 85.0822 36.6566 85.7173 36.8069 86.1262C35.182 86.1131 34.1478 85.8449 33.4836 85.4583C32.3306 86.7698 30.3016 87.3891 28.3056 87.9983C26.3561 88.5932 24.438 89.1786 23.3978 90.3901C23.3978 91.5414 22.8715 92.3656 22.0321 92.8216L25.0607 97.9143C25.4545 98.5953 25.2208 99.464 24.5383 99.8565C23.8552 100.249 22.9837 100.016 22.5906 99.3351L20.2655 95.2224H20.2583H19.688C17.6793 95.2224 16.9331 93.9585 17.5684 93.2102C15.7873 93.0061 15.2092 91.4838 15.9533 90.6498C13.4268 90.3894 13.1997 87.061 15.6147 86.9864L9.99659 77.0385C9.8975 76.8671 9.82203 76.6925 9.77675 76.5211C9.09754 76.7841 8.4111 76.8573 7.89923 76.3654C8.1007 76.1083 8.61257 75.2664 7.98389 74.1844C7.95239 74.5115 7.54092 74.9969 7.1393 75.2271C6.06306 75.8466 4.74663 75.5313 3.88498 74.0464C3.12242 72.7276 3.6822 71.6377 4.00047 71.2891C4.64491 72.3985 5.91934 72.6451 6.92339 72.0662ZM43.3687 81.8604C43.3687 83.2453 41.5476 86.032 38.5177 87.2612C38.8169 87.6445 39.2796 88.005 39.8781 88.3392C37.4867 90.8192 32.5413 95.3349 27.3917 96.3567C27.3917 98.1413 29.0723 100.335 33.0984 100.335C38.0308 100.335 42.2845 93.1291 43.9934 89.7856C44.3097 89.8569 44.6319 89.9243 44.964 89.9897C43.2197 94.0233 39.6589 100.601 34.2403 102.894C34.8394 104.858 36.7583 106.589 39.9477 106.589C45.6078 106.589 48.4172 95.1439 49.3162 90.5543C49.5833 90.5732 49.8491 90.5915 50.1188 90.6066C49.8516 95.0249 49.093 98.1062 48.4865 100.57L48.4865 100.57C48.0237 102.45 47.6494 103.971 47.6494 105.452C47.6494 108.214 49.2118 108.754 50.8566 109.324C51.4143 109.517 51.9814 109.713 52.5003 110C53.0193 109.713 53.5863 109.517 54.1438 109.324C55.7887 108.755 57.3506 108.214 57.3506 105.452C57.3506 103.971 56.9765 102.45 56.5139 100.57C55.9078 98.106 55.1497 95.0247 54.8825 90.6066C55.1522 90.5915 55.4193 90.5732 55.6844 90.5543C56.5841 95.1439 59.3935 106.589 65.055 106.589C68.2437 106.589 70.1619 104.858 70.7617 102.894C65.3424 100.601 61.781 94.0233 60.0373 89.9897C60.3694 89.9249 60.6922 89.8569 61.0079 89.7856C62.7161 93.1291 66.9699 100.335 71.9035 100.335C75.9283 100.335 77.6089 98.1419 77.6089 96.3567C72.4614 95.3342 67.5165 90.8192 65.1245 88.3392C65.7204 88.005 66.1817 87.6445 66.4823 87.2612C63.4518 86.032 61.6307 83.2453 61.6307 81.8604C61.6307 81.6628 61.6563 81.4738 61.7002 81.2971C56.4975 81.3802 54.1541 82.7743 52.4997 84.7034C50.8262 82.7743 48.4723 81.3802 43.2991 81.2971C43.345 81.4731 43.3687 81.6622 43.3687 81.8604ZM67.907 75.3226C67.907 77.9871 66.8709 78.7365 66.5164 78.993L66.481 79.0187C65.685 79.6016 64.5195 79.8711 62.4858 79.8711C58.0738 79.8711 54.7768 80.8176 52.499 82.7141C50.2225 80.8183 46.9242 79.8711 42.5129 79.8711C40.4786 79.8711 39.315 79.6016 38.5177 79.0187L38.4814 78.9923C38.1261 78.7347 37.091 77.9844 37.091 75.3226V44.3413H67.9064V75.3226H67.907ZM47.0784 75.8931C46.4766 76.2522 44.7376 76.4616 43.6541 76.4616C42.1284 76.4616 40.7502 75.5647 40.7502 73.7716C40.7502 72.8108 41.2279 72.3315 41.6603 71.8976C42.0177 71.5389 42.3443 71.2113 42.3443 70.6683C42.3443 69.8506 42.1848 69.2343 41.5463 68.7836C42.8233 68.991 43.3687 70.1842 43.3687 71.0594C43.3687 71.4846 43.2181 71.8035 43.0718 72.1134C42.9335 72.4063 42.799 72.6912 42.799 73.0501C42.799 73.5917 43.4763 74.0235 43.9219 74.0235C44.5066 74.0235 46.0101 73.7644 46.3506 73.5368C46.2719 73.8691 46.6368 75.4319 47.0784 75.8931ZM40.9871 60.1427C40.9871 61.0523 41.4218 61.5442 41.8271 62.0029C42.1812 62.4037 42.5129 62.7791 42.5129 63.3854C42.5129 64.2686 42.1579 65.3375 41.6565 65.8248C43.4205 65.6397 44.3937 64.2071 44.3937 62.9439C44.3937 62.5129 44.1981 62.0884 44.0081 61.676C43.8286 61.2864 43.6541 60.9076 43.6541 60.5444C43.6541 59.8058 44.0663 59.4061 44.5105 59.4061C45.1582 59.4061 45.508 59.5762 45.6583 59.7509C45.7502 59.5553 46.0002 59.2413 46.1531 59.1314C45.8158 58.4746 45.0592 57.7014 43.3687 57.7014C41.6998 57.7014 40.9871 58.9292 40.9871 60.1427ZM44.4373 55.2818C44.2667 54.9618 44.1148 54.6772 43.5314 54.6772C44.2133 53.1412 46.2962 51.7406 47.6297 51.3396C47.6297 52.5263 48.1914 52.8233 49.3608 53.1523C49.4652 53.6279 49.6457 54.5221 49.6457 55.6323C49.6457 56.0562 49.5725 56.4502 49.5191 56.7385L49.5191 56.7385C49.4882 56.9048 49.4639 57.0359 49.4639 57.1172C48.652 57.1172 48.2465 56.8828 47.8372 56.6461C47.4202 56.4049 46.9992 56.1615 46.14 56.1615C44.9065 56.1615 44.6564 55.6925 44.4373 55.2818ZM63.373 64.8828C63.417 64.6375 63.4504 63.8839 63.373 63.5863C63.1689 63.0204 62.2758 61.6414 61.4384 61.0298C61.3684 61.0267 61.2862 61.0223 61.1957 61.0175H61.1956C60.7308 60.9926 60.0477 60.9561 59.6731 61.0245C59.6731 61.4454 59.4883 61.9951 59.3104 62.524C59.1455 63.0144 58.9867 63.4869 58.9867 63.8224C60.1776 63.391 60.7184 62.8617 61.0611 62.5264L61.0612 62.5263C61.1622 62.4274 61.246 62.3454 61.3242 62.2877C61.9818 62.6279 62.5566 63.407 62.8145 63.7714C62.8605 64.0167 62.8329 64.4792 62.8145 64.699C62.6564 64.699 62.2554 64.979 62.2554 65.255C62.429 65.6361 63.054 65.938 63.4119 66.1109C63.4682 66.1381 63.5178 66.162 63.5581 66.1826C63.8042 65.817 63.6729 64.9855 63.373 64.8828ZM63.583 69.0113C64.4939 69.0113 65.1035 69.5424 65.1482 69.9631C65.2472 70.8534 64.9716 71.3368 64.3403 71.7267C64.5123 72.2376 63.6926 72.9788 63.0396 73.1744C62.997 73.3837 62.7568 73.7886 62.5009 73.8796C62.4175 73.6009 62.243 73.5008 62.096 73.4858C62.0776 73.9325 61.8755 74.3342 61.4811 74.5959C61.4095 74.2394 61.1752 73.9875 60.9206 73.8357C60.9206 74.3931 60.7297 74.9203 60.2506 75.2847C60.2184 75.0204 59.8385 74.4919 59.5891 74.3715C59.677 76.2666 58.776 78.3501 57.6256 79.0174C57.6755 78.7479 57.5521 78.2965 57.3401 78.1637C56.5093 78.7806 52.6552 78.967 51.9294 78.7322C53.2865 78.4587 53.6908 77.0176 53.0713 76.4589C53.4808 76.0416 53.778 75.0113 53.778 74.2309C53.778 72.4692 52.6965 72.008 51.5429 72.008C50.5007 72.008 49.8662 72.8054 49.8662 73.4916C49.8662 74.3296 50.4292 74.6031 50.798 74.6031C50.9988 74.6031 51.1819 74.2315 50.9831 74.2315C50.5716 74.2315 50.4246 73.9057 50.4246 73.4916C50.4246 73.0664 50.9339 72.5627 51.5422 72.5627C52.2181 72.5627 53.2183 72.793 53.2183 74.2315C53.2183 74.8981 53.0575 77.0268 50.2179 77.0268C48.5451 77.0268 46.8842 75.7315 46.8842 73.4916C46.8842 72.4783 47.648 69.9219 51.073 69.9219C52.2536 69.9219 53.2137 70.2561 54.0838 70.6499C54.0329 70.4296 54.0921 70.235 54.1498 70.0456C54.2176 69.8228 54.2833 69.607 54.1652 69.3645C54.0005 69.0296 53.6593 68.9609 53.4289 69.0014C53.4919 68.7607 53.8483 68.573 54.2348 68.8556C54.2932 68.6194 54.0563 68.2642 53.6074 68.3754C53.6547 68.255 53.8312 68.1438 54.0366 68.1438C54.9018 68.1438 55.1303 68.8407 55.3841 69.6148C55.6364 70.3843 55.9137 71.2301 56.8663 71.5435L54.452 64.9378C52.942 64.9083 49.9278 64.6172 49.2558 64.404C48.9802 65.991 47.4978 67.0363 45.9418 67.7428C45.529 68.5023 45.4122 70.5309 45.5704 71.0804C45.8204 71.1877 46.138 71.696 46.1295 72.008C45.6878 72.3272 44.6575 72.2827 44.4515 72.008C44.4377 71.6246 44.6063 71.2976 44.8249 71.0804C44.6851 70.6257 44.5899 67.977 45.1976 67.001C46.3111 66.5986 46.1918 65.0627 46.128 64.2417C46.1164 64.0911 46.1065 63.9645 46.1065 63.8734C46.1065 63.6118 46.0175 63.3545 45.9187 63.069C45.7957 62.7135 45.6576 62.3143 45.6576 61.8089C45.6576 59.3427 47.9479 58.1855 49.8662 58.5368C49.8662 57.848 49.9714 57.2704 50.0699 56.7295C50.1567 56.2532 50.2382 55.8054 50.2382 55.3353C50.2382 54.639 50.0509 53.5581 49.9651 53.0634L49.965 53.0627L49.9643 53.0587L49.9423 52.9313L49.9318 52.8677C49.8503 52.84 49.7521 52.8122 49.6444 52.7817L49.6444 52.7817C49.0866 52.6237 48.2747 52.3937 48.2203 51.7308C48.1606 51.0053 48.1087 49.5308 48.2203 48.6045C48.2203 48.4836 48.1427 48.3879 48.0684 48.2961C47.9999 48.2116 47.9342 48.1305 47.9342 48.0361C47.9342 47.8215 47.9847 47.6416 48.0805 47.501L47.589 46.1567C47.5352 46.0082 47.6113 45.8459 47.7589 45.7923C47.9079 45.7386 48.0707 45.8139 48.1251 45.9624L48.5786 47.2007C48.6442 47.1902 48.7131 47.1837 48.7899 47.1837C49.0242 47.1837 49.3615 47.7456 49.3615 48.0367C49.3615 48.2937 49.2115 48.4578 49.1139 48.5646C49.1045 48.5749 49.0955 48.5848 49.0872 48.5941C49.0872 48.5941 57.9629 72.8892 57.9806 72.9395L57.9808 72.9399C57.9984 72.9918 58.1348 73.3946 58.3809 73.3039C58.5273 73.2489 58.5332 73.0867 58.4787 72.9395L58.0988 71.8981C58.5581 71.8726 59.0037 71.8163 59.3089 71.7332C58.8489 70.6624 58.1322 68.8981 58.0581 68.4369C57.766 68.2668 57.6066 67.6153 57.6013 67.1004C57.3657 66.9101 56.3157 65.5416 56.1976 64.7762C56.0368 64.8298 55.7652 64.871 55.5407 64.8979L50.5257 51.1715L50.6271 51.1755L50.6273 51.1755C50.7737 51.1813 50.948 51.1881 51.0723 51.197C50.8899 50.8464 50.7862 50.448 50.7862 50.0254C50.7862 48.613 51.9353 47.4676 53.3541 47.4676C54.7723 47.4676 55.922 48.613 55.922 50.0254C55.922 51.1702 55.166 52.1397 54.1245 52.4654C54.3391 52.8154 54.5563 53.2459 54.7079 53.7496C53.757 54.5176 53.404 56.1458 53.404 57.0871C53.404 57.5333 53.9624 57.6647 53.9624 57.1741C53.9624 54.5176 55.8426 51.9827 58.9926 51.9827C61.7055 51.9827 62.159 53.6128 62.159 54.7635C62.159 55.2114 61.895 55.6817 61.6482 56.1216C61.4314 56.5079 61.2277 56.8707 61.2277 57.1741C61.2277 57.3939 60.878 58.6591 60.2959 58.6591C59.7151 58.6591 59.3647 58.3137 59.3647 58.1017C59.3647 57.9472 59.409 57.7616 59.4545 57.5715C59.5022 57.372 59.551 57.1675 59.551 56.989C59.551 56.6403 59.4191 55.5053 59.1789 55.5053C58.7176 55.5053 58.4334 56.2825 58.4334 56.989C58.4334 57.4395 58.6172 57.901 58.8023 58.3657C58.99 58.8369 59.1789 59.3113 59.1789 59.781C59.1789 61.0893 58.9354 61.6908 58.7203 62.2219C58.5502 62.6418 58.398 63.0177 58.398 63.6641C58.398 64.0136 58.4319 64.6078 58.4658 65.2008C58.4997 65.7941 58.5335 66.3863 58.5332 66.7308C58.7452 66.9676 58.9834 67.7278 58.9053 68.2145C58.9571 68.7973 59.4447 70.5014 59.8129 71.5481C60.7546 71.2773 61.5421 70.6264 61.5421 70.0645C61.5421 69.9259 61.5207 69.8406 61.497 69.7458C61.4673 69.627 61.4338 69.4933 61.4338 69.2212C61.4338 69.0041 61.5742 68.796 62.0487 68.796C62.5232 68.796 62.7975 68.8523 62.9707 69.1715C62.7483 69.2252 62.5475 69.3096 62.4116 69.4155L62.8513 69.7603L62.2548 69.912C62.2864 70.2283 62.249 70.4284 62.2086 70.6442C62.1753 70.8226 62.1399 71.0117 62.1399 71.2858C62.7299 71.2858 63.2247 71.2158 63.8015 70.5309L63.1046 69.704L64.1257 69.9402C64.1822 69.5673 63.9151 69.2782 63.583 69.0113ZM51.4956 65.3342C50.7705 65.2897 49.918 65.1307 49.6804 65.0686C49.5374 65.448 49.1909 65.9563 48.9369 66.1944C48.9369 66.8797 48.645 67.1869 48.3785 67.4675C48.2916 67.5589 48.2074 67.6475 48.1369 67.7454C48.1369 68.2119 48.2669 69.5509 48.555 69.8715C48.6757 69.7629 49.036 69.6033 49.286 69.5843C49.0872 69.0799 49.0321 68.4369 49.0321 67.9312C49.1156 67.8754 49.2417 67.8073 49.3935 67.7253L49.3937 67.7252C50.1367 67.3239 51.4956 66.5899 51.4956 65.3342ZM53.3804 48.5542C54.4796 48.5542 54.7992 49.3379 54.7992 50.0679C54.7992 50.798 54.1344 51.4593 53.4053 51.5261C53.467 51.5888 53.6488 51.7831 53.862 52.0742C54.7887 51.8479 55.4764 51.0178 55.4764 50.026C55.4764 48.8597 54.5262 47.9144 53.3561 47.9144C52.1847 47.9144 51.2357 48.8603 51.2357 50.026C51.2357 50.4859 51.3847 50.9118 51.6354 51.2578C51.7817 51.2794 51.9084 51.3062 52.0022 51.3403C52.0908 51.2376 52.1925 50.968 52.2142 50.8797C52.2379 50.7881 52.1908 50.727 52.1275 50.645C52.038 50.529 51.9163 50.3712 51.9163 50.026C51.9163 49.1305 52.4865 48.5542 53.3804 48.5542ZM54.874 73.4779C54.7526 73.2607 54.7934 73.0611 54.8342 72.8613C54.8722 72.6754 54.9102 72.4892 54.8175 72.2886C54.6377 71.9027 54.3372 71.955 54.1685 71.9949C54.1869 71.8072 54.5353 71.5233 54.954 71.8673C55.0124 71.6312 54.7755 71.276 54.3273 71.3859C54.3726 71.2668 54.5301 71.1072 54.7355 71.1072C55.6334 71.1072 55.8333 71.7819 56.0208 72.4151C56.1676 72.9107 56.3069 73.3808 56.7672 73.4825C56.4982 73.928 55.3064 73.7703 54.874 73.4779ZM41.0278 42.9205H52.4865C52.3035 38.1614 49.8537 33.1636 46.5055 31.5511C46.7065 31.4484 46.9094 31.3537 47.1092 31.2603L47.1093 31.2602C48.2862 30.7103 49.3608 30.2082 49.3608 28.4255C48.3883 28.9462 46.497 28.9233 45.9366 28.1403C48.4054 27.3585 49.3608 26.1673 49.3608 22.7395C47.7885 24.2303 46.478 24.4455 43.9383 24.4455H33.9522C32.1587 24.4455 31.8246 25.54 32.2414 26.4342C31.0686 26.4342 27.6759 26.6259 27.6759 29.5618C27.6759 31.3522 28.2186 32.5415 29.1019 33.5404C29.9025 32.5003 30.986 31.8363 32.2414 31.8363C33.4954 31.8363 34.9963 32.3472 35.6643 32.9719C34.9658 32.9719 34.0969 33.4495 33.1554 33.9671C32.0424 34.5789 30.8279 35.2465 29.6735 35.2465C28.7967 35.2465 28.0388 35.0195 27.3904 34.678C27.8301 36.0308 29.3388 36.3834 30.2444 36.3834C31.1487 36.3834 33.3819 35.5297 33.3819 35.5297C33.3819 35.5297 33.2211 36.6143 33.3819 37.5204C33.4683 37.4389 33.5573 37.347 33.6521 37.2489C34.2354 36.646 35.0394 35.8149 36.8062 35.8149C39.0237 35.8149 40.6991 37.6656 41.0278 42.9205ZM33.9529 27.2872L34.8092 28.992L38.8045 27.2872H33.9529ZM45.0808 23.0234C47.1585 23.0234 50.5021 21.7576 50.5021 17.9065H47.648C47.648 17.9065 47.7544 22.0205 45.0808 23.0234ZM59.9185 23.024C57.8395 23.024 54.4953 21.7576 54.4953 17.9071H57.3493C57.3493 17.9065 57.2437 22.0205 59.9185 23.024ZM71.3479 37.2509L71.3481 37.2511C71.4419 37.3483 71.53 37.4395 71.6155 37.5204C71.7782 36.6143 71.6148 35.5291 71.6148 35.5291C71.6148 35.5291 73.8487 36.3828 74.753 36.3828C75.6599 36.3828 77.1686 36.0302 77.607 34.6773C76.9599 35.0188 76.2026 35.2458 75.3239 35.2458C74.1702 35.2458 72.9564 34.5786 71.8436 33.9669C70.9018 33.4492 70.0324 32.9713 69.333 32.9713C70.0031 32.3466 71.5032 31.8356 72.7567 31.8356C74.0121 31.8356 75.0949 32.499 75.8961 33.5398C76.7808 32.5408 77.3215 31.3516 77.3215 29.5611C77.3215 26.6252 73.9294 26.4335 72.7567 26.4335C73.174 25.5393 72.838 24.4449 71.0465 24.4449H61.0591C58.5207 24.4449 57.2095 24.2297 55.6372 22.7388C55.6372 26.1666 56.5927 27.3579 59.0615 28.1396C58.501 28.9233 56.6091 28.9462 55.6372 28.4248C55.6372 30.2068 56.7115 30.7093 57.8868 31.2589C58.0869 31.3526 58.29 31.4475 58.4912 31.5504C55.1463 33.1636 52.6959 38.1621 52.5128 42.9205H63.9715C64.2996 37.6656 65.9744 35.8149 68.1912 35.8149C69.9613 35.8149 70.7652 36.6475 71.3479 37.2509ZM71.0465 27.2879H66.1942L70.1888 28.9926L71.0465 27.2879ZM68.4773 84.1362C68.4773 85.0802 68.3414 85.7154 68.1912 86.1242C69.8318 86.1118 70.8713 85.8384 71.5354 85.4439C72.7982 86.8407 75.1422 87.6058 77.4155 88.3479C79.5948 89.0593 81.7092 89.7495 82.7441 90.9546C83.2713 91.4805 83.7239 91.9312 84.1519 92.3573C84.45 92.6542 84.7362 92.9391 85.0272 93.2291C85.4839 93.6851 87.3404 93.7669 87.8792 93.2291C88.0135 93.0956 88.1373 92.9722 88.2548 92.855C88.3722 92.738 88.4834 92.6272 88.5925 92.5187C88.6025 92.5285 88.6124 92.5382 88.6222 92.5478C88.6605 92.5854 88.6983 92.6224 88.7369 92.662C89.1943 93.1153 90.4806 93.1971 91.02 92.662C91.293 92.3892 91.5214 92.1602 91.7445 91.9391C92.1973 92.2741 92.8201 92.2891 93.3011 91.8076C93.5872 91.5244 94.2238 90.8905 94.4423 90.672C94.901 90.2154 94.9496 89.4768 94.8144 88.8907C95.4825 87.793 95.869 86.5063 95.869 85.1293C95.869 81.5379 93.246 78.5582 89.8033 77.9831C89.6333 77.38 89.5133 76.6558 89.4575 75.916C90.4838 76.0082 91.4144 76.2777 91.8836 76.7442C92.2531 76.3752 92.2596 73.9934 91.8836 73.6179C91.419 74.0797 90.4773 74.3538 89.4365 74.4487C89.4903 73.3373 89.716 72.3573 90.1623 71.9125C89.7908 71.5435 87.4008 71.537 87.0248 71.9125C87.4612 72.3482 87.6915 73.3294 87.7506 74.4461C86.7085 74.3486 85.7687 74.0712 85.3113 73.6179C84.9208 74.0045 84.9484 76.3824 85.3113 76.7442C85.751 76.3072 86.6881 76.0272 87.7335 75.9251C87.6797 76.6604 87.5635 77.3807 87.391 77.9825C83.9437 78.5523 81.3167 81.5346 81.3167 85.1299C81.3167 85.9882 81.4683 86.8111 81.742 87.5765C79.2971 86.8809 77.725 84.8824 76.3863 83.1806C76.2079 82.9538 76.0337 82.7323 75.862 82.5198C76.8621 82.0933 77.6772 81.2566 77.607 79.5865C76.9356 79.9607 75.9834 79.699 75.6107 79.5865C75.7047 79.4646 75.8104 79.3645 75.9147 79.2656C76.2246 78.972 76.5224 78.6899 76.4664 77.8824C73.2036 77.8824 70.6062 75.6746 69.333 72.8865V75.0394C69.333 77.8556 68.4799 79.4563 67.0171 80.3329C67.8585 80.9753 68.4773 82.1293 68.4773 84.1362Z" fill="#005EB5"/>
</svg>
