<svg width="80" height="113" viewBox="0 0 80 113" fill="none" xmlns="http://www.w3.org/2000/svg">
<path fill-rule="evenodd" clip-rule="evenodd" d="M70.3027 92.9638L71.2632 94.0508L68.2658 96.6995L77.5974 100.464L75.01 90.74L72.0126 93.3886L71.052 92.3016L70.7209 91.927L69.9716 92.5891L70.3027 92.9638ZM68.0723 88.9295L67.7412 88.5549L66.4168 87.0562L66.0857 86.6815L65.3364 87.3437L65.6675 87.7183L66.9918 89.217L67.3229 89.5917L68.0723 88.9295ZM63.106 83.3094L63.4371 83.6841L62.6877 84.3462L62.3566 83.9716L61.0323 82.4729L60.7012 82.0982L61.4506 81.436L61.7816 81.8107L63.106 83.3094ZM58.8019 78.4386L58.4708 78.0639L57.1464 76.5652L56.8154 76.1905L56.066 76.8527L56.3971 77.2274L57.7214 78.7261L58.0525 79.1008L58.8019 78.4386ZM53.8356 72.8185L54.1667 73.1931L53.4173 73.8553L53.0862 73.4806L51.7619 71.9819L51.4308 71.6072L52.1802 70.9451L52.5113 71.3197L53.8356 72.8185ZM49.5315 67.9477L49.2004 67.573L47.8761 66.0743L47.545 65.6996L46.7956 66.3618L47.1267 66.7364L48.4511 68.2351L48.7821 68.6098L49.5315 67.9477ZM44.5652 62.3275L44.8963 62.7022L44.1469 63.3644L43.8159 62.9897L42.4915 61.491L42.1604 61.1163L42.9098 60.4541L43.2409 60.8288L44.5652 62.3275ZM40.2611 57.4567L39.93 57.082L38.6057 55.5833L38.2746 55.2086L37.5252 55.8708L37.8563 56.2455L39.1807 57.7442L39.5118 58.1189L40.2611 57.4567ZM35.2948 51.8366L35.6259 52.2112L34.8766 52.8734L34.5455 52.4987L33.2211 51L32.89 50.6253L33.6394 49.9632L33.9705 50.3379L35.2948 51.8366ZM30.9907 46.9658L30.6596 46.5911L29.3353 45.0924L29.0042 44.7177L28.2549 45.3799L28.5859 45.7545L29.9103 47.2533L30.2414 47.6279L30.9907 46.9658ZM26.0244 41.3456L26.3555 41.7203L25.6062 42.3825L25.2751 42.0078L23.9507 40.5091L23.6197 40.1344L24.369 39.4722L24.7001 39.8469L26.0244 41.3456ZM21.7203 36.4748L21.3892 36.1001L20.0649 34.6014L19.7338 34.2268L18.9845 34.8889L19.3156 35.2636L20.6399 36.7623L20.971 37.137L21.7203 36.4748ZM16.7541 30.8547L17.0851 31.2293L16.3358 31.8915L16.0047 31.5168L14.6804 30.0181L14.3493 29.6434L15.0986 28.9813L15.4297 29.356L16.7541 30.8547ZM12.45 25.9839L12.1189 25.6092L10.7945 24.1105L10.4634 23.7358L9.71409 24.398L10.0452 24.7726L11.3695 26.2714L11.7006 26.646L12.45 25.9839ZM7.48367 20.3637L7.81476 20.7384L7.06541 21.4006L6.73432 21.0259L5.40998 19.5272L5.0789 19.1525L5.82825 18.4903L6.15934 18.865L7.48367 20.3637ZM3.17957 15.4929L2.84848 15.1182L1.52414 13.6195L1.19306 13.2449L0.443703 13.907L0.774788 14.2817L2.09913 15.7804L2.43021 16.1551L3.17957 15.4929Z" fill="white"/>
</svg>
