<svg width="102" height="78" viewBox="0 0 102 78" fill="none" xmlns="http://www.w3.org/2000/svg">
<path fill-rule="evenodd" clip-rule="evenodd" d="M79.0686 9.51252L80.0538 8.43398L83.0072 11.1317L85.7546 1.45178L76.3622 5.06179L79.3155 7.75955L78.3303 8.83808L77.9931 9.20725L78.7314 9.88169L79.0686 9.51252ZM75.2953 12.1606L74.9581 12.5297L73.6092 14.0064L73.272 14.3756L74.0104 15.05L74.3476 14.6808L75.6965 13.2042L76.0337 12.835L75.2953 12.1606ZM70.2371 17.6981L70.5743 17.3289L71.3126 18.0033L70.9754 18.3725L69.6265 19.8492L69.2893 20.2183L68.551 19.5439L68.8882 19.1747L70.2371 17.6981ZM65.8532 22.4972L65.516 22.8664L64.1671 24.3431L63.8299 24.7122L64.5682 25.3867L64.9055 25.0175L66.2543 23.5408L66.5915 23.1717L65.8532 22.4972ZM60.7949 28.0347L61.1322 27.6655L61.8705 28.34L61.5333 28.7092L60.1844 30.1858L59.8472 30.555L59.1088 29.8805L59.4461 29.5114L60.7949 28.0347ZM56.4111 32.8339L56.0739 33.203L54.725 34.6797L54.3878 35.0489L55.1261 35.7233L55.4633 35.3541L56.8122 33.8775L57.1494 33.5083L56.4111 32.8339ZM51.3528 38.3714L51.69 38.0022L52.4284 38.6766L52.0911 39.0458L50.7423 40.5225L50.405 40.8916L49.6667 40.2172L50.0039 39.848L51.3528 38.3714ZM46.969 43.1705L46.6317 43.5397L45.2829 45.0163L44.9457 45.3855L45.684 46.06L46.0212 45.6908L47.3701 44.2141L47.7073 43.845L46.969 43.1705ZM41.9107 48.708L42.2479 48.3388L42.9862 49.0133L42.649 49.3824L41.3001 50.8591L40.9629 51.2283L40.2246 50.5538L40.5618 50.1847L41.9107 48.708ZM37.5268 53.5072L37.1896 53.8763L35.8407 55.353L35.5035 55.7222L36.2419 56.3966L36.5791 56.0274L37.928 54.5508L38.2652 54.1816L37.5268 53.5072ZM32.4686 59.0447L32.8058 58.6755L33.5441 59.3499L33.2069 59.7191L31.858 61.1958L31.5208 61.5649L30.7825 60.8905L31.1197 60.5213L32.4686 59.0447ZM28.0847 63.8438L27.7475 64.213L26.3986 65.6896L26.0614 66.0588L26.7997 66.7332L27.137 66.3641L28.4858 64.8874L28.823 64.5182L28.0847 63.8438ZM23.0264 69.3813L23.3637 69.0121L24.102 69.6866L23.7648 70.0557L22.4159 71.5324L22.0787 71.9016L21.3403 71.2271L21.6776 70.858L23.0264 69.3813ZM18.6426 74.1805L18.3054 74.5496L16.9565 76.0263L16.6193 76.3955L17.3576 77.0699L17.6948 76.7007L19.0437 75.2241L19.3809 74.8549L18.6426 74.1805Z" fill="white"/>
</svg>
