<svg width="194" height="169" viewBox="0 0 194 169" fill="none" xmlns="http://www.w3.org/2000/svg">
<path fill-rule="evenodd" clip-rule="evenodd" d="M184.563 84.9975L183.063 84.9975L182.563 84.9975L182.563 83.9975L183.063 83.9975L184.563 83.9975L184.563 79.9975L193.563 84.4975L184.563 88.9975L184.563 84.9975ZM178.063 83.9975L178.563 83.9975L178.563 84.9975L178.063 84.9975L176.063 84.9975L175.563 84.9975L175.563 83.9975L176.063 83.9975L178.063 83.9975ZM171.563 83.9975L171.063 83.9975L169.063 83.9975L168.563 83.9975L168.563 84.9975L169.063 84.9975L171.063 84.9975L171.563 84.9975L171.563 83.9975ZM164.063 83.9975L164.563 83.9975L164.563 84.9975L164.063 84.9975L162.063 84.9975L161.563 84.9975L161.563 83.9975L162.063 83.9975L164.063 83.9975ZM157.563 83.9975L157.063 83.9975L155.063 83.9975L154.563 83.9975L154.563 84.9975L155.063 84.9975L157.063 84.9975L157.563 84.9975L157.563 83.9975ZM150.063 83.9975L150.563 83.9975L150.563 84.9975L150.063 84.9975L148.063 84.9975L147.563 84.9975L147.563 83.9975L148.063 83.9975L150.063 83.9975ZM143.563 83.9975L143.063 83.9975L141.063 83.9975L140.563 83.9975L140.563 84.9975L141.063 84.9975L143.063 84.9975L143.563 84.9975L143.563 83.9975ZM136.063 83.9975L136.563 83.9975L136.563 84.9975L136.063 84.9975L134.063 84.9975L133.563 84.9975L133.563 83.9975L134.063 83.9975L136.063 83.9975ZM129.563 83.9975L129.063 83.9975L127.063 83.9975L126.563 83.9975L126.563 84.9975L127.063 84.9975L129.063 84.9975L129.563 84.9975L129.563 83.9975ZM122.063 83.9975L122.563 83.9975L122.563 84.9975L122.063 84.9975L120.063 84.9975L119.563 84.9975L119.563 83.9975L120.063 83.9975L122.063 83.9975ZM115.563 83.9975L115.063 83.9975L113.063 83.9975L112.563 83.9975L112.563 84.9975L113.063 84.9975L115.063 84.9975L115.563 84.9975L115.563 83.9975ZM108.063 83.9975L108.563 83.9975L108.563 84.9975L108.063 84.9975L106.063 84.9975L105.563 84.9975L105.563 83.9975L106.063 83.9975L108.063 83.9975ZM101.563 83.9975L101.063 83.9975L99.0632 83.9975L98.5632 83.9975L98.5632 84.9975L99.0632 84.9975L101.063 84.9975L101.563 84.9975L101.563 83.9975ZM94.0632 83.9975L94.5632 83.9975L94.5632 84.9975L94.0632 84.9975L92.0632 84.9975L91.5632 84.9975L91.5632 83.9975L92.0632 83.9975L94.0632 83.9975ZM87.5632 83.9975L87.0632 83.9975L85.0632 83.9975L84.5632 83.9975L84.5632 84.9975L85.0632 84.9975L87.0632 84.9975L87.5632 84.9975L87.5632 83.9975ZM80.0632 83.9975L80.5632 83.9975L80.5632 84.9975L80.0632 84.9975L78.0632 84.9975L77.5632 84.9975L77.5632 83.9975L78.0632 83.9975L80.0632 83.9975ZM73.5632 83.9975L73.0632 83.9975L71.0632 83.9975L70.5632 83.9975L70.5632 84.9975L71.0632 84.9975L73.0632 84.9975L73.5632 84.9975L73.5632 83.9975ZM66.0632 83.9975L66.5632 83.9975L66.5632 84.9975L66.0632 84.9975L64.0632 84.9975L63.5632 84.9975L63.5632 83.9975L64.0632 83.9975L66.0632 83.9975ZM59.5632 83.9975L59.0632 83.9975L57.0632 83.9975L56.5632 83.9975L56.5632 84.9975L57.0632 84.9975L59.0632 84.9975L59.5632 84.9975L59.5632 83.9975ZM52.0632 83.9975L52.5632 83.9975L52.5632 84.9975L52.0632 84.9975L50.0632 84.9975L49.5632 84.9975L49.5632 83.9975L50.0632 83.9975L52.0632 83.9975ZM45.5632 83.9975L45.0632 83.9975L43.0632 83.9975L42.5632 83.9975L42.5632 84.9975L43.0632 84.9975L45.0632 84.9975L45.5632 84.9975L45.5632 83.9975ZM38.0632 83.9975L38.5632 83.9975L38.5632 84.9975L38.0632 84.9975L36.0632 84.9975L35.5632 84.9975L35.5632 83.9975L36.0632 83.9975L38.0632 83.9975ZM31.5632 83.9975L31.0632 83.9975L29.0632 83.9975L28.5632 83.9975L28.5632 84.9975L29.0632 84.9975L31.0632 84.9975L31.5632 84.9975L31.5632 83.9975ZM24.0632 83.9975L24.5632 83.9975L24.5632 84.9975L24.0632 84.9975L22.0632 84.9975L21.5632 84.9975L21.5632 83.9975L22.0632 83.9975L24.0632 83.9975ZM17.5632 83.9975L17.0632 83.9975L15.0632 83.9975L14.5632 83.9975L14.5632 84.9975L15.0632 84.9975L17.0632 84.9975L17.5632 84.9975L17.5632 83.9975ZM10.0632 83.9975L10.5632 83.9975L10.5632 84.9975L10.0632 84.9975L8.06318 84.9975L7.56318 84.9975L7.56318 83.9975L8.06318 83.9975L10.0632 83.9975ZM3.56319 83.9975L3.06318 83.9975L1.06318 83.9975L0.563179 83.9975L0.563179 84.9975L1.06318 84.9975L3.06318 84.9975L3.56319 84.9975L3.56319 83.9975Z" fill="white"/>
</svg>
