<?xml version="1.0" standalone="no"?><!DOCTYPE svg PUBLIC "-//W3C//DTD SVG 1.1//EN" "http://www.w3.org/Graphics/SVG/1.1/DTD/svg11.dtd"><svg class="icon" height="512" viewBox="0 0 1024 1024" version="1.1" xmlns="http://www.w3.org/2000/svg"><path d="M512 0C229.2224 0 0 229.2224 0 512c0 282.752 229.2224 512 512 512 282.752 0 512-229.248 512-512C1024 229.2224 794.752 0 512 0z m282.1376 369.6384L475.9808 697.728l-14.464 14.464c-11.9808 12.032-31.4624 12.032-43.4432 0l-188.2624-188.2624a30.72 30.72 0 0 1 0-43.4432l14.4896-14.4384a30.72 30.72 0 0 1 43.4432 0l147.0976 147.0976 301.3888-301.3888a30.6688 30.6688 0 0 1 43.4176 0l14.4384 14.464c12.0576 12.0064 12.0576 31.4368 0.0512 43.4176z" fill="#FFCE09" /></svg>