<?xml version="1.0" standalone="no"?>
<!DOCTYPE svg PUBLIC "-//W3C//DTD SVG 20010904//EN"
 "http://www.w3.org/TR/2001/REC-SVG-20010904/DTD/svg10.dtd">
<svg version="1.0" xmlns="http://www.w3.org/2000/svg"
 width="1280.000000pt" height="457.000000pt" viewBox="0 0 1280.000000 457.000000"
 preserveAspectRatio="xMidYMid meet">
<metadata>
Created by potrace 1.15, written by Peter Selinger 2001-2017
</metadata>
<g transform="translate(0.000000,457.000000) scale(0.100000,-0.100000)"
fill="#000000" stroke="none">
<path d="M953 3811 c-248 -118 -473 -395 -558 -687 -68 -232 -31 -410 114
-555 106 -106 236 -153 263 -95 9 21 6 33 -16 73 -79 142 -96 206 -96 352 0
166 38 317 118 477 61 121 182 265 195 232 9 -22 -4 -1807 -13 -1943 -6 -83
-19 -166 -36 -230 -34 -127 -41 -185 -23 -196 34 -22 131 24 212 99 63 60 109
138 146 248 54 162 55 187 56 1205 0 923 0 937 -20 959 -41 45 -160 90 -240
90 -24 0 -65 -12 -102 -29z"/>
<path d="M4314 3830 c-12 -4 -25 -17 -29 -27 -4 -10 -12 -114 -18 -232 l-10
-214 -163 6 c-157 5 -162 5 -182 -16 -23 -25 -52 -115 -52 -162 0 -64 8 -67
203 -73 l177 -5 0 -366 c0 -293 -3 -379 -15 -426 -23 -93 -107 -252 -167 -319
l-53 -60 -5 90 c-9 168 -71 253 -320 438 -80 60 -151 115 -159 122 -12 11 -8
22 28 73 70 101 105 186 109 267 4 67 2 73 -24 103 -22 24 -42 34 -84 41 -188
34 -375 -119 -388 -317 -6 -85 2 -120 42 -186 l34 -56 -75 -138 c-156 -286
-282 -485 -331 -523 -36 -29 -66 -26 -81 8 -23 48 -29 249 -18 622 6 201 7
378 4 393 -15 57 -163 158 -254 173 -99 16 -213 -46 -303 -163 -66 -88 -155
-269 -225 -458 l-55 -150 1 335 c0 184 0 343 0 353 -2 31 -152 87 -233 87 -72
0 -69 35 -66 -726 3 -672 3 -679 25 -726 13 -30 33 -52 52 -63 45 -23 147 -30
196 -13 l39 13 21 130 c56 338 200 740 343 953 65 98 123 166 131 155 4 -4 1
-141 -6 -303 -32 -692 6 -907 170 -951 90 -24 195 20 303 126 92 92 137 156
331 478 l162 269 129 -128 c156 -156 187 -208 187 -319 0 -58 -5 -78 -27 -116
-27 -46 -75 -79 -116 -79 -36 0 -87 23 -159 71 -39 26 -83 51 -97 55 -28 7
-68 -13 -99 -50 -30 -34 -67 -119 -67 -152 0 -85 198 -164 415 -164 291 0 502
143 664 449 l48 92 13 -78 c35 -222 119 -367 247 -429 78 -38 178 -39 248 -2
87 46 188 165 244 290 l28 60 22 -64 c101 -278 330 -385 578 -268 72 33 155
107 209 186 l38 55 11 -44 c37 -144 163 -242 311 -240 122 1 205 53 284 177
33 51 39 56 45 37 3 -11 24 -43 46 -71 86 -109 220 -163 352 -142 103 16 199
67 274 145 l62 64 7 -55 7 -55 -54 -50 c-219 -203 -412 -394 -462 -457 -33
-41 -76 -109 -96 -150 -34 -71 -36 -81 -36 -175 0 -123 19 -179 84 -248 129
-138 378 -169 551 -69 99 57 181 153 224 263 66 167 86 323 86 672 l0 268 71
87 c168 207 361 543 459 798 l43 111 66 7 c89 8 159 8 164 -1 2 -5 -6 -59 -19
-121 -86 -425 -43 -764 117 -924 166 -166 396 -145 524 48 l37 55 30 -46 c168
-253 532 -219 720 69 21 33 38 52 38 43 0 -9 9 -41 20 -71 79 -209 357 -282
503 -131 21 21 50 60 66 87 l28 50 6 -79 c5 -63 10 -81 27 -95 36 -29 100 -43
199 -42 89 1 96 3 117 27 20 23 22 40 28 199 9 234 29 379 71 526 53 185 131
370 161 379 7 2 13 -51 17 -169 11 -289 47 -600 82 -699 34 -96 105 -148 201
-149 67 0 109 15 123 46 6 14 11 59 11 101 0 210 92 597 197 831 l28 63 0
-278 c1 -374 23 -541 91 -675 74 -146 226 -228 366 -199 133 28 221 151 264
369 23 120 14 184 -28 197 -48 16 -66 -8 -98 -134 -40 -158 -81 -221 -144
-221 -46 0 -89 50 -115 135 -36 115 -44 260 -37 656 l6 365 -22 35 c-29 42
-150 105 -234 121 -49 9 -65 8 -97 -5 -33 -14 -43 -27 -72 -90 -69 -150 -158
-434 -200 -641 l-22 -109 -7 94 c-4 52 -11 205 -16 340 -10 273 -14 294 -74
346 -46 41 -161 78 -218 70 -81 -11 -117 -75 -228 -400 l-69 -202 0 263 c-1
306 4 290 -111 316 -126 29 -153 30 -179 9 l-23 -19 -7 -489 -8 -490 -30 -82
c-76 -207 -176 -290 -251 -210 -67 71 -76 171 -69 739 l6 467 -27 19 c-69 49
-242 70 -275 34 -10 -10 -17 -33 -17 -52 l0 -33 -53 50 c-96 91 -204 126 -322
103 -79 -16 -127 -42 -192 -103 -104 -98 -183 -256 -223 -442 -28 -132 -37
-394 -18 -517 13 -83 13 -91 -7 -146 -28 -77 -56 -116 -100 -136 -64 -31 -118
-1 -163 89 -38 78 -47 142 -47 335 1 178 3 192 40 365 50 224 53 319 15 360
-59 63 -114 68 -315 30 -71 -14 -141 -27 -155 -29 -25 -5 -25 -4 -22 67 3 83
-8 111 -57 144 -38 26 -127 32 -178 12 -77 -29 -134 -120 -141 -225 -5 -79 8
-115 61 -171 l30 -32 -22 -78 c-49 -168 -144 -378 -246 -542 -96 -154 -87
-195 -80 386 l6 511 -27 21 c-38 30 -117 51 -189 51 -78 0 -105 -17 -105 -68
l0 -36 -52 51 c-76 75 -150 106 -252 106 -119 0 -182 -27 -272 -117 -58 -58
-81 -90 -122 -176 -58 -118 -97 -252 -112 -385 -12 -107 -12 -319 -1 -390 19
-112 -83 -295 -164 -295 -63 0 -109 68 -132 194 -16 91 -20 463 -8 823 l8 212
-27 24 c-54 50 -236 78 -276 42 -11 -10 -22 -30 -25 -47 l-7 -29 -47 45 c-61
56 -111 81 -189 96 -165 30 -320 -56 -428 -237 -87 -145 -125 -289 -148 -565
-12 -144 -17 -172 -46 -242 -62 -148 -164 -266 -229 -266 -54 0 -101 82 -122
214 -12 79 -8 704 7 999 l7 127 182 0 c236 0 242 1 267 57 26 60 29 130 5 148
-17 12 -76 18 -325 31 l-123 7 7 198 c5 158 4 202 -6 214 -18 22 -71 43 -165
66 -87 21 -109 22 -141 9z m1343 -1021 c67 -25 123 -119 143 -242 17 -95 7
-397 -15 -497 -36 -164 -110 -286 -198 -331 -109 -56 -205 48 -243 263 -31
177 -8 476 47 624 56 149 163 222 266 183z m1460 -6 c101 -47 149 -263 124
-546 -26 -277 -103 -462 -217 -517 -61 -30 -107 -21 -155 30 -159 167 -137
773 35 977 33 39 101 73 144 73 19 0 50 -8 69 -17z m2487 3 c111 -47 168 -264
145 -562 -20 -272 -116 -478 -238 -515 -163 -49 -265 219 -232 608 7 79 21
177 31 217 52 205 169 304 294 252z m-2334 -1792 c-28 -313 -107 -454 -252
-454 -60 0 -108 28 -135 80 -70 132 29 343 291 617 l101 106 3 -114 c2 -63 -2
-168 -8 -235z"/>
</g>
</svg>
