<?xml version="1.0" encoding="UTF-8"?>
<svg width="161px" height="65px" viewBox="0 0 161 65" version="1.1" xmlns="http://www.w3.org/2000/svg" xmlns:xlink="http://www.w3.org/1999/xlink">
    <!-- Generator: Sketch 53.2 (72643) - https://sketchapp.com -->
    <title>Logo / SSG White</title>
    <desc>Created with Sketch.</desc>
    <defs>
        <linearGradient x1="47.2686256%" y1="14.067524%" x2="52.7313744%" y2="85.9320814%" id="linearGradient-1">
            <stop stop-color="#FFFFFF" offset="0%"></stop>
            <stop stop-color="#FFFFFE" stop-opacity="0" offset="100%"></stop>
        </linearGradient>
        <linearGradient x1="53.716156%" y1="5.43691478%" x2="46.283844%" y2="94.5630852%" id="linearGradient-2">
            <stop stop-color="#FFFFFF" offset="0%"></stop>
            <stop stop-color="#FFFFFF" offset="100%"></stop>
        </linearGradient>
    </defs>
    <g id="SSG" stroke="none" stroke-width="1" fill="none" fill-rule="evenodd">
        <g id="SSG-Main" transform="translate(-89.000000, -39.000000)">
            <g id="Logo-/-SSG-White" transform="translate(89.000000, 39.000000)">
                <g id="лого" transform="translate(0.432796, 0.437220)">
                    <path d="M93.9306604,25.9084753 L93.9306604,23.4473655 C93.9306604,14.3550897 88.893207,8.95440583 79.6134901,8.95440583 C69.7372366,8.95440583 64.6996389,14.3550897 64.6996389,25.9084753 L64.6996389,43.8878251 C64.6996389,52.6381951 67.5498871,60.363139 79.4809104,60.363139 C90.815397,60.363139 93.9306604,52.7065471 93.9306604,43.7511211 L93.9306604,41.6317713 L84.8498853,41.6317713 L84.8498853,44.2979372 C84.8498853,50.6556951 83.0602751,52.8432511 79.4146927,52.8432511 C75.5701685,52.8432511 73.9793557,50.7240471 73.9793557,44.2979372 L73.9793557,24.8145516 C73.9793557,18.5936435 75.6365305,16.4742937 79.4809104,16.4742937 C83.3252903,16.4742937 84.8498853,18.5936435 84.8498853,24.8145516 L84.8498853,25.9084753 L93.9306604,25.9084753 Z M129.127194,25.9084753 L129.127194,23.4473655 C129.127194,14.3550897 124.089596,8.95440583 114.810023,8.95440583 C104.93377,8.95440583 99.896172,14.3550897 99.896172,25.9084753 L99.896172,43.8878251 C99.896172,52.6381951 102.74642,60.363139 114.677299,60.363139 C126.01193,60.363139 129.127194,52.7065471 129.127194,43.7511211 L129.127194,41.6317713 L120.046418,41.6317713 L120.046418,44.2979372 C120.046418,50.6556951 118.256664,52.8432511 114.611082,52.8432511 C110.766702,52.8432511 109.175889,50.7240471 109.175889,44.2979372 L109.175889,24.8145516 C109.175889,18.5936435 110.832919,16.4742937 114.677299,16.4742937 C118.521823,16.4742937 120.046418,18.5936435 120.046418,24.8145516 L120.046418,25.9084753 L129.127194,25.9084753 Z M135.424082,9.8431278 L135.424082,59.201009 L144.504858,59.201009 L144.504858,17.3630157 L160.545565,17.3630157 L160.545565,9.8431278 L135.424082,9.8431278 L135.424082,9.8431278 Z" id="Fill-1" fill="#FFFFFF"></path>
                    <path d="M8.76788345,43.5516351 C9.00974137,44.2850705 9.29175136,44.9999995 9.61109409,45.6938341 C11.9484794,52.0568386 17.584922,56.4696973 26.0830099,57.3713901 C34.6784767,57.5481726 39.6400466,55.4973206 44.2946201,48.8201009 C45.5303229,47.0572647 46.4235117,45.3537859 47.0180402,43.5495946 L50.9528793,51.5059347 L50.6671039,52.0059753 L47.4635502,51.338778 C47.165931,51.7577803 46.8556165,52.1667265 46.5328952,52.5651794 L47.9996398,55.5177242 L46.0830762,57.4540247 L43.167043,55.975639 C42.7713235,56.3044283 42.3646398,56.6199552 41.9485789,56.9232399 L42.6067168,60.1487556 L40.2593772,61.5178363 L37.8337016,59.3384417 C37.3641183,59.5544283 36.885879,59.7545291 36.4007151,59.9403475 L36.2111505,63.2117713 L33.5930251,63.9205045 L31.8130806,61.1884641 C31.3028145,61.273722 30.7876434,61.3439686 30.2672787,61.396435 L29.2486219,64.4982175 L26.5383109,64.4982175 L25.5222509,61.4045964 C24.9981353,61.3540247 24.479069,61.2861099 23.965052,61.2020179 L22.1939077,63.9205045 L19.5757823,63.2117713 L19.3882375,59.9759081 C18.8918208,59.7880493 18.4026174,59.5854709 17.9223584,59.366278 L15.5275556,61.5178363 L13.1802159,60.1487556 L13.8266685,56.9810987 C13.3950269,56.6690695 12.9740609,56.3431951 12.5643477,56.0039126 L9.70385663,57.4540247 L7.78729301,55.5177242 L9.21941398,52.634843 C8.88067921,52.2197758 8.5562267,51.7926121 8.24490233,51.3551009 L5.11982885,52.0059753 L4.8340535,51.5059347 L8.76788345,43.5516351 Z M8.59059426,42.9864951 L4.58919031,51.0774809 L3.76460125,49.6346413 L5.87851971,47.2334305 C5.65692832,46.7419955 5.45207168,46.2412332 5.2623629,45.7328924 L5.20035234,45.7292228 C6.05570725,43.9388588 6.97903294,42.0063912 7.94001274,39.9951465 C8.08317949,41.0187921 8.30212494,42.017822 8.59059426,42.9864951 Z M7.84854734,39.2386562 C6.76072083,41.5153489 5.71681682,43.7001407 4.75986252,45.7031562 L2.08780645,45.5450336 L1.38624462,42.9001457 L4.04332168,41.1336323 C3.95661828,40.6022646 3.88636111,40.0656502 3.83428136,39.5234978 L0.81437724,38.5113341 L0.81437724,35.7731726 L3.83428136,34.7613004 C3.88636111,34.219148 3.95661828,33.6823879 4.04332168,33.1511659 L1.38624462,31.3845067 L2.08780645,28.7396188 L5.2623629,28.5519058 C5.45207168,28.043565 5.65692832,27.5428027 5.87851971,27.051222 L3.76460125,24.6500112 L5.11982885,22.2788229 L8.24490233,22.9295516 C8.5562267,22.4921861 8.88067921,22.0648767 9.21941398,21.6498094 L7.78729301,18.7669283 L9.70385663,16.8307735 L12.5643477,18.2808857 C12.9740609,17.9416031 13.3950269,17.615583 13.8266685,17.3036996 L13.1802159,14.1358969 L15.5275556,12.7669619 L17.9223584,14.9183744 C18.4026174,14.6991816 18.8918208,14.4967489 19.3882375,14.3088901 L19.5757823,11.0728812 L21.5538354,10.5374172 C20.4969205,12.756592 18.9008386,16.1012598 17.0424081,19.9932639 C14.872665,21.4094563 12.9627331,23.2561032 11.4284032,25.4272422 C8.98094355,28.8906054 7.74213799,32.8497758 7.74213799,37.1423991 C7.74213799,37.8503029 7.77822229,38.5496194 7.84854727,39.2386564 Z M17.6884442,19.5889527 C19.5223356,15.7483134 21.0773059,12.4897494 22.074099,10.3965805 L22.1939077,10.364148 L23.965052,13.0827803 C24.479069,12.9986883 24.9981353,12.9307735 25.5222509,12.8800561 L26.021277,11.3606599 C26.4632964,11.5181472 26.9290666,11.6247674 27.4116984,11.6735606 L27.6613764,12.1393346 L25.0471794,17.0162097 C22.4206186,17.3523897 19.928057,18.2462551 17.6884442,19.5889527 Z M25.5416022,16.9596975 L27.8934664,12.5722982 L30.2696314,17.0050307 C28.9122766,16.8432898 27.5135995,16.8118084 26.0830099,16.9132623 C25.9019793,16.9261024 25.7214975,16.9415922 25.5416022,16.9596975 Z M30.768946,17.0706696 L28.1255564,12.1393346 L28.3643454,11.693874 C28.8578474,11.6653001 29.3353647,11.5764222 29.7897871,11.4344235 L30.2672787,12.888509 C30.7876434,12.9408296 31.3028145,13.0110762 31.8130806,13.0963341 L33.5930251,10.364148 L33.71279,10.3965686 C34.7185448,12.5086976 36.2940911,15.810675 38.1514672,19.7008423 C35.9026115,18.3352207 33.4179183,17.4517137 30.768946,17.0706696 Z M38.8015258,20.1133943 C36.9181137,16.1687678 35.2999083,12.7774963 34.2330822,10.5374131 L36.2111505,11.0728812 L36.4007151,14.3443049 C36.885879,14.5302691 37.3641183,14.73037 37.8337016,14.9462108 L40.2593772,12.7669619 L42.6067168,14.1358969 L41.9485789,17.3615583 C42.3646398,17.6646973 42.7713235,17.9802242 43.167043,18.3090135 L46.0830762,16.8307735 L47.9996398,18.7669283 L46.5328952,21.7194731 C46.8556165,22.117926 47.165931,22.5270179 47.4635502,22.9458744 L50.6671039,22.2788229 L52.0223315,24.6500112 L49.8489758,27.1186996 C50.0583047,27.5866704 50.2519086,28.0632399 50.4322401,28.5465135 L53.6991263,28.7396188 L54.4006882,31.3845067 L51.6622455,33.2053812 C51.7431783,33.7086211 51.8096846,34.2168161 51.8596004,34.7301121 L54.9725556,35.7731726 L54.9725556,38.5113341 L51.8596004,39.5546861 C51.8096846,40.0678363 51.7431783,40.5760314 51.6622455,41.079417 L54.4006882,42.9001457 L53.6991263,45.5450336 L51.0258845,45.703168 C50.2289128,44.0349917 49.3713952,42.240203 48.4781676,40.3706839 C48.2807374,39.9574614 48.0815596,39.5405814 47.8809037,39.1206071 C47.9303918,38.4842883 47.9544848,37.82647 47.9544848,37.1423991 C47.9544848,32.5103475 46.17656,28.0808744 44.2946201,25.4646973 C42.7161172,23.2703856 40.8654513,21.4810348 38.8015258,20.1133943 Z M47.8051415,39.910224 C48.7808407,41.9523537 49.7181355,43.9140914 50.5853374,45.7292284 L50.4322401,45.7382848 C50.2519086,46.2214126 50.0583047,46.6981278 49.8489758,47.1660987 L52.0223315,49.6346413 L51.1977425,51.0774809 L47.1942019,42.9821748 C47.4805152,42.0003758 47.6818929,40.9846735 47.8051415,39.910224 Z M26.1887556,10.850734 L26.5218222,9.83663871 L27.3932102,10.2293537 L27.1869274,10.3223206 C26.9813495,10.4150112 26.889164,10.6585426 26.9809167,10.866222 C26.9849561,10.8755493 26.9894283,10.8845852 26.9940448,10.8933296 L26.993612,10.8936211 L27.0985801,11.0894389 C26.7854454,11.0359683 26.4813667,10.9555878 26.1887556,10.850734 Z M27.4109372,9.78643498 L28.3759956,9.78643498 L27.8934664,10.0038998 L27.4109372,9.78643498 Z M29.2651081,9.83663985 L29.6223281,10.9244672 C29.3147881,11.0198894 28.9956874,11.0886308 28.6676723,11.1280182 L28.7933208,10.8936211 L28.792888,10.8933296 C28.7975045,10.8845852 28.8019767,10.8755493 28.8060161,10.866222 C28.8977688,10.6585426 28.8055833,10.4150112 28.6000054,10.3223206 L28.3937226,10.2293537 L29.2651081,9.83663985 Z M27.5956647,11.1508034 L27.353121,10.6983296 L27.8934664,10.454808 L28.4338118,10.6983296 L28.1840228,11.1643196 C28.1281804,11.1660247 28.0721272,11.1668834 28.0158754,11.1668834 C27.8744865,11.1668834 27.734352,11.1614585 27.5956647,11.1508034 Z M27.89148,11.7026571 C27.89279,11.702684 27.8941,11.7027105 27.8954101,11.7027366 L27.8934664,11.7063627 L27.89148,11.7026571 Z" id="Combined-Shape" fill="#FFFFFF"></path>
                    <path d="M53.1494758,55.0239574 C54.4312724,55.3418161 54.3676514,55.3348206 55.4170367,56.828509 L55.7510108,56.5497085 C55.3499534,55.6880942 34.8298109,12.773083 32.7092563,8.28443946 L27.353121,10.6983296 L34.8127876,24.6145964 C36.2362527,25.0114462 37.0478889,25.328139 37.6491864,25.8076233 C39.2358154,27.073083 40.5532455,29.5540135 41.4373029,31.3415135 L53.1494758,55.0239574" id="Fill-5" fill="#FFFFFF"></path>
                    <path d="M2.63745699,55.0239574 C1.35566039,55.3418161 1.41928136,55.3348206 0.369896057,56.828509 L0.0357777778,56.5497085 C0.746139785,55.0353251 20.9571219,12.773083 23.0776765,8.28443946 L28.4338118,10.6983296 L20.9741452,24.6145964 C19.5506801,25.0114462 18.7390439,25.328139 18.1377464,25.8076233 C16.5511174,27.073083 15.2336873,29.5540135 14.3496299,31.3415135 L2.63745699,55.0239574" id="Fill-7" fill="#FFFFFF"></path>
                    <path d="M28.0158754,0.127085202 C31.0336156,0.127085202 33.4799211,2.59839686 33.4799211,5.6469843 C33.4799211,8.69557175 31.0336156,11.1668834 28.0158754,11.1668834 C24.9981353,11.1668834 22.5518297,8.69557175 22.5518297,5.6469843 C22.5518297,2.59839686 24.9981353,0.127085202 28.0158754,0.127085202 Z M28.0158754,1.77963004 C30.1302267,1.77963004 31.8440977,3.51116592 31.8440977,5.6469843 C31.8440977,7.78294843 30.1302267,9.51433857 28.0158754,9.51433857 C25.9016685,9.51433857 24.1876532,7.78294843 24.1876532,5.6469843 C24.1876532,3.51116592 25.9016685,1.77963004 28.0158754,1.77963004 L28.0158754,1.77963004 Z" id="Fill-9" fill="#FFFFFF"></path>
                    <g id="Group-13" transform="translate(23.370968, 19.091928)" fill="url(#linearGradient-1)">
                        <path d="M4.63062545,0.121547085 C6.74050448,6.27745516 8.90448297,12.0749888 8.90448297,18.5895628 C8.90448297,25.1042825 6.74050448,30.9018161 4.63062545,37.05787 C2.52074642,30.9018161 0.140514337,25.1042825 0.140514337,18.5895628 C0.140514337,12.0749888 2.52074642,6.27745516 4.63062545,0.121547085 Z M4.57551613,18.0504709 C5.60874373,21.0653924 6.66866039,23.9046973 6.66866039,27.0953812 C6.66866039,30.2859193 5.60874373,33.12537 4.57551613,36.1402915 C3.54214427,33.12537 2.37633692,30.2859193 2.37633692,27.0953812 C2.37633692,23.9046973 3.54214427,21.0653924 4.57551613,18.0504709 L4.57551613,18.0504709 Z" id="Fill-11"></path>
                    </g>
                    <g id="Group-16" transform="translate(24.669355, 29.876682)" fill="url(#linearGradient-2)">
                        <path d="M3.3009328,0.0464910314 C4.79898297,4.41752242 6.33555197,8.53409193 6.33555197,13.1597309 C6.33555197,17.78537 4.79898297,21.9019395 3.3009328,26.2731166 C1.80288262,21.9019395 0.112671147,17.78537 0.112671147,13.1597309 C0.112671147,8.53409193 1.80273835,4.41752242 3.3009328,0.0464910314 Z M3.27712903,7.26571749 C4.31035663,10.280639 5.3702733,13.1199439 5.3702733,16.3106278 C5.3702733,19.5011659 4.31035663,22.3406166 3.27712903,25.3555381 C2.24375717,22.3406166 1.07794982,19.5011659 1.07794982,16.3106278 C1.07794982,13.1199439 2.24375717,10.280639 3.27712903,7.26571749 L3.27712903,7.26571749 Z" id="Fill-14"></path>
                    </g>
                </g>
            </g>
        </g>
    </g>
</svg>