<svg width="62" height="54" viewBox="0 0 62 54" fill="none" xmlns="http://www.w3.org/2000/svg">
<path d="M61.3303 27L56.411 30.0221L56.2534 24.2508L61.3303 27ZM0.995255 27.8826L0.495277 27.8779L0.504848 26.8779L1.00482 26.8827L0.995255 27.8826ZM1.94743 26.8908L2.44741 26.8949L2.43925 27.8949L1.93927 27.8908L1.94743 26.8908ZM6.7098 27.923L6.20981 27.9202L6.21535 26.9202L6.71535 26.923L6.7098 27.923ZM8.62121 26.9327L9.12121 26.9351L9.1165 27.9351L8.6165 27.9327L8.62121 26.9327ZM13.3866 27.9504L12.8866 27.9491L12.8893 26.9491L13.3893 26.9504L13.3866 27.9504ZM15.2931 26.9549L15.7931 26.9559L15.7912 27.9559L15.2912 27.9549L15.2931 26.9549ZM20.0601 27.9594L19.5601 27.9594L19.5601 26.9594L20.0601 26.9594L20.0601 27.9594ZM21.967 26.9584L22.467 26.958L22.4679 27.958L21.9679 27.9584L21.967 26.9584ZM26.7343 27.9489L26.2343 27.9505L26.2311 26.9505L26.7311 26.9489L26.7343 27.9489ZM28.6366 26.9421L29.1366 26.94L29.1407 27.94L28.6407 27.9421L28.6366 26.9421ZM33.4086 27.9167L32.9086 27.92L32.902 26.92L33.402 26.9167L33.4086 27.9167ZM35.3247 26.903L35.8247 26.8991L35.8324 27.8991L35.3324 27.9029L35.3247 26.903ZM40.1492 27.8604L39.6492 27.8654L39.6392 26.8655L40.1391 26.8605L40.1492 27.8604ZM42.0626 26.8402L42.5626 26.8346L42.5737 27.8346L42.0737 27.8401L42.0626 26.8402ZM46.8938 27.7802L46.3939 27.7871L46.38 26.7872L46.88 26.7803L46.8938 27.7802ZM48.8077 26.7525L49.3076 26.745L49.3227 27.7449L48.8227 27.7524L48.8077 26.7525ZM53.6377 27.6721L53.1378 27.6814L53.1194 26.6815L53.6193 26.6723L53.6377 27.6721ZM55.548 26.6352L56.0479 26.6252L56.068 27.625L55.5681 27.635L55.548 26.6352ZM60.3829 27.526L59.8831 27.539L59.8571 26.5393L60.3569 26.5264L60.3829 27.526ZM1.00004 27.3827C1.00482 26.8827 1.00483 26.8827 1.00483 26.8827C1.00483 26.8827 1.00483 26.8827 1.00484 26.8827C1.00484 26.8827 1.00486 26.8827 1.00488 26.8827C1.00492 26.8827 1.00498 26.8827 1.00505 26.8827C1.00521 26.8827 1.00545 26.8827 1.00576 26.8827C1.0064 26.8827 1.00735 26.8827 1.00862 26.8827C1.01117 26.8827 1.01499 26.8828 1.02006 26.8828C1.03023 26.8829 1.04544 26.8831 1.06562 26.8833C1.10598 26.8836 1.16622 26.8842 1.24566 26.8849C1.40454 26.8863 1.64025 26.8883 1.94743 26.8908L1.93927 27.8908C1.63184 27.8883 1.39589 27.8863 1.23677 27.8848C1.15721 27.8841 1.09686 27.8836 1.05638 27.8832C1.03614 27.883 1.02088 27.8829 1.01066 27.8828C1.00555 27.8827 1.00171 27.8827 0.999136 27.8827C0.997849 27.8827 0.996884 27.8827 0.996236 27.8827C0.995912 27.8826 0.995667 27.8826 0.995505 27.8826C0.995422 27.8826 0.99536 27.8826 0.995317 27.8826C0.995299 27.8826 0.995281 27.8826 0.995272 27.8826C0.995264 27.8826 0.99526 27.8826 0.995259 27.8826C0.995255 27.8826 0.995255 27.8826 1.00004 27.3827ZM6.71535 26.923C7.31184 26.9263 7.94823 26.9296 8.62121 26.9327L8.6165 27.9327C7.94323 27.9296 7.30656 27.9263 6.7098 27.923L6.71535 26.923ZM13.3893 26.9504C14.0074 26.9521 14.6425 26.9536 15.2931 26.9549L15.2912 27.9549C14.6403 27.9536 14.0049 27.9521 13.3866 27.9504L13.3893 26.9504ZM20.0601 26.9594C20.6867 26.9593 21.3226 26.959 21.967 26.9584L21.9679 27.9584C21.3233 27.959 20.687 27.9593 20.0601 27.9594L20.0601 26.9594ZM26.7311 26.9489C27.3614 26.9469 27.9968 26.9447 28.6366 26.9421L28.6407 27.9421C28.0005 27.9447 27.3648 27.9469 26.7343 27.9489L26.7311 26.9489ZM33.402 26.9167C33.7195 26.9146 34.0375 26.9124 34.3561 26.9101L34.3632 27.9101C34.0445 27.9124 33.7263 27.9146 33.4086 27.9167L33.402 26.9167ZM34.3561 26.9101C34.6817 26.9078 35.0046 26.9054 35.3247 26.903L35.3324 27.9029C35.0121 27.9054 34.689 27.9078 34.3632 27.9101L34.3561 26.9101ZM40.1391 26.8605C40.7947 26.8539 41.4359 26.8471 42.0626 26.8402L42.0737 27.8401C41.4466 27.847 40.8051 27.8538 40.1492 27.8604L40.1391 26.8605ZM46.88 26.7803C47.5445 26.7711 48.1872 26.7619 48.8077 26.7525L48.8227 27.7524C48.2018 27.7617 47.5587 27.771 46.8938 27.7802L46.88 26.7803ZM53.6193 26.6723C54.307 26.6596 54.9501 26.6472 55.548 26.6352L55.5681 27.635C54.9696 27.647 54.326 27.6595 53.6377 27.6721L53.6193 26.6723Z" fill="#005EB5"/>
</svg>
