<svg width="182" height="328" viewBox="0 0 182 328" fill="none" xmlns="http://www.w3.org/2000/svg">
<path fill-rule="evenodd" clip-rule="evenodd" d="M156.497 0C156.497 0 150.331 1.53903 150.331 7.98968C150.331 14.4403 156.497 23.3507 156.497 23.3507C156.497 23.3507 162.665 14.4403 162.665 7.98968C162.665 1.53903 156.497 0 156.497 0ZM181.161 29.497C181.163 37.5374 177.288 44.6747 171.296 49.1591H141.698C135.708 44.6747 131.827 37.5374 131.827 29.497C131.827 19.7479 139.351 14.7485 146.63 14.7485C146.63 19.7011 152.702 29.5634 156.495 30.724C160.097 29.4639 166.364 19.6738 166.364 14.7485C173.685 14.7485 181.161 19.746 181.161 29.497ZM196.473 34.75C196.473 34.75 192.222 35.8131 192.222 40.2585C192.222 44.7079 196.473 50.8542 196.473 50.8542C196.473 50.8542 200.726 44.7079 200.726 40.2585C200.726 35.8131 196.473 34.75 196.473 34.75ZM271.117 131.022C271.199 129.889 271.266 128.746 271.291 127.579C291.131 123.335 312.998 116.469 313 94.9242C313 85.7817 310.768 81.9956 306.977 78.5469C302.247 88.6589 281.381 101.919 269.941 108.625C269.677 107.108 269.388 105.656 269.063 104.283C285.081 94.6043 300.241 82.1926 300.241 66.106C300.241 54.1722 296.544 41.3587 284.932 37.2917C284.932 50.4797 267.298 76.4832 260.42 86.1192C258.982 84.508 257.496 83.2206 256.015 82.2121C252.945 93.4597 243.797 101.277 236.77 107.28C231.835 111.497 227.947 114.819 227.947 117.807C227.947 120.627 228.626 123.998 229.283 127.26C229.899 130.319 230.496 133.282 230.496 135.606C230.496 155.159 214.636 155.947 208.386 155.947C207.805 155.947 207.242 155.9 206.682 155.826V194.893C207.784 192.79 209.224 190.9 210.982 189.224C210.967 189.964 210.961 190.709 210.961 191.467C210.961 207.359 219.206 211.884 225.396 211.884C231.206 211.884 233.248 209.649 233.913 208.35C227.125 204.205 223.68 192.06 221.998 182.768C222.95 182.424 223.919 182.105 224.932 181.812C228.966 193.572 236.887 207.65 251.758 207.65C258.707 207.65 260.937 203.288 261.972 200.43C252.409 196.018 244.545 186.209 239.199 177.815C240.146 177.396 241.098 176.943 242.039 176.452C249.006 184.666 259.841 194.938 270.467 194.938C283.911 194.938 287.054 189.277 289.179 181.379C276.698 181.379 263.2 173.916 254.086 167.676C254.935 166.853 255.776 166.002 256.59 165.107C266.606 171.673 277.457 174.599 287.483 174.599C303.051 174.599 305.161 158.623 304.492 153.407C295.484 158.118 276.366 155.262 265.01 152.943C265.622 151.749 266.207 150.53 266.737 149.27C272.111 150.177 278.148 150.868 284.077 150.868C298.34 150.868 312.147 147.749 312.147 127.135C312.147 124.692 311.633 120.085 310.445 118.659C302.509 126.592 283.752 129.762 271.117 131.022ZM242.401 82.216C242.159 77.5326 243.252 73.7816 250.058 76.2803C247.535 73.9104 246.654 69.028 246.654 65.2633C246.654 64.1122 247.551 61.3467 248.46 58.5427L248.46 58.5424C249.677 54.7897 250.916 50.9681 250.058 50.8542C243.999 50.0509 239.452 46.5269 235.775 43.6777C233.06 41.5734 230.819 39.8372 228.796 39.8372C224.866 39.8372 219.439 46.1689 219.439 48.3126C219.439 49.0731 219.75 50.3093 220.107 51.7235C220.583 53.6134 221.139 55.8212 221.139 57.6365C221.139 61.4909 219.005 66.9018 214.335 68.6535C220.529 68.6535 229.645 66.7438 229.645 50.8542C229.645 50.8542 237.751 53.3139 243.252 53.3958C243.202 53.4583 243.122 53.55 243.018 53.6704L243.018 53.6705C241.702 55.1867 236.447 61.2408 236.447 70.3486C236.447 74.9169 238.968 79.6568 242.401 82.216ZM206.678 68.6535H186.265C182.134 65.5598 179.463 60.6384 179.463 55.0929C179.463 48.3672 184.643 44.9224 189.671 44.9224C189.671 48.3399 193.857 55.1377 196.473 55.9375C198.955 55.0714 203.277 48.3165 203.277 44.9224C208.33 44.9224 213.484 48.3672 213.484 55.0929C213.482 60.6365 210.81 65.5598 206.678 68.6535ZM126.729 68.6535H106.316C102.188 65.5598 99.5099 60.6384 99.5099 55.0929C99.5099 48.3672 104.67 44.9224 109.718 44.9224C109.718 48.3165 114.039 55.0714 116.523 55.9375C119.135 55.1377 123.327 48.3379 123.327 44.9224C128.351 44.9224 133.535 48.3672 133.535 55.0929C133.535 60.6365 130.863 65.5598 126.729 68.6535ZM116.525 34.75C116.525 34.75 112.272 35.8131 112.272 40.2585C112.272 44.7079 116.525 50.8542 116.525 50.8542C116.525 50.8542 120.776 44.7079 120.776 40.2585C120.776 35.8131 116.525 34.75 116.525 34.75ZM83.3533 50.8542C83.3533 50.8542 75.2428 53.3139 69.7438 53.3958C69.794 53.4583 69.8735 53.5499 69.9777 53.6699C71.2936 55.1859 76.5476 61.2389 76.5476 70.3486C76.5476 74.9169 74.0299 79.6549 70.5928 82.216C70.8334 77.5326 69.7438 73.7816 62.94 76.2803C65.4635 73.9104 66.3399 69.028 66.3399 65.2633C66.3399 64.113 65.4447 61.351 64.5367 58.5492C63.3197 54.7943 62.0796 50.9682 62.94 50.8542C68.9967 50.0499 73.5436 46.5274 77.2204 43.6789C79.9374 41.574 82.1793 39.8372 84.2043 39.8372C88.1324 39.8372 93.5571 46.1689 93.5571 48.3126C93.5571 49.0731 93.2461 50.309 92.8903 51.723L92.8902 51.7234L92.8902 51.7235C92.4146 53.6134 91.8591 55.8212 91.8591 57.6365C91.8591 61.4928 93.9914 66.9018 98.6628 68.6535C92.4674 68.6535 83.3533 66.7438 83.3533 50.8542ZM83.7162 127.264L83.7162 127.264C84.3738 124.002 85.0533 120.631 85.0533 117.811C85.0533 114.822 81.1649 111.5 76.2295 107.283C69.2032 101.28 60.0548 93.4631 56.9832 82.216C55.5043 83.2245 54.0137 84.5119 52.5739 86.1231C45.7036 76.4871 28.0681 50.4855 28.0681 37.2956C16.4559 41.3606 12.7566 54.1761 12.7566 66.1099C12.7566 82.1965 27.9194 94.6082 43.9391 104.287C43.6104 105.662 43.3209 107.114 43.0548 108.629C31.6128 101.923 10.7534 88.6628 6.01739 78.5508C2.23402 81.9976 0 85.7837 0 94.9281C0 116.469 21.8649 123.335 41.705 127.583C41.7344 128.75 41.8009 129.893 41.883 131.026C29.2497 129.766 10.4913 126.596 2.55485 118.663C1.3635 120.091 0.854876 124.696 0.854876 127.138C0.854876 147.752 14.6561 150.871 28.923 150.871C34.8523 150.871 40.8854 150.181 46.2611 149.274C46.7971 150.536 47.3801 151.755 47.9904 152.947C36.6364 155.266 17.5201 158.122 8.50768 153.411C7.83669 158.627 9.95334 174.603 25.5172 174.603C35.5429 174.603 46.3922 171.677 56.412 165.111C57.2239 166.008 58.0611 166.857 58.9141 167.68C49.8019 173.92 36.2999 181.383 23.8192 181.383C25.9436 189.281 29.0893 194.941 42.5306 194.941C53.1588 194.941 63.9925 184.67 70.9606 176.456C71.9015 176.947 72.8523 177.4 73.7991 177.819C68.4546 186.213 60.5906 196.022 51.0304 200.434C52.0653 203.292 54.2915 207.654 61.24 207.654C76.1113 207.654 84.0361 193.576 88.0698 181.816C89.0832 182.108 90.0495 182.428 91.0022 182.772C89.3179 192.062 85.8769 204.209 79.0887 208.354C79.746 209.653 81.7923 211.888 87.6062 211.888C93.7938 211.888 102.041 207.361 102.041 191.471C102.041 190.715 102.031 189.967 102.02 189.228C103.778 190.904 105.216 192.794 106.316 194.897V155.83C105.76 155.904 105.195 155.951 104.618 155.951C98.3596 155.951 82.5024 155.161 82.5024 135.61C82.5024 133.286 83.0996 130.323 83.7162 127.264ZM20.6383 214.888C20.1003 211.032 16.3854 210.191 16.0627 210.38C15.4853 210.709 15.4416 211.309 15.4113 211.724C15.4055 211.803 15.4002 211.876 15.3917 211.939C14.8107 211.875 13.9871 211.204 13.635 210.601C12.9894 209.485 13.4707 208.151 14.5192 207.546C15.0181 207.259 15.5498 206.954 16.0066 206.692C16.5098 206.403 16.9221 206.166 17.0995 206.064C17.7509 205.687 18.2047 205.352 18.3828 204.733C19.1907 206.12 19.0479 207.119 18.5275 207.687C20.1375 207.882 21.9196 209.302 22.663 210.589C21.9196 209.302 21.5714 207.057 22.2092 205.568C21.4541 205.732 20.517 205.36 19.713 203.969C20.3449 204.121 20.8594 203.897 21.5186 203.522C21.6984 203.416 22.1216 203.172 22.6364 202.876L22.6426 202.872L22.6499 202.868C23.0956 202.611 23.6085 202.316 24.0911 202.036C25.1416 201.433 26.5422 201.685 27.1897 202.798C27.536 203.405 27.7082 204.453 27.4714 204.989C27.4146 204.965 27.351 204.934 27.2814 204.9C26.9076 204.716 26.3624 204.449 25.7852 204.784C25.4624 204.971 24.3336 208.598 27.4167 210.991C30.4136 209.269 31.6734 205.623 29.7485 202.309C31.1316 202.008 34.7897 202.19 37.0668 206.122C39.6314 210.55 38.4909 214.408 35.2768 216.252C34.0855 216.942 32.2134 217.276 31.3115 216.872C33.1856 220.102 36.1337 220.038 37.0981 219.905C37.6126 221.967 36.386 223.627 34.6802 224.985C35.0519 225.357 35.3942 225.812 35.6935 226.323L51.3454 252.656C57.5625 253.045 59.113 254.745 60.5632 256.334C61.9897 257.897 63.3191 259.354 68.8967 259.354C76.4423 259.354 80.8655 253.681 85.0264 248.343L85.0266 248.343L85.0269 248.343L85.0271 248.342L85.0274 248.342L85.0276 248.342L85.0279 248.341L85.0281 248.341L85.0284 248.341L85.0286 248.34L85.0289 248.34L85.0292 248.34L85.0294 248.339L85.0297 248.339L85.0299 248.339L85.0302 248.339L85.0304 248.338L85.0307 248.338C85.6342 247.564 86.2322 246.797 86.8335 246.055C83.862 244.779 81.448 242.279 81.6534 237.316C83.6585 238.432 86.4951 237.652 87.6082 237.316C87.3277 236.953 87.0123 236.654 86.7009 236.359C85.7768 235.484 84.8884 234.643 85.0553 232.235C94.7797 232.235 102.524 225.652 106.318 217.338V223.758C106.318 232.167 108.843 236.944 113.209 239.558C110.707 241.477 108.869 244.914 108.869 250.885C108.869 253.7 109.272 255.594 109.72 256.813C104.876 256.774 101.793 255.974 99.8131 254.821C96.376 258.732 90.3278 260.578 84.3775 262.395C78.5663 264.169 72.8484 265.914 69.7477 269.527C69.7477 272.96 68.1788 275.418 65.6768 276.777L74.7048 291.963C75.8786 293.993 75.1821 296.584 73.1476 297.754C71.1112 298.924 68.5133 298.23 67.3415 296.199L60.4106 283.936H60.3891H58.6891C52.701 283.936 50.4768 280.167 52.3704 277.936C47.0612 277.327 45.3378 272.788 47.5561 270.301C40.0246 269.525 39.3478 259.6 46.5467 259.378L29.7994 229.715C29.504 229.204 29.279 228.683 29.144 228.172C27.1193 228.956 25.0731 229.175 23.5472 227.708C24.1478 226.941 25.6737 224.431 23.7996 221.204C23.7057 222.18 22.4791 223.627 21.2819 224.314C18.0737 226.161 14.1495 225.221 11.5809 220.793C9.30778 216.86 10.9764 213.611 11.9252 212.571C13.8463 215.879 17.6453 216.615 20.6383 214.888ZM129.28 244.093C129.28 248.222 123.851 256.532 114.819 260.197C115.711 261.34 117.091 262.415 118.875 263.412C111.746 270.806 97.004 284.271 81.6534 287.318C81.6534 292.639 86.6633 299.182 98.6648 299.182C113.368 299.182 126.048 277.694 131.142 267.724C132.085 267.937 133.046 268.138 134.036 268.333C128.836 280.36 118.221 299.974 102.069 306.813C103.855 312.668 109.575 317.83 119.082 317.83C135.955 317.83 144.329 283.702 147.009 270.016C147.806 270.073 148.598 270.128 149.402 270.172C148.605 283.347 146.344 292.535 144.536 299.882C143.156 305.488 142.04 310.022 142.04 314.437C142.04 322.674 146.698 324.286 151.601 325.983C153.264 326.558 154.954 327.144 156.501 328C158.048 327.144 159.738 326.559 161.4 325.983C166.303 324.286 170.96 322.674 170.96 314.437C170.96 310.022 169.844 305.487 168.465 299.881C166.658 292.534 164.399 283.346 163.602 270.172C164.406 270.128 165.202 270.073 165.993 270.016C168.675 283.702 177.049 317.83 193.926 317.83C203.431 317.83 209.149 312.668 210.937 306.813C194.783 299.974 184.166 280.36 178.968 268.333C179.958 268.14 180.921 267.937 181.862 267.724C186.954 277.694 199.634 299.182 214.341 299.182C226.339 299.182 231.349 292.641 231.349 287.318C216.004 284.269 201.264 270.806 194.133 263.412C195.909 262.415 197.285 261.34 198.181 260.197C189.147 256.532 183.718 248.222 183.718 244.093C183.718 243.504 183.794 242.94 183.925 242.413C168.416 242.661 161.431 246.818 156.499 252.57C151.511 246.818 144.494 242.661 129.073 242.413C129.21 242.938 129.28 243.502 129.28 244.093ZM202.428 224.598C202.428 232.543 199.339 234.778 198.282 235.543C198.244 235.57 198.209 235.596 198.177 235.619C195.804 237.357 192.329 238.161 186.267 238.161C173.115 238.161 163.287 240.984 156.497 246.638C149.711 240.985 139.879 238.161 126.729 238.161C120.665 238.161 117.196 237.357 114.819 235.619C114.786 235.595 114.75 235.569 114.711 235.541C113.652 234.772 110.567 232.535 110.567 224.598V132.218H202.426V224.598H202.428ZM140.339 226.299C138.545 227.37 133.361 227.994 130.131 227.994C125.583 227.994 121.475 225.32 121.475 219.974C121.475 217.109 122.898 215.679 124.187 214.386C125.253 213.316 126.226 212.339 126.226 210.72C126.226 208.282 125.751 206.444 123.847 205.1C127.654 205.719 129.28 209.276 129.28 211.886C129.28 213.154 128.831 214.105 128.395 215.029C127.983 215.903 127.582 216.752 127.582 217.822C127.582 219.437 129.601 220.725 130.929 220.725C132.672 220.725 137.154 219.952 138.169 219.273C137.934 220.264 139.022 224.924 140.339 226.299ZM122.181 179.335C122.181 182.047 123.476 183.514 124.685 184.881C125.74 186.076 126.729 187.196 126.729 189.004C126.729 191.637 125.671 194.824 124.176 196.278C129.434 195.726 132.336 191.454 132.336 187.687C132.336 186.402 131.753 185.136 131.186 183.907C130.651 182.745 130.131 181.615 130.131 180.532C130.131 178.33 131.359 177.138 132.684 177.138C134.615 177.138 135.657 177.645 136.105 178.166C136.379 177.583 137.124 176.647 137.58 176.319C136.575 174.361 134.319 172.055 129.28 172.055C124.305 172.055 122.181 175.716 122.181 179.335ZM132.466 164.84C131.957 163.886 131.504 163.037 129.765 163.037C131.798 158.457 138.007 154.281 141.982 153.085C141.982 156.624 143.656 157.509 147.142 158.491C147.453 159.909 147.991 162.575 147.991 165.885C147.991 167.15 147.773 168.324 147.614 169.184C147.522 169.68 147.449 170.071 147.449 170.313C145.029 170.313 143.821 169.614 142.601 168.908C141.357 168.189 140.102 167.463 137.541 167.463C133.864 167.463 133.119 166.065 132.466 164.84ZM188.912 193.469C189.043 192.737 189.143 190.49 188.912 189.603C188.304 187.915 185.641 183.804 183.145 181.98C182.937 181.971 182.693 181.957 182.424 181.943L182.421 181.943H182.421C181.036 181.869 178.999 181.76 177.883 181.964C177.883 183.219 177.332 184.858 176.802 186.435C176.31 187.897 175.836 189.306 175.836 190.307C179.386 189.02 180.999 187.442 182.02 186.442L182.02 186.442C182.322 186.147 182.572 185.903 182.805 185.731C184.765 186.745 186.478 189.068 187.247 190.155C187.384 190.886 187.302 192.265 187.247 192.921C186.776 192.921 185.58 193.756 185.58 194.579C186.098 195.715 187.961 196.615 189.028 197.131C189.196 197.212 189.344 197.283 189.464 197.345C190.197 196.254 189.806 193.775 188.912 193.469ZM189.538 205.779C192.253 205.779 194.071 207.363 194.204 208.617C194.499 211.272 193.677 212.713 191.795 213.876C192.308 215.399 189.865 217.609 187.918 218.193C187.791 218.817 187.075 220.024 186.312 220.295C186.064 219.464 185.543 219.166 185.105 219.121C185.05 220.453 184.448 221.651 183.272 222.431C183.059 221.368 182.36 220.617 181.601 220.165C181.601 221.827 181.032 223.399 179.604 224.485C179.508 223.697 178.376 222.121 177.632 221.762C177.894 227.413 175.208 233.626 171.779 235.615C171.928 234.812 171.56 233.466 170.928 233.07C168.452 234.909 156.963 235.465 154.799 234.765C158.845 233.95 160.05 229.652 158.203 227.987C159.424 226.742 160.31 223.67 160.31 221.343C160.31 216.09 157.086 214.715 153.647 214.715C150.54 214.715 148.649 217.093 148.649 219.139C148.649 221.637 150.327 222.453 151.426 222.453C152.025 222.453 152.571 221.345 151.978 221.345C150.752 221.345 150.313 220.373 150.313 219.139C150.313 217.871 151.831 216.369 153.645 216.369C155.66 216.369 158.641 217.055 158.641 221.345C158.641 223.333 158.162 229.68 149.697 229.68C144.711 229.68 139.759 225.818 139.759 219.139C139.759 216.117 142.037 208.494 152.246 208.494C155.765 208.494 158.627 209.491 161.221 210.665C161.069 210.008 161.246 209.428 161.418 208.863C161.62 208.199 161.816 207.555 161.464 206.832C160.973 205.834 159.956 205.629 159.269 205.75C159.457 205.032 160.519 204.472 161.671 205.315C161.845 204.611 161.139 203.551 159.801 203.883C159.942 203.524 160.468 203.193 161.081 203.193C163.66 203.193 164.341 205.27 165.097 207.579C165.849 209.873 166.676 212.395 169.516 213.33L162.319 193.633C157.818 193.545 148.833 192.677 146.829 192.041C146.008 196.773 141.589 199.89 136.95 201.997C135.72 204.261 135.372 210.31 135.843 211.949C136.588 212.269 137.535 213.784 137.51 214.715C136.193 215.667 133.122 215.534 132.508 214.715C132.467 213.572 132.969 212.596 133.621 211.949C133.204 210.593 132.92 202.695 134.732 199.785C138.051 198.585 137.696 194.005 137.506 191.557V191.557C137.471 191.108 137.441 190.731 137.441 190.459C137.441 189.679 137.176 188.912 136.882 188.06C136.515 187 136.103 185.81 136.103 184.303C136.103 176.949 142.931 173.498 148.649 174.546C148.649 172.492 148.962 170.77 149.256 169.157C149.515 167.737 149.758 166.402 149.758 165C149.758 162.924 149.199 159.701 148.944 158.226C148.901 157.977 148.866 157.777 148.844 157.642C148.601 157.559 148.309 157.476 147.988 157.385C146.325 156.914 143.905 156.228 143.742 154.252C143.564 152.089 143.41 147.692 143.742 144.93C143.742 144.569 143.511 144.284 143.29 144.01C143.085 143.758 142.889 143.516 142.889 143.235C142.889 142.595 143.04 142.059 143.326 141.639L141.86 137.631C141.7 137.188 141.927 136.704 142.367 136.544C142.811 136.384 143.296 136.609 143.459 137.051L144.811 140.744C145.006 140.713 145.212 140.693 145.44 140.693C146.139 140.693 147.144 142.369 147.144 143.237C147.144 144.003 146.697 144.492 146.406 144.811L146.363 144.858L146.327 144.899C146.327 144.899 172.785 217.342 172.838 217.492L172.838 217.493C172.89 217.648 173.297 218.849 174.031 218.579C174.467 218.415 174.485 217.931 174.322 217.492L173.19 214.387C174.559 214.311 175.887 214.143 176.797 213.895C175.426 210.702 173.289 205.442 173.068 204.066C172.198 203.559 171.722 201.616 171.707 200.081C171.005 199.514 167.875 195.433 167.522 193.151C167.043 193.311 166.233 193.434 165.564 193.514L150.615 152.584C150.705 152.588 150.802 152.592 150.905 152.596L150.913 152.596L150.917 152.596C151.354 152.613 151.873 152.634 152.244 152.66C151.7 151.615 151.391 150.427 151.391 149.167C151.391 144.955 154.817 141.54 159.046 141.54C163.273 141.54 166.701 144.955 166.701 149.167C166.701 152.58 164.447 155.471 161.343 156.442C161.982 157.486 162.63 158.769 163.082 160.271C160.247 162.561 159.195 167.416 159.195 170.223C159.195 171.554 160.859 171.946 160.859 170.483C160.859 162.561 166.464 155.003 175.854 155.003C183.941 155.003 185.293 159.864 185.293 163.295C185.293 164.63 184.506 166.033 183.77 167.344C183.124 168.496 182.517 169.578 182.517 170.483C182.517 171.138 181.474 174.911 179.739 174.911C178.008 174.911 176.963 173.881 176.963 173.249C176.963 172.788 177.096 172.235 177.231 171.668L177.231 171.667C177.373 171.073 177.519 170.463 177.519 169.931C177.519 168.891 177.126 165.507 176.41 165.507C175.034 165.507 174.187 167.824 174.187 169.931C174.187 171.274 174.735 172.65 175.287 174.036C175.846 175.441 176.41 176.856 176.41 178.256C176.41 182.157 175.684 183.951 175.042 185.534C174.535 186.786 174.082 187.907 174.082 189.835C174.082 190.877 174.183 192.648 174.284 194.416L174.284 194.417C174.385 196.186 174.486 197.952 174.485 198.979C175.117 199.685 175.827 201.952 175.594 203.403C175.748 205.141 177.202 210.222 178.299 213.343C181.107 212.536 183.454 210.595 183.454 208.919C183.454 208.506 183.39 208.252 183.32 207.969C183.231 207.615 183.131 207.216 183.131 206.405C183.131 205.758 183.55 205.137 184.964 205.137C186.379 205.137 187.196 205.305 187.713 206.257C187.05 206.417 186.451 206.668 186.046 206.984L187.357 208.012L185.578 208.465C185.673 209.408 185.561 210.005 185.441 210.648C185.342 211.18 185.236 211.744 185.236 212.561C186.995 212.561 188.47 212.353 190.189 210.31L188.112 207.845L191.156 208.549C191.324 207.437 190.528 206.575 189.538 205.779ZM153.506 194.815C151.344 194.682 148.803 194.208 148.095 194.023C147.669 195.154 146.636 196.67 145.879 197.38C145.879 199.423 145.008 200.339 144.214 201.176L144.214 201.176C143.955 201.449 143.704 201.713 143.494 202.005C143.494 203.395 143.881 207.388 144.74 208.344C145.1 208.02 146.174 207.544 146.919 207.488C146.327 205.984 146.162 204.066 146.162 202.559C146.411 202.392 146.787 202.189 147.24 201.945L147.24 201.944C149.455 200.748 153.506 198.559 153.506 194.815ZM159.124 144.78C162.401 144.78 163.354 147.117 163.354 149.293C163.354 151.47 161.372 153.442 159.199 153.641C159.383 153.829 159.924 154.408 160.56 155.276C163.322 154.601 165.373 152.126 165.373 149.169C165.373 145.691 162.54 142.872 159.052 142.872C155.56 142.872 152.731 145.693 152.731 149.169C152.731 150.54 153.175 151.81 153.923 152.842C154.359 152.906 154.736 152.986 155.016 153.087C155.28 152.781 155.583 151.977 155.648 151.714C155.719 151.441 155.578 151.259 155.389 151.014C155.123 150.668 154.76 150.198 154.76 149.169C154.76 146.498 156.46 144.78 159.124 144.78ZM163.577 219.098C163.215 218.45 163.337 217.855 163.458 217.259C163.571 216.705 163.685 216.15 163.408 215.552C162.872 214.401 161.976 214.557 161.474 214.676C161.529 214.116 162.567 213.269 163.815 214.295C163.989 213.591 163.283 212.532 161.947 212.86C162.082 212.505 162.552 212.029 163.164 212.029C165.841 212.029 166.436 214.041 166.995 215.929C167.433 217.406 167.848 218.808 169.22 219.111C168.418 220.44 164.866 219.97 163.577 219.098ZM122.302 127.981H156.46C155.914 113.79 148.611 98.8878 138.631 94.0796C139.229 93.7738 139.834 93.4914 140.429 93.2132L140.429 93.2131L140.429 93.213L140.429 93.2129L140.43 93.2128L140.43 93.2127L140.431 93.2124C143.939 91.5726 147.142 90.0753 147.142 84.7596C144.243 86.3123 138.605 86.244 136.935 83.9091C144.294 81.5782 147.142 78.0261 147.142 67.805C142.455 72.2504 138.549 72.8921 130.978 72.8921H101.21C95.8635 72.8921 94.8678 76.1555 96.11 78.822C92.6142 78.822 82.5004 79.3935 82.5004 88.1478C82.5004 93.4866 84.1182 97.0328 86.7513 100.011C89.1379 96.9099 92.3677 94.9301 96.11 94.9301C99.8483 94.9301 104.322 96.4535 106.314 98.3163C104.231 98.3163 101.641 99.7405 98.8348 101.284C95.5168 103.108 91.8964 105.099 88.4552 105.099C85.8417 105.099 83.5822 104.422 81.6495 103.403C82.9601 107.437 87.4575 108.489 90.1571 108.489C92.8528 108.489 99.5099 105.943 99.5099 105.943C99.5099 105.943 99.0306 109.177 99.5099 111.879C99.7669 111.637 100.032 111.363 100.314 111.071L100.314 111.071L100.314 111.071L100.315 111.07L100.315 111.07L100.315 111.07L100.315 111.07C102.054 109.272 104.451 106.794 109.718 106.794C116.328 106.794 121.322 112.312 122.302 127.981ZM101.212 81.3656L103.765 86.4488L115.674 81.3656H101.212ZM134.384 68.6515C140.577 68.6515 150.544 64.8771 150.544 53.3939H142.037C142.037 53.3939 142.353 65.6612 134.384 68.6515ZM178.614 68.6535C172.417 68.6535 162.448 64.8771 162.448 53.3958H170.956C170.956 53.3939 170.641 65.6612 178.614 68.6535ZM212.685 111.075L212.685 111.076L212.686 111.077C212.966 111.367 213.228 111.638 213.482 111.879C213.967 109.177 213.48 105.941 213.48 105.941C213.48 105.941 220.139 108.487 222.835 108.487C225.539 108.487 230.036 107.435 231.343 103.402C229.414 104.42 227.156 105.097 224.537 105.097C221.098 105.097 217.479 103.107 214.162 101.283C211.355 99.7394 208.763 98.3144 206.678 98.3144C208.676 96.4515 213.148 94.9281 216.884 94.9281C220.626 94.9281 223.854 96.906 226.243 100.009C228.88 97.0309 230.492 93.4847 230.492 88.1459C230.492 79.3915 220.38 78.82 216.884 78.82C218.128 76.1535 217.127 72.8902 211.786 72.8902H182.014C174.448 72.8902 170.539 72.2484 165.852 67.803C165.852 78.0242 168.7 81.5762 176.059 83.9072C174.389 86.244 168.749 86.3123 165.852 84.7577C165.852 90.0713 169.054 91.5695 172.558 93.2085C173.154 93.4876 173.76 93.7708 174.359 94.0777C164.389 98.8878 157.084 113.792 156.538 127.981H190.696C191.674 112.312 196.666 106.794 203.275 106.794C208.551 106.794 210.948 109.276 212.685 111.075ZM211.786 81.3675H197.322L209.229 86.4508L211.786 81.3675ZM204.128 250.879C204.128 253.694 203.723 255.588 203.275 256.807C208.165 256.77 211.264 255.954 213.244 254.778C217.008 258.943 223.995 261.225 230.772 263.437C237.268 265.559 243.571 267.617 246.656 271.21C248.228 272.778 249.577 274.122 250.853 275.393C251.742 276.278 252.594 277.127 253.462 277.992C254.823 279.352 260.358 279.596 261.964 277.992C262.364 277.594 262.732 277.227 263.083 276.878C263.433 276.528 263.764 276.198 264.09 275.874C264.165 275.948 264.239 276.02 264.312 276.092C264.381 276.161 264.451 276.229 264.521 276.301C265.884 277.653 269.718 277.897 271.326 276.301C271.517 276.111 271.7 275.928 271.877 275.75C272.458 275.17 272.976 274.651 273.486 274.146C274.836 275.144 276.692 275.189 278.126 273.754C278.979 272.909 280.877 271.019 281.528 270.367C282.895 269.006 283.04 266.804 282.637 265.056C284.629 261.783 285.781 257.946 285.781 253.84C285.781 243.131 277.962 234.246 267.699 232.532C267.193 230.733 266.835 228.574 266.668 226.368C269.728 226.643 272.502 227.446 273.901 228.837C275.002 227.737 275.022 220.635 273.901 219.515C272.516 220.892 269.708 221.71 266.606 221.992C266.766 218.678 267.439 215.756 268.769 214.43C267.662 213.33 260.538 213.31 259.417 214.43C260.718 215.729 261.404 218.655 261.58 221.985C258.474 221.694 255.672 220.867 254.309 219.515C253.145 220.668 253.227 227.758 254.309 228.837C255.62 227.534 258.413 226.699 261.529 226.395C261.369 228.587 261.023 230.735 260.508 232.53C250.232 234.229 242.401 243.121 242.401 253.842C242.401 256.401 242.853 258.855 243.669 261.137C236.381 259.063 231.695 253.104 227.704 248.029C227.172 247.353 226.653 246.693 226.141 246.059C229.122 244.787 231.552 242.292 231.343 237.312C229.341 238.428 226.503 237.648 225.392 237.312C225.672 236.949 225.987 236.65 226.298 236.356C227.222 235.48 228.11 234.639 227.943 232.231C218.216 232.231 210.474 225.648 206.678 217.334V223.754C206.678 232.151 204.135 236.924 199.775 239.538C202.283 241.454 204.128 244.895 204.128 250.879Z" fill="#005EB5"/>
</svg>
