<svg width="32" height="32" viewBox="0 0 32 32" fill="none" xmlns="http://www.w3.org/2000/svg">
<path d="M24.3064 21.1493C23.2619 20.1181 21.958 20.1181 20.9201 21.1493C20.1284 21.9343 19.3368 22.7194 18.5584 23.5177C18.3455 23.7372 18.1659 23.7838 17.9064 23.6374C17.3941 23.358 16.8486 23.1318 16.3563 22.8258C14.0611 21.3821 12.1384 19.526 10.4353 17.437C9.59039 16.3992 8.83863 15.2882 8.31306 14.0374C8.20661 13.7846 8.22657 13.6183 8.43281 13.4121C9.22449 12.647 9.99621 11.862 10.7746 11.0769C11.859 9.98588 11.859 8.70855 10.7679 7.61083C10.1492 6.98547 9.53052 6.37341 8.91181 5.74805C8.27314 5.10938 7.64112 4.46405 6.9958 3.83204C5.95131 2.81416 4.64736 2.81416 3.60952 3.83869C2.81118 4.62372 2.04611 5.42871 1.23447 6.20044C0.482701 6.91229 0.103491 7.7838 0.0236575 8.80168C-0.102746 10.4582 0.303075 12.0216 0.875217 13.5451C2.04611 16.6986 3.82906 19.4994 5.99123 22.0674C8.91181 25.5401 12.3979 28.2878 16.476 30.2703C18.3122 31.1618 20.2149 31.847 22.2839 31.9601C23.7076 32.0399 24.9451 31.6807 25.9363 30.5697C26.6149 29.8112 27.38 29.1194 28.0985 28.3942C29.163 27.3164 29.1696 26.0125 28.1118 24.948C26.8478 23.6774 25.5771 22.4133 24.3064 21.1493Z" fill="white"/>
<path d="M23.0354 15.847L25.4903 15.4279C25.1044 13.1726 24.0399 11.1302 22.4233 9.50689C20.7135 7.79711 18.5514 6.71936 16.1697 6.38672L15.8237 8.85491C17.6666 9.11437 19.3431 9.94597 20.667 11.2699C21.9177 12.5206 22.736 14.104 23.0354 15.847Z" fill="white"/>
<path d="M26.8742 5.17588C24.0401 2.34179 20.4543 0.552183 16.4958 0L16.1499 2.46819C19.5694 2.94719 22.6697 4.4973 25.1179 6.93888C27.4397 9.26071 28.9632 12.1946 29.5154 15.4212L31.9703 15.0021C31.325 11.2632 29.562 7.87027 26.8742 5.17588Z" fill="white"/>
</svg>
